<?xml version="1.0" encoding="UTF-8" standalone="no"?>
<svg
   xmlns:dc="http://purl.org/dc/elements/1.1/"
   xmlns:cc="http://creativecommons.org/ns#"
   xmlns:rdf="http://www.w3.org/1999/02/22-rdf-syntax-ns#"
   xmlns:svg="http://www.w3.org/2000/svg"
   xmlns="http://www.w3.org/2000/svg"
   id="svg12417"
   version="1.1"
   viewBox="0 0 8.1530466 9.5458841"
   height="9.5458841mm"
   width="8.1530466mm">
  <defs
     id="defs12411">
    <clipPath
       id="clipPath6077"
       clipPathUnits="userSpaceOnUse">
      <path
         id="path6075"
         d="m 282.148,241.663 h 23.112 v 27.06 h -23.112 z" />
    </clipPath>
  </defs>
  <metadata
     id="metadata12414">
    <rdf:RDF>
      <cc:Work
         rdf:about="">
        <dc:format>image/svg+xml</dc:format>
        <dc:type
           rdf:resource="http://purl.org/dc/dcmitype/StillImage" />
        <dc:title></dc:title>
      </cc:Work>
    </rdf:RDF>
  </metadata>
  <g
     transform="translate(-128.9711,-174.29849)"
     id="layer1">
    <g
       id="g6071"
       transform="matrix(0.35277777,0,0,-0.35277777,29.435342,269.09799)">
      <g
         clip-path="url(#clipPath6077)"
         id="g6073">
        <g
           transform="translate(282.6796,243.88)"
           id="g6079">
          <path
             id="path6081"
             style="fill:#ee2d21;fill-opacity:1;fill-rule:nonzero;stroke:none"
             d="M 0,0 C 0.069,0.053 0.111,0.158 0.111,0.304 0.111,0.45 0.069,0.556 0,0.609 -0.066,0.661 -0.141,0.683 -0.227,0.683 h -0.191 v -0.757 h 0.191 c 0.086,0 0.161,0.021 0.227,0.074 m -0.531,-0.176 v 0.96 h 0.298 c 0.083,0 0.156,-0.01 0.241,-0.054 C 0.05,0.709 0.087,0.68 0.118,0.646 0.178,0.578 0.224,0.457 0.224,0.304 0.224,0.151 0.178,0.031 0.118,-0.038 0.087,-0.072 0.05,-0.1 0.008,-0.122 -0.077,-0.165 -0.15,-0.176 -0.233,-0.176 Z" />
        </g>
        <g
           transform="translate(283.2305,244.1301)"
           id="g6083">
          <path
             id="path6085"
             style="fill:#ee2d21;fill-opacity:1;fill-rule:nonzero;stroke:none"
             d="M 0,0 H 0.458 C 0.45,0.065 0.408,0.204 0.226,0.204 0.108,0.204 0.022,0.137 0,0 m 0.565,-0.097 h -0.57 c 0.006,-0.145 0.098,-0.244 0.239,-0.244 0.084,0 0.154,0.034 0.21,0.103 L 0.527,-0.286 C 0.458,-0.388 0.36,-0.438 0.234,-0.438 c -0.069,0 -0.139,0.02 -0.216,0.069 -0.076,0.05 -0.13,0.156 -0.13,0.296 0,0.104 0.028,0.193 0.086,0.265 0.058,0.073 0.142,0.11 0.252,0.11 0.236,0 0.339,-0.184 0.339,-0.359 z" />
        </g>
        <g
           transform="translate(284.963,243.7041)"
           id="g6087">
          <path
             id="path6089"
             style="fill:#ee2d21;fill-opacity:1;fill-rule:nonzero;stroke:none"
             d="m 0,0 h -0.107 v 0.464 c 0,0.059 -0.003,0.099 -0.042,0.137 -0.02,0.02 -0.047,0.029 -0.082,0.029 -0.134,0 -0.173,-0.097 -0.173,-0.303 V 0 h -0.107 v 0.469 c 0,0.107 -0.042,0.161 -0.126,0.161 -0.123,0 -0.185,-0.098 -0.185,-0.297 V 0 h -0.107 v 0.715 h 0.107 L -0.8,0.641 c 0.046,0.058 0.101,0.087 0.165,0.087 0.098,0 0.166,-0.042 0.202,-0.125 0.052,0.083 0.119,0.125 0.203,0.125 0.088,0 0.149,-0.023 0.181,-0.069 C -0.016,0.614 0,0.551 0,0.469 Z" />
        </g>
        <g
           transform="translate(285.5446,243.7895)"
           id="g6091">
          <path
             id="path6093"
             style="fill:#ee2d21;fill-opacity:1;fill-rule:nonzero;stroke:none"
             d="m 0,0 c 0.069,0 0.127,0.027 0.172,0.081 0.046,0.054 0.069,0.118 0.069,0.191 0,0.073 -0.023,0.136 -0.069,0.19 C 0.127,0.518 0.069,0.545 0,0.545 -0.069,0.545 -0.127,0.518 -0.173,0.462 -0.218,0.408 -0.241,0.345 -0.241,0.272 -0.241,0.199 -0.218,0.135 -0.173,0.081 -0.127,0.027 -0.069,0 0,0 M 0.247,0.009 C 0.181,-0.062 0.099,-0.097 0,-0.097 c -0.099,0 -0.183,0.035 -0.249,0.106 -0.066,0.072 -0.098,0.158 -0.098,0.263 0,0.104 0.032,0.192 0.098,0.263 0.066,0.072 0.15,0.107 0.249,0.107 0.099,0 0.181,-0.035 0.247,-0.107 0.067,-0.071 0.1,-0.159 0.1,-0.263 0,-0.105 -0.033,-0.191 -0.1,-0.263" />
        </g>
        <g
           transform="translate(286.1599,244.3261)"
           id="g6095">
          <path
             id="path6097"
             style="fill:#ee2d21;fill-opacity:1;fill-rule:nonzero;stroke:none"
             d="m 0,0 c 0.061,0.07 0.147,0.106 0.257,0.106 0.067,0 0.124,-0.018 0.17,-0.053 0.048,-0.034 0.08,-0.073 0.1,-0.118 L 0.442,-0.113 C 0.396,-0.032 0.334,0.008 0.257,0.008 0.188,0.008 0.131,-0.015 0.084,-0.061 0.038,-0.105 0.015,-0.178 0.015,-0.277 c 0,-0.085 0.024,-0.15 0.072,-0.195 0.047,-0.043 0.102,-0.065 0.163,-0.065 0.099,0 0.166,0.038 0.203,0.114 L 0.539,-0.468 C 0.5,-0.56 0.406,-0.634 0.25,-0.634 c -0.095,0 -0.176,0.032 -0.242,0.097 -0.066,0.065 -0.1,0.152 -0.1,0.26 0,0.115 0.031,0.207 0.092,0.277" />
        </g>
        <g
           transform="translate(287.3157,244.3222)"
           id="g6099">
          <path
             id="path6101"
             style="fill:#ee2d21;fill-opacity:1;fill-rule:nonzero;stroke:none"
             d="m 0,0 c -0.012,0.008 -0.028,0.012 -0.046,0.012 -0.165,0 -0.247,-0.094 -0.247,-0.284 V -0.618 H -0.4 v 0.715 h 0.107 L -0.27,0.019 C -0.224,0.08 -0.154,0.11 -0.061,0.11 -0.035,0.11 -0.015,0.106 0,0.097 Z" />
        </g>
        <g
           transform="translate(287.933,244.0963)"
           id="g6103">
          <path
             id="path6105"
             style="fill:#ee2d21;fill-opacity:1;fill-rule:nonzero;stroke:none"
             d="m 0,0 c -0.023,-0.039 -0.078,-0.058 -0.165,-0.058 -0.081,0 -0.132,-0.016 -0.153,-0.047 -0.017,-0.031 -0.021,-0.049 -0.021,-0.083 0,-0.071 0.051,-0.123 0.131,-0.123 0.117,0.004 0.173,0.047 0.192,0.118 C 0,-0.141 0,-0.112 0,-0.057 Z M 0.124,-0.392 H 0.043 c -0.03,0 -0.044,0.02 -0.044,0.062 v 0.015 c -0.059,-0.059 -0.129,-0.089 -0.211,-0.089 -0.159,0 -0.25,0.088 -0.25,0.227 0,0.058 0.023,0.107 0.067,0.147 0.045,0.042 0.118,0.062 0.216,0.062 0.037,0 0.068,0.005 0.11,0.015 C -0.027,0.058 0,0.084 0,0.122 c 0,0.076 -0.068,0.116 -0.155,0.116 -0.078,0 -0.138,-0.03 -0.186,-0.089 l -0.078,0.073 c 0.004,0.005 0.008,0.013 0.039,0.039 0.015,0.014 0.032,0.026 0.05,0.035 0.038,0.021 0.101,0.039 0.17,0.039 0.18,0 0.264,-0.098 0.264,-0.262 v -0.414 c 0,-0.021 0.007,-0.032 0.02,-0.032 z" />
        </g>
        <g
           transform="translate(288.7185,243.8016)"
           id="g6107">
          <path
             id="path6109"
             style="fill:#ee2d21;fill-opacity:1;fill-rule:nonzero;stroke:none"
             d="M 0,0 V -0.097 H -0.51 V 0 l 0.373,0.521 h -0.348 v 0.097 h 0.477 V 0.522 L -0.383,0 Z" />
        </g>
        <path
           id="path6111"
           style="fill:#ee2d21;fill-opacity:1;fill-rule:nonzero;stroke:none"
           d="m 288.928,244.42 h 0.107 v -0.715 h -0.107 z m -0.002,0.244 h 0.112 v -0.147 h -0.112 z" />
        <g
           transform="translate(289.7329,244.0963)"
           id="g6113">
          <path
             id="path6115"
             style="fill:#ee2d21;fill-opacity:1;fill-rule:nonzero;stroke:none"
             d="m 0,0 c -0.023,-0.039 -0.078,-0.058 -0.165,-0.058 -0.081,0 -0.132,-0.016 -0.153,-0.047 -0.017,-0.031 -0.021,-0.049 -0.021,-0.083 0,-0.071 0.051,-0.123 0.131,-0.123 0.117,0.004 0.173,0.047 0.192,0.118 C 0,-0.141 0,-0.112 0,-0.057 Z M 0.124,-0.392 H 0.043 c -0.03,0 -0.044,0.02 -0.044,0.062 v 0.015 c -0.059,-0.059 -0.129,-0.089 -0.211,-0.089 -0.158,0 -0.25,0.088 -0.25,0.227 0,0.058 0.023,0.107 0.067,0.147 0.045,0.042 0.118,0.062 0.217,0.062 0.036,0 0.067,0.005 0.109,0.015 C -0.027,0.058 0,0.084 0,0.122 c 0,0.076 -0.068,0.116 -0.155,0.116 -0.078,0 -0.138,-0.03 -0.186,-0.089 l -0.078,0.073 c 0.004,0.005 0.008,0.013 0.039,0.039 0.015,0.014 0.033,0.026 0.05,0.035 0.038,0.021 0.102,0.039 0.17,0.039 0.18,0 0.264,-0.098 0.264,-0.262 v -0.414 c 0,-0.021 0.007,-0.032 0.02,-0.032 z" />
        </g>
        <path
           id="path6117"
           style="fill:#ee2d21;fill-opacity:1;fill-rule:nonzero;stroke:none"
           d="m 290.446,244.677 h 0.1 v -1.216 h -0.1 z" />
        <g
           transform="translate(291.8166,243.7041)"
           id="g6119">
          <path
             id="path6121"
             style="fill:#ee2d21;fill-opacity:1;fill-rule:nonzero;stroke:none"
             d="m 0,0 h -0.634 v 0.96 h 0.62 V 0.859 h -0.507 v -0.31 h 0.426 V 0.448 H -0.521 V 0.101 H 0 Z" />
        </g>
        <g
           transform="translate(292.4719,243.8745)"
           id="g6123">
          <path
             id="path6125"
             style="fill:#ee2d21;fill-opacity:1;fill-rule:nonzero;stroke:none"
             d="m 0,0 c 0.045,0.053 0.068,0.114 0.068,0.185 0,0.08 -0.022,0.145 -0.064,0.197 -0.042,0.052 -0.1,0.078 -0.174,0.078 -0.069,0 -0.123,-0.027 -0.16,-0.081 -0.036,-0.053 -0.055,-0.118 -0.055,-0.194 0,-0.072 0.019,-0.135 0.055,-0.186 0.037,-0.052 0.091,-0.077 0.16,-0.077 0.069,0 0.125,0.025 0.17,0.078 M 0.168,-0.066 C 0.168,-0.127 0.162,-0.178 0.134,-0.247 0.12,-0.282 0.103,-0.312 0.08,-0.336 c -0.045,-0.051 -0.133,-0.09 -0.242,-0.09 -0.123,0 -0.229,0.039 -0.317,0.118 l 0.069,0.078 c 0.073,-0.066 0.156,-0.098 0.248,-0.098 0.17,0.004 0.227,0.127 0.223,0.265 -0.056,-0.075 -0.133,-0.113 -0.229,-0.113 -0.093,0 -0.171,0.034 -0.232,0.102 -0.061,0.067 -0.092,0.154 -0.092,0.259 0,0.113 0.032,0.202 0.099,0.27 0.066,0.068 0.14,0.102 0.225,0.102 0.083,0 0.152,-0.027 0.207,-0.082 l 0.022,0.07 h 0.107 z" />
        </g>
        <g
           transform="translate(292.9162,244.4195)"
           id="g6127">
          <path
             id="path6129"
             style="fill:#ee2d21;fill-opacity:1;fill-rule:nonzero;stroke:none"
             d="m 0,0 h 0.107 v -0.468 c 0,-0.108 0.051,-0.162 0.154,-0.162 0.153,0 0.243,0.097 0.243,0.263 V 0 H 0.611 V -0.715 H 0.504 L 0.477,-0.627 C 0.421,-0.694 0.348,-0.727 0.26,-0.727 0.054,-0.727 0,-0.595 0,-0.471 Z" />
        </g>
        <g
           transform="translate(294.2275,244.0963)"
           id="g6131">
          <path
             id="path6133"
             style="fill:#ee2d21;fill-opacity:1;fill-rule:nonzero;stroke:none"
             d="m 0,0 c -0.023,-0.039 -0.078,-0.058 -0.165,-0.058 -0.081,0 -0.132,-0.016 -0.153,-0.047 -0.017,-0.031 -0.021,-0.049 -0.021,-0.083 0,-0.071 0.051,-0.123 0.131,-0.123 0.117,0.004 0.173,0.047 0.192,0.118 C 0,-0.141 0,-0.112 0,-0.057 Z M 0.124,-0.392 H 0.043 c -0.029,0 -0.044,0.02 -0.044,0.062 v 0.015 c -0.059,-0.059 -0.129,-0.089 -0.211,-0.089 -0.158,0 -0.25,0.088 -0.25,0.227 0,0.058 0.022,0.107 0.067,0.147 0.045,0.042 0.118,0.062 0.217,0.062 0.036,0 0.067,0.005 0.109,0.015 C -0.027,0.058 0,0.084 0,0.122 c 0,0.076 -0.068,0.116 -0.156,0.116 -0.077,0 -0.137,-0.03 -0.185,-0.089 l -0.078,0.073 c 0.004,0.005 0.008,0.013 0.039,0.039 0.015,0.014 0.033,0.026 0.05,0.035 0.038,0.021 0.102,0.039 0.17,0.039 0.18,0 0.264,-0.098 0.264,-0.262 v -0.414 c 0,-0.021 0.007,-0.032 0.02,-0.032 z" />
        </g>
        <g
           transform="translate(295.0465,243.8745)"
           id="g6135">
          <path
             id="path6137"
             style="fill:#ee2d21;fill-opacity:1;fill-rule:nonzero;stroke:none"
             d="m 0,0 c 0.045,0.053 0.068,0.114 0.068,0.185 0,0.08 -0.022,0.145 -0.064,0.197 -0.042,0.052 -0.1,0.078 -0.174,0.078 -0.069,0 -0.123,-0.027 -0.16,-0.081 -0.036,-0.053 -0.055,-0.118 -0.055,-0.194 0,-0.072 0.019,-0.135 0.055,-0.186 0.037,-0.052 0.091,-0.077 0.16,-0.077 0.069,0 0.126,0.025 0.17,0.078 M 0.168,-0.066 C 0.168,-0.127 0.162,-0.178 0.134,-0.247 0.12,-0.282 0.103,-0.312 0.08,-0.336 c -0.045,-0.051 -0.133,-0.09 -0.242,-0.09 -0.123,0 -0.229,0.039 -0.317,0.118 l 0.069,0.078 c 0.073,-0.066 0.156,-0.098 0.248,-0.098 0.17,0.004 0.227,0.127 0.223,0.265 -0.056,-0.075 -0.133,-0.113 -0.229,-0.113 -0.093,0 -0.171,0.034 -0.232,0.102 -0.061,0.067 -0.092,0.154 -0.092,0.259 0,0.113 0.032,0.202 0.099,0.27 0.066,0.068 0.14,0.102 0.225,0.102 0.083,0 0.152,-0.027 0.207,-0.082 l 0.022,0.07 h 0.107 z" />
        </g>
        <path
           id="path6139"
           style="fill:#ee2d21;fill-opacity:1;fill-rule:nonzero;stroke:none"
           d="m 295.492,244.664 h 0.107 v -0.96 h -0.107 z" />
        <path
           id="path6141"
           style="fill:#ee2d21;fill-opacity:1;fill-rule:nonzero;stroke:none"
           d="m 295.878,244.42 h 0.107 v -0.715 h -0.107 z m -0.003,0.244 h 0.112 v -0.147 h -0.112 z" />
        <g
           transform="translate(296.6818,244.0963)"
           id="g6143">
          <path
             id="path6145"
             style="fill:#ee2d21;fill-opacity:1;fill-rule:nonzero;stroke:none"
             d="m 0,0 c -0.023,-0.039 -0.078,-0.058 -0.165,-0.058 -0.081,0 -0.132,-0.016 -0.153,-0.047 -0.017,-0.031 -0.021,-0.049 -0.021,-0.083 0,-0.071 0.051,-0.123 0.131,-0.123 0.117,0.004 0.173,0.047 0.192,0.118 C 0,-0.141 0,-0.112 0,-0.057 Z M 0.124,-0.392 H 0.043 c -0.03,0 -0.044,0.02 -0.044,0.062 v 0.015 c -0.059,-0.059 -0.129,-0.089 -0.211,-0.089 -0.158,0 -0.25,0.088 -0.25,0.227 0,0.058 0.022,0.107 0.067,0.147 0.045,0.042 0.118,0.062 0.217,0.062 0.036,0 0.067,0.005 0.109,0.015 C -0.027,0.058 0,0.084 0,0.122 c 0,0.076 -0.068,0.116 -0.156,0.116 -0.077,0 -0.137,-0.03 -0.185,-0.089 l -0.078,0.073 c 0.004,0.005 0.008,0.013 0.039,0.039 0.015,0.014 0.033,0.026 0.05,0.035 0.038,0.021 0.102,0.039 0.17,0.039 0.18,0 0.264,-0.098 0.264,-0.262 v -0.414 c 0,-0.021 0.007,-0.032 0.02,-0.032 z" />
        </g>
        <g
           transform="translate(297.6642,243.7041)"
           id="g6147">
          <path
             id="path6149"
             style="fill:#ee2d21;fill-opacity:1;fill-rule:nonzero;stroke:none"
             d="m 0,0 h -0.107 v 0.468 c 0,0.108 -0.051,0.162 -0.154,0.162 -0.153,0 -0.243,-0.097 -0.243,-0.263 V 0 h -0.107 v 0.715 h 0.107 l 0.027,-0.087 c 0.056,0.066 0.13,0.1 0.217,0.1 0.107,0 0.18,-0.03 0.214,-0.083 C -0.012,0.592 0,0.541 0,0.471 Z" />
        </g>
        <g
           transform="translate(298.3762,243.8016)"
           id="g6151">
          <path
             id="path6153"
             style="fill:#ee2d21;fill-opacity:1;fill-rule:nonzero;stroke:none"
             d="M 0,0 V -0.097 H -0.51 V 0 l 0.373,0.521 h -0.348 v 0.097 h 0.477 V 0.522 L -0.383,0 Z" />
        </g>
        <g
           transform="translate(299.0191,244.0963)"
           id="g6155">
          <path
             id="path6157"
             style="fill:#ee2d21;fill-opacity:1;fill-rule:nonzero;stroke:none"
             d="m 0,0 c -0.023,-0.039 -0.078,-0.058 -0.165,-0.058 -0.081,0 -0.132,-0.016 -0.153,-0.047 -0.017,-0.031 -0.021,-0.049 -0.021,-0.083 0,-0.071 0.051,-0.123 0.131,-0.123 0.117,0.004 0.173,0.047 0.192,0.118 C 0,-0.141 0,-0.112 0,-0.057 Z M 0.124,-0.392 H 0.043 c -0.03,0 -0.044,0.02 -0.044,0.062 v 0.015 c -0.059,-0.059 -0.129,-0.089 -0.211,-0.089 -0.158,0 -0.25,0.088 -0.25,0.227 0,0.058 0.022,0.107 0.067,0.147 0.045,0.042 0.118,0.062 0.217,0.062 0.036,0 0.067,0.005 0.109,0.015 C -0.027,0.058 0,0.084 0,0.122 c 0,0.076 -0.068,0.116 -0.156,0.116 -0.077,0 -0.137,-0.03 -0.185,-0.089 l -0.078,0.073 c 0.004,0.005 0.008,0.013 0.039,0.039 0.015,0.014 0.033,0.026 0.05,0.035 0.038,0.021 0.102,0.039 0.17,0.039 0.18,0 0.264,-0.098 0.264,-0.262 v -0.414 c 0,-0.021 0.007,-0.032 0.02,-0.032 z" />
        </g>
        <path
           id="path6159"
           style="fill:#ee2d21;fill-opacity:1;fill-rule:nonzero;stroke:none"
           d="m 299.759,244.677 h 0.1 v -1.216 h -0.1 z" />
        <g
           transform="translate(301.1367,243.9693)"
           id="g6161">
          <path
             id="path6163"
             style="fill:#ee2d21;fill-opacity:1;fill-rule:nonzero;stroke:none"
             d="m 0,0 0.096,-0.054 c -0.069,-0.149 -0.191,-0.223 -0.368,-0.223 -0.124,0 -0.228,0.046 -0.312,0.138 -0.083,0.093 -0.125,0.211 -0.125,0.354 0,0.14 0.042,0.258 0.125,0.352 0.084,0.093 0.188,0.14 0.312,0.14 0.177,0 0.303,-0.084 0.368,-0.224 L 0,0.427 c -0.053,0.119 -0.143,0.179 -0.272,0.179 -0.092,0 -0.169,-0.038 -0.231,-0.112 -0.061,-0.075 -0.092,-0.167 -0.092,-0.279 0,-0.114 0.031,-0.207 0.092,-0.281 0.061,-0.073 0.138,-0.11 0.231,-0.11 0.131,0 0.222,0.058 0.272,0.176" />
        </g>
        <g
           transform="translate(301.4522,244.4195)"
           id="g6165">
          <path
             id="path6167"
             style="fill:#ee2d21;fill-opacity:1;fill-rule:nonzero;stroke:none"
             d="m 0,0 h 0.107 v -0.468 c 0,-0.108 0.051,-0.162 0.154,-0.162 0.153,0 0.243,0.097 0.243,0.263 V 0 H 0.611 V -0.715 H 0.504 L 0.477,-0.627 C 0.421,-0.694 0.348,-0.727 0.26,-0.727 0.054,-0.727 0,-0.595 0,-0.471 Z" />
        </g>
        <path
           id="path6169"
           style="fill:#ee2d21;fill-opacity:1;fill-rule:nonzero;stroke:none"
           d="m 302.344,244.664 h 0.107 v -0.96 h -0.107 z" />
        <g
           transform="translate(303.0172,243.7989)"
           id="g6171">
          <path
             id="path6173"
             style="fill:#ee2d21;fill-opacity:1;fill-rule:nonzero;stroke:none"
             d="m 0,0 0.008,0.003 v -0.098 c -0.02,-0.008 -0.057,-0.012 -0.112,-0.012 -0.055,0 -0.097,0.015 -0.127,0.044 -0.029,0.028 -0.043,0.082 -0.043,0.162 V 0.523 H -0.4 v 0.098 h 0.126 v 0.244 h 0.106 V 0.621 H 0.008 V 0.523 H -0.168 V 0.097 c 0,-0.028 0.002,-0.04 0.011,-0.067 0.01,-0.026 0.037,-0.039 0.079,-0.039 0.038,0 0.069,0.005 0.078,0.009" />
        </g>
        <g
           transform="translate(303.2263,244.4195)"
           id="g6175">
          <path
             id="path6177"
             style="fill:#ee2d21;fill-opacity:1;fill-rule:nonzero;stroke:none"
             d="m 0,0 h 0.107 v -0.468 c 0,-0.108 0.051,-0.162 0.154,-0.162 0.153,0 0.243,0.097 0.243,0.263 V 0 H 0.611 V -0.715 H 0.504 L 0.477,-0.627 C 0.421,-0.694 0.347,-0.727 0.26,-0.727 0.054,-0.727 0,-0.595 0,-0.471 Z" />
        </g>
        <g
           transform="translate(304.5182,244.3222)"
           id="g6179">
          <path
             id="path6181"
             style="fill:#ee2d21;fill-opacity:1;fill-rule:nonzero;stroke:none"
             d="m 0,0 c -0.012,0.008 -0.028,0.012 -0.046,0.012 -0.165,0 -0.247,-0.094 -0.247,-0.284 V -0.618 H -0.4 v 0.715 h 0.107 L -0.27,0.019 C -0.224,0.08 -0.154,0.11 -0.061,0.11 -0.035,0.11 -0.015,0.106 0,0.097 Z" />
        </g>
        <g
           transform="translate(305.1356,244.0963)"
           id="g6183">
          <path
             id="path6185"
             style="fill:#ee2d21;fill-opacity:1;fill-rule:nonzero;stroke:none"
             d="m 0,0 c -0.023,-0.039 -0.078,-0.058 -0.165,-0.058 -0.081,0 -0.132,-0.016 -0.153,-0.047 -0.017,-0.031 -0.021,-0.049 -0.021,-0.083 0,-0.071 0.051,-0.123 0.131,-0.123 0.117,0.004 0.173,0.047 0.192,0.118 C 0,-0.141 0,-0.112 0,-0.057 Z M 0.124,-0.392 H 0.043 c -0.03,0 -0.044,0.02 -0.044,0.062 v 0.015 c -0.059,-0.059 -0.129,-0.089 -0.211,-0.089 -0.158,0 -0.25,0.088 -0.25,0.227 0,0.058 0.023,0.107 0.067,0.147 0.045,0.042 0.118,0.062 0.217,0.062 0.036,0 0.067,0.005 0.109,0.015 C -0.027,0.058 0,0.084 0,0.122 c 0,0.076 -0.068,0.116 -0.156,0.116 -0.077,0 -0.137,-0.03 -0.185,-0.089 l -0.078,0.073 c 0.004,0.005 0.008,0.013 0.039,0.039 0.015,0.014 0.033,0.026 0.05,0.035 0.038,0.021 0.102,0.039 0.17,0.039 0.18,0 0.264,-0.098 0.264,-0.262 v -0.414 c 0,-0.021 0.007,-0.032 0.02,-0.032 z" />
        </g>
        <g
           transform="translate(291.7783,242.0681)"
           id="g6187">
          <path
             id="path6189"
             style="fill:#ee2d21;fill-opacity:1;fill-rule:nonzero;stroke:none"
             d="m 0,0 c -0.023,-0.039 -0.078,-0.058 -0.165,-0.058 -0.081,0 -0.132,-0.016 -0.153,-0.048 -0.017,-0.031 -0.021,-0.048 -0.021,-0.082 0,-0.072 0.051,-0.123 0.131,-0.123 0.117,0.004 0.173,0.047 0.192,0.118 C 0,-0.141 0,-0.112 0,-0.057 Z M 0.124,-0.392 H 0.043 c -0.029,0 -0.044,0.02 -0.044,0.062 v 0.015 c -0.059,-0.06 -0.129,-0.089 -0.211,-0.089 -0.158,0 -0.25,0.088 -0.25,0.227 0,0.058 0.023,0.107 0.067,0.147 0.045,0.042 0.118,0.062 0.217,0.062 0.036,0 0.067,0.004 0.109,0.015 C -0.027,0.058 0,0.084 0,0.122 c 0,0.076 -0.068,0.116 -0.155,0.116 -0.078,0 -0.138,-0.03 -0.186,-0.089 l -0.078,0.073 c 0.004,0.005 0.008,0.013 0.039,0.039 0.015,0.014 0.033,0.025 0.05,0.035 0.038,0.02 0.101,0.039 0.17,0.039 0.18,0 0.264,-0.099 0.264,-0.262 v -0.414 c 0,-0.021 0.007,-0.032 0.02,-0.032 z" />
        </g>
        <path
           id="path6191"
           style="fill:#ee2d21;fill-opacity:1;fill-rule:nonzero;stroke:none"
           d="m 292.149,242.636 h 0.107 v -0.96 h -0.107 z" />
        <g
           transform="translate(293.4497,241.8368)"
           id="g6193">
          <path
             id="path6195"
             style="fill:#ee2d21;fill-opacity:1;fill-rule:nonzero;stroke:none"
             d="m 0,0 c 0.045,0.051 0.066,0.118 0.066,0.199 0,0.07 -0.023,0.132 -0.069,0.188 -0.044,0.055 -0.101,0.082 -0.17,0.082 -0.069,0 -0.126,-0.027 -0.17,-0.081 -0.045,-0.054 -0.068,-0.118 -0.068,-0.189 0,-0.072 0.023,-0.137 0.068,-0.192 0.044,-0.056 0.101,-0.083 0.17,-0.083 0.072,0 0.128,0.026 0.173,0.076 m 0.06,0.454 v 0.345 h 0.106 v -0.96 H 0.06 l -0.023,0.072 c -0.056,-0.056 -0.125,-0.084 -0.207,-0.084 -0.099,0 -0.183,0.037 -0.249,0.11 -0.066,0.073 -0.099,0.16 -0.099,0.262 0,0.105 0.033,0.193 0.097,0.262 0.067,0.071 0.149,0.106 0.251,0.106 0.098,0 0.174,-0.038 0.23,-0.113" />
        </g>
        <path
           id="path6197"
           style="fill:#ee2d21;fill-opacity:1;fill-rule:nonzero;stroke:none"
           d="m 293.897,242.391 h 0.107 v -0.715 h -0.107 z m -0.003,0.245 h 0.112 v -0.148 h -0.112 z" />
        <path
           id="path6199"
           style="fill:#ee2d21;fill-opacity:1;fill-rule:nonzero;stroke:none"
           d="m 294.723,242.636 h 0.107 v -0.96 h -0.107 z" />
        <g
           transform="translate(295.5287,242.0681)"
           id="g6201">
          <path
             id="path6203"
             style="fill:#ee2d21;fill-opacity:1;fill-rule:nonzero;stroke:none"
             d="m 0,0 c -0.023,-0.039 -0.078,-0.058 -0.165,-0.058 -0.081,0 -0.132,-0.016 -0.153,-0.048 -0.017,-0.031 -0.021,-0.048 -0.021,-0.082 0,-0.072 0.051,-0.123 0.131,-0.123 0.117,0.004 0.173,0.047 0.192,0.118 C 0,-0.141 0,-0.112 0,-0.057 Z m -0.108,0.431 h -0.093 l -0.141,0.202 h 0.124 z M 0.124,-0.392 H 0.043 c -0.03,0 -0.044,0.02 -0.044,0.062 v 0.015 c -0.059,-0.06 -0.129,-0.089 -0.211,-0.089 -0.158,0 -0.25,0.088 -0.25,0.227 0,0.058 0.022,0.107 0.067,0.147 0.045,0.042 0.118,0.062 0.217,0.062 0.036,0 0.067,0.004 0.109,0.015 C -0.027,0.058 0,0.084 0,0.122 c 0,0.076 -0.068,0.116 -0.156,0.116 -0.077,0 -0.137,-0.03 -0.185,-0.089 l -0.078,0.073 c 0.004,0.005 0.008,0.013 0.039,0.039 0.015,0.014 0.033,0.025 0.05,0.035 0.038,0.02 0.102,0.039 0.17,0.039 0.18,0 0.264,-0.099 0.264,-0.262 v -0.414 c 0,-0.021 0.007,-0.032 0.02,-0.032 z" />
        </g>
        <g
           transform="translate(296.8065,241.8368)"
           id="g6205">
          <path
             id="path6207"
             style="fill:#ee2d21;fill-opacity:1;fill-rule:nonzero;stroke:none"
             d="m 0,0 c 0.045,0.051 0.066,0.118 0.066,0.199 0,0.07 -0.023,0.132 -0.069,0.188 -0.044,0.055 -0.101,0.082 -0.17,0.082 -0.069,0 -0.126,-0.027 -0.17,-0.081 -0.045,-0.054 -0.068,-0.118 -0.068,-0.189 0,-0.072 0.023,-0.137 0.068,-0.192 0.044,-0.056 0.101,-0.083 0.17,-0.083 0.072,0 0.128,0.026 0.173,0.076 m 0.06,0.454 v 0.345 h 0.106 v -0.96 H 0.06 l -0.024,0.072 c -0.055,-0.056 -0.124,-0.084 -0.206,-0.084 -0.099,0 -0.183,0.037 -0.249,0.11 -0.066,0.073 -0.099,0.16 -0.099,0.262 0,0.105 0.033,0.193 0.097,0.262 0.067,0.071 0.149,0.106 0.251,0.106 0.098,0 0.174,-0.038 0.23,-0.113" />
        </g>
        <g
           transform="translate(297.3264,242.1019)"
           id="g6209">
          <path
             id="path6211"
             style="fill:#ee2d21;fill-opacity:1;fill-rule:nonzero;stroke:none"
             d="M 0,0 H 0.459 C 0.45,0.065 0.408,0.204 0.226,0.204 0.108,0.204 0.022,0.136 0,0 m 0.565,-0.097 h -0.57 c 0.006,-0.145 0.098,-0.244 0.239,-0.244 0.084,0 0.154,0.034 0.21,0.103 L 0.527,-0.287 C 0.459,-0.388 0.36,-0.438 0.234,-0.438 c -0.069,0 -0.139,0.02 -0.216,0.069 -0.076,0.05 -0.13,0.155 -0.13,0.296 0,0.104 0.028,0.193 0.086,0.265 0.059,0.073 0.142,0.109 0.252,0.109 0.237,0 0.339,-0.183 0.339,-0.358 z" />
        </g>
        <path
           id="path6213"
           style="fill:#ee2d21;fill-opacity:1;fill-rule:nonzero;stroke:none"
           d="m 298.132,242.636 h 0.107 v -0.96 h -0.107 z" />
        <path
           id="path6215"
           style="fill:#ee2d21;fill-opacity:1;fill-rule:nonzero;stroke:none"
           d="m 298.516,242.636 h 0.107 v -0.96 h -0.107 z" />
        <g
           transform="translate(299.3221,242.0681)"
           id="g6217">
          <path
             id="path6219"
             style="fill:#ee2d21;fill-opacity:1;fill-rule:nonzero;stroke:none"
             d="m 0,0 c -0.023,-0.039 -0.078,-0.058 -0.165,-0.058 -0.081,0 -0.132,-0.016 -0.153,-0.048 -0.017,-0.031 -0.021,-0.048 -0.021,-0.082 0,-0.072 0.051,-0.123 0.131,-0.123 0.118,0.004 0.173,0.047 0.192,0.118 C 0,-0.141 0,-0.112 0,-0.057 Z M 0.124,-0.392 H 0.043 c -0.03,0 -0.044,0.02 -0.044,0.062 v 0.015 c -0.059,-0.06 -0.129,-0.089 -0.211,-0.089 -0.159,0 -0.25,0.088 -0.25,0.227 0,0.058 0.022,0.107 0.067,0.147 0.045,0.042 0.118,0.062 0.217,0.062 0.036,0 0.067,0.004 0.109,0.015 C -0.027,0.058 0,0.084 0,0.122 c 0,0.076 -0.068,0.116 -0.156,0.116 -0.077,0 -0.137,-0.03 -0.185,-0.089 l -0.078,0.073 c 0.004,0.005 0.008,0.013 0.039,0.039 0.015,0.014 0.032,0.025 0.05,0.035 0.038,0.02 0.102,0.039 0.17,0.039 0.18,0 0.264,-0.099 0.264,-0.262 v -0.414 c 0,-0.021 0.007,-0.032 0.02,-0.032 z" />
        </g>
        <g
           transform="translate(300.7337,241.6761)"
           id="g6221">
          <path
             id="path6223"
             style="fill:#ee2d21;fill-opacity:1;fill-rule:nonzero;stroke:none"
             d="m 0,0 h -0.107 v 0.468 c 0,0.108 -0.051,0.162 -0.154,0.162 -0.153,0 -0.243,-0.097 -0.243,-0.264 V 0 h -0.107 v 0.715 h 0.107 l 0.027,-0.088 c 0.057,0.067 0.13,0.1 0.217,0.1 0.107,0 0.18,-0.03 0.214,-0.082 C -0.012,0.592 0,0.541 0,0.47 Z" />
        </g>
        <g
           transform="translate(301.4255,242.0681)"
           id="g6225">
          <path
             id="path6227"
             style="fill:#ee2d21;fill-opacity:1;fill-rule:nonzero;stroke:none"
             d="m 0,0 c -0.023,-0.039 -0.078,-0.058 -0.165,-0.058 -0.081,0 -0.132,-0.016 -0.153,-0.048 -0.017,-0.031 -0.021,-0.048 -0.021,-0.082 0,-0.072 0.051,-0.123 0.131,-0.123 0.118,0.004 0.173,0.047 0.192,0.118 C 0,-0.141 0,-0.112 0,-0.057 Z M 0.124,-0.392 H 0.043 c -0.03,0 -0.044,0.02 -0.044,0.062 v 0.015 c -0.058,-0.06 -0.129,-0.089 -0.211,-0.089 -0.158,0 -0.25,0.088 -0.25,0.227 0,0.058 0.023,0.107 0.067,0.147 0.045,0.042 0.118,0.062 0.217,0.062 0.036,0 0.067,0.004 0.109,0.015 C -0.027,0.058 0,0.084 0,0.122 c 0,0.076 -0.067,0.116 -0.156,0.116 -0.077,0 -0.137,-0.03 -0.185,-0.089 l -0.078,0.073 c 0.004,0.005 0.008,0.013 0.039,0.039 0.015,0.014 0.033,0.025 0.05,0.035 0.038,0.02 0.102,0.039 0.171,0.039 0.179,0 0.263,-0.099 0.263,-0.262 v -0.414 c 0,-0.021 0.007,-0.032 0.02,-0.032 z" />
        </g>
        <g
           transform="translate(302.2447,241.7734)"
           id="g6229">
          <path
             id="path6231"
             style="fill:#ee2d21;fill-opacity:1;fill-rule:nonzero;stroke:none"
             d="M 0,0 V -0.097 H -0.51 V 0 l 0.373,0.521 h -0.348 v 0.097 h 0.477 V 0.522 L -0.383,0 Z" />
        </g>
        <path
           id="path6233"
           style="fill:#ee2d21;fill-opacity:1;fill-rule:nonzero;stroke:none"
           d="m 302.455,242.391 h 0.107 v -0.715 h -0.107 z m -0.003,0.245 h 0.112 v -0.148 h -0.112 z" />
        <g
           transform="translate(303.1471,241.7611)"
           id="g6235">
          <path
             id="path6237"
             style="fill:#ee2d21;fill-opacity:1;fill-rule:nonzero;stroke:none"
             d="M 0,0 C 0.069,0 0.127,0.027 0.172,0.081 0.218,0.135 0.241,0.199 0.241,0.272 0.241,0.345 0.218,0.408 0.172,0.463 0.127,0.518 0.069,0.545 0,0.545 -0.069,0.545 -0.127,0.518 -0.173,0.463 -0.217,0.408 -0.241,0.345 -0.241,0.272 -0.241,0.199 -0.217,0.135 -0.173,0.081 -0.127,0.027 -0.069,0 0,0 M 0.247,0.01 C 0.181,-0.062 0.099,-0.097 0,-0.097 c -0.099,0 -0.182,0.035 -0.249,0.107 -0.066,0.071 -0.098,0.158 -0.098,0.262 0,0.104 0.032,0.192 0.098,0.263 0.067,0.072 0.15,0.107 0.249,0.107 0.099,0 0.181,-0.035 0.247,-0.107 C 0.314,0.464 0.348,0.376 0.348,0.272 0.348,0.168 0.314,0.081 0.247,0.01" />
        </g>
        <g
           transform="translate(304.345,241.6761)"
           id="g6239">
          <path
             id="path6241"
             style="fill:#ee2d21;fill-opacity:1;fill-rule:nonzero;stroke:none"
             d="m 0,0 h -0.107 v 0.468 c 0,0.108 -0.051,0.162 -0.154,0.162 -0.153,0 -0.243,-0.097 -0.243,-0.264 V 0 h -0.107 v 0.715 h 0.107 l 0.027,-0.088 c 0.056,0.067 0.13,0.1 0.217,0.1 0.107,0 0.18,-0.03 0.214,-0.082 C -0.012,0.592 0,0.541 0,0.47 Z" />
        </g>
        <g
           transform="translate(304.6921,242.1019)"
           id="g6243">
          <path
             id="path6245"
             style="fill:#ee2d21;fill-opacity:1;fill-rule:nonzero;stroke:none"
             d="M 0,0 H 0.459 C 0.45,0.065 0.408,0.204 0.226,0.204 0.108,0.204 0.022,0.136 0,0 m 0.565,-0.097 h -0.57 c 0.007,-0.145 0.098,-0.244 0.239,-0.244 0.084,0 0.154,0.034 0.21,0.103 L 0.527,-0.287 C 0.459,-0.388 0.36,-0.438 0.234,-0.438 c -0.069,0 -0.139,0.02 -0.216,0.069 -0.076,0.05 -0.13,0.155 -0.13,0.296 0,0.104 0.028,0.193 0.086,0.265 0.058,0.073 0.142,0.109 0.252,0.109 0.237,0 0.339,-0.183 0.339,-0.358 z" />
        </g>
        <g
           transform="translate(287.132,250.0197)"
           id="g6247">
          <path
             id="path6249"
             style="fill:#ee2d21;fill-opacity:1;fill-rule:nonzero;stroke:none"
             d="M 0,0 H 0.448 L 0.225,0.588 Z M 0.713,-0.696 0.568,-0.313 H -0.12 l -0.145,-0.383 h -0.384 l 0.683,1.739 h 0.38 l 0.683,-1.739 z" />
        </g>
        <g
           transform="translate(288.8824,249.6375)"
           id="g6251">
          <path
             id="path6253"
             style="fill:#ee2d21;fill-opacity:1;fill-rule:nonzero;stroke:none"
             d="M 0,0 H 0.811 V -0.313 H -0.353 V 1.425 H 0 Z" />
        </g>
        <g
           transform="translate(291.0498,251.0628)"
           id="g6255">
          <path
             id="path6257"
             style="fill:#ee2d21;fill-opacity:1;fill-rule:nonzero;stroke:none"
             d="m 0,0 v -0.313 h -0.539 v -1.426 h -0.352 v 1.426 H -1.43 V 0 Z" />
        </g>
        <g
           transform="translate(291.6621,249.6375)"
           id="g6259">
          <path
             id="path6261"
             style="fill:#ee2d21;fill-opacity:1;fill-rule:nonzero;stroke:none"
             d="M 0,0 H 0.865 V -0.313 H -0.353 V 1.425 H 0.852 V 1.112 H 0 V 0.749 H 0.688 V 0.436 H 0 Z" />
        </g>
        <g
           transform="translate(293.2786,250.2498)"
           id="g6263">
          <path
             id="path6265"
             style="fill:#ee2d21;fill-opacity:1;fill-rule:nonzero;stroke:none"
             d="m 0,0 h 0.456 c 0.188,0 0.288,0.061 0.288,0.25 0,0.188 -0.1,0.25 -0.288,0.25 H 0 Z M 0.725,-0.284 1.193,-0.926 H 0.759 L 0.311,-0.313 H 0 v -0.613 h -0.353 v 1.739 h 0.799 c 0.188,0 0.323,-0.027 0.45,-0.105 0.13,-0.078 0.201,-0.233 0.201,-0.458 0,-0.292 -0.125,-0.468 -0.372,-0.534" />
        </g>
        <g
           transform="translate(295.8195,251.0628)"
           id="g6267">
          <path
             id="path6269"
             style="fill:#ee2d21;fill-opacity:1;fill-rule:nonzero;stroke:none"
             d="M 0,0 H 0.353 V -1.739 H 0 l -0.661,1.122 V -1.739 H -1.014 V 0 h 0.353 L 0,-1.122 Z" />
        </g>
        <g
           transform="translate(297.1217,250.0197)"
           id="g6271">
          <path
             id="path6273"
             style="fill:#ee2d21;fill-opacity:1;fill-rule:nonzero;stroke:none"
             d="M 0,0 H 0.448 L 0.225,0.588 Z M 0.713,-0.696 0.568,-0.313 H -0.12 l -0.144,-0.383 h -0.385 l 0.683,1.739 h 0.38 l 0.683,-1.739 z" />
        </g>
        <g
           transform="translate(299.6033,251.0628)"
           id="g6275">
          <path
             id="path6277"
             style="fill:#ee2d21;fill-opacity:1;fill-rule:nonzero;stroke:none"
             d="m 0,0 v -0.313 h -0.539 v -1.426 h -0.352 v 1.426 H -1.43 V 0 Z" />
        </g>
        <path
           id="path6279"
           style="fill:#ee2d21;fill-opacity:1;fill-rule:nonzero;stroke:none"
           d="m 300.265,249.324 h -0.352 v 1.739 h 0.352 z" />
        <g
           transform="translate(301.5415,249.3241)"
           id="g6281">
          <path
             id="path6283"
             style="fill:#ee2d21;fill-opacity:1;fill-rule:nonzero;stroke:none"
             d="m 0,0 h -0.38 l -0.602,1.739 h 0.384 L -0.191,0.456 0.215,1.739 H 0.6 Z" />
        </g>
        <g
           transform="translate(302.7909,249.6375)"
           id="g6285">
          <path
             id="path6287"
             style="fill:#ee2d21;fill-opacity:1;fill-rule:nonzero;stroke:none"
             d="M 0,0 H 0.864 V -0.313 H -0.353 V 1.425 H 0.852 V 1.112 H 0 V 0.749 H 0.688 V 0.436 H 0 Z" />
        </g>
        <g
           transform="translate(287.0095,246.6727)"
           id="g6289">
          <path
             id="path6291"
             style="fill:#ee2d21;fill-opacity:1;fill-rule:nonzero;stroke:none"
             d="M 0,0 H 0.865 V -0.313 H -0.353 V 1.425 H 0.852 V 1.112 H 0 V 0.749 H 0.688 V 0.436 H 0 Z" />
        </g>
        <g
           transform="translate(289.6738,248.098)"
           id="g6293">
          <path
             id="path6295"
             style="fill:#ee2d21;fill-opacity:1;fill-rule:nonzero;stroke:none"
             d="m 0,0 v -0.896 c 0,-0.228 -0.017,-0.387 -0.083,-0.537 -0.096,-0.213 -0.287,-0.328 -0.654,-0.328 -0.282,0 -0.468,0.076 -0.573,0.233 -0.101,0.157 -0.137,0.345 -0.137,0.632 V 0 h 0.352 v -0.896 c 0,-0.159 0.003,-0.243 0.03,-0.343 0.044,-0.145 0.13,-0.198 0.328,-0.208 0.144,0 0.242,0.044 0.294,0.095 0.027,0.027 0.049,0.069 0.061,0.123 0.027,0.107 0.029,0.176 0.029,0.333 V 0 Z" />
        </g>
        <g
           transform="translate(290.4917,247.285)"
           id="g6297">
          <path
             id="path6299"
             style="fill:#ee2d21;fill-opacity:1;fill-rule:nonzero;stroke:none"
             d="m 0,0 h 0.456 c 0.188,0 0.288,0.061 0.288,0.25 0,0.188 -0.1,0.25 -0.288,0.25 H 0 Z M 0.725,-0.284 1.193,-0.926 H 0.759 L 0.311,-0.313 H 0 v -0.613 h -0.353 v 1.739 h 0.799 c 0.188,0 0.323,-0.027 0.45,-0.105 0.13,-0.078 0.201,-0.233 0.201,-0.458 0,-0.292 -0.125,-0.468 -0.372,-0.534" />
        </g>
        <g
           transform="translate(293.2702,247.2286)"
           id="g6301">
          <path
             id="path6303"
             style="fill:#ee2d21;fill-opacity:1;fill-rule:nonzero;stroke:none"
             d="m 0,0 c 0,0.164 -0.047,0.301 -0.14,0.411 -0.093,0.111 -0.213,0.167 -0.362,0.167 -0.149,0 -0.269,-0.056 -0.362,-0.167 -0.093,-0.11 -0.14,-0.247 -0.14,-0.411 0,-0.164 0.047,-0.301 0.14,-0.411 0.093,-0.111 0.213,-0.167 0.362,-0.167 0.149,0 0.269,0.056 0.362,0.167 C -0.047,-0.301 0,-0.164 0,0 m 0.353,0 c 0,-0.25 -0.081,-0.46 -0.243,-0.634 -0.161,-0.172 -0.365,-0.257 -0.612,-0.257 -0.247,0 -0.451,0.085 -0.612,0.257 -0.162,0.174 -0.243,0.384 -0.243,0.634 0,0.25 0.081,0.46 0.243,0.632 0.161,0.174 0.365,0.259 0.612,0.259 0.247,0 0.451,-0.085 0.612,-0.259 C 0.272,0.46 0.353,0.25 0.353,0" />
        </g>
        <g
           transform="translate(294.3792,247.285)"
           id="g6305">
          <path
             id="path6307"
             style="fill:#ee2d21;fill-opacity:1;fill-rule:nonzero;stroke:none"
             d="m 0,0 h 0.456 c 0.188,0 0.288,0.061 0.288,0.25 0,0.188 -0.1,0.25 -0.288,0.25 H 0 Z m 0,-0.313 v -0.613 h -0.353 v 1.739 h 0.799 c 0.188,0 0.323,-0.027 0.45,-0.105 C 1.026,0.63 1.097,0.475 1.097,0.25 1.097,0.025 1.026,-0.13 0.896,-0.208 0.769,-0.287 0.634,-0.313 0.446,-0.313 Z" />
        </g>
        <g
           transform="translate(296.1609,246.6727)"
           id="g6309">
          <path
             id="path6311"
             style="fill:#ee2d21;fill-opacity:1;fill-rule:nonzero;stroke:none"
             d="M 0,0 H 0.865 V -0.313 H -0.352 V 1.425 H 0.852 V 1.112 H 0 V 0.749 H 0.688 V 0.436 H 0 Z" />
        </g>
        <g
           transform="translate(297.7786,246.6727)"
           id="g6313">
          <path
             id="path6315"
             style="fill:#ee2d21;fill-opacity:1;fill-rule:nonzero;stroke:none"
             d="M 0,0 H 0.864 V -0.313 H -0.353 V 1.425 H 0.852 V 1.112 H 0 V 0.749 H 0.688 V 0.436 H 0 Z" />
        </g>
        <g
           transform="translate(288.0121,265.3188)"
           id="g6317">
          <path
             id="path6319"
             style="fill:#ee2d21;fill-opacity:1;fill-rule:nonzero;stroke:none"
             d="m 0,0 c 0,0 -0.209,0.058 -0.266,-0.151 l -3.17,-11.43 c 0,0 -0.058,-0.208 0.151,-0.266 l 1.406,-0.39 c 0,0 0.209,-0.058 0.266,0.151 l 3.17,11.429 c 0,0 0.058,0.209 -0.15,0.267 z" />
        </g>
        <g
           transform="translate(297.3929,263.7229)"
           id="g6321">
          <path
             id="path6323"
             style="fill:#ee2d21;fill-opacity:1;fill-rule:nonzero;stroke:none"
             d="m 0,0 c 0,0 0.1,0.192 -0.092,0.292 l -8.995,4.683 c 0,0 -0.192,0.1 -0.292,-0.092 L -9.835,4.008 c 0,0 -0.1,-0.192 0.092,-0.292 l 8.996,-4.683 c 0,0 0.192,-0.1 0.291,0.092 z" />
        </g>
        <g
           transform="translate(297.9097,260.4958)"
           id="g6325">
          <path
             id="path6327"
             style="fill:#ee2d21;fill-opacity:1;fill-rule:nonzero;stroke:none"
             d="m 0,0 c 0,0 -0.107,0.188 -0.295,0.082 l -8.386,-4.745 c 0,0 -0.189,-0.107 -0.082,-0.295 l 0.426,-0.754 c 0,0 0.106,-0.188 0.295,-0.081 l 8.387,4.744 c 0,0 0.188,0.107 0.081,0.295 z" />
        </g>
      </g>
    </g>
  </g>
</svg>
