<?xml version="1.0" encoding="UTF-8" standalone="no"?>
<svg
   xmlns:dc="http://purl.org/dc/elements/1.1/"
   xmlns:cc="http://creativecommons.org/ns#"
   xmlns:rdf="http://www.w3.org/1999/02/22-rdf-syntax-ns#"
   xmlns:svg="http://www.w3.org/2000/svg"
   xmlns="http://www.w3.org/2000/svg"
   id="svg11028"
   version="1.1"
   viewBox="0 0 19.428459 4.0412107"
   height="4.0412107mm"
   width="19.428459mm">
  <defs
     id="defs11022">
    <clipPath
       id="clipPath6391"
       clipPathUnits="userSpaceOnUse">
      <path
         id="path6389"
         d="m 209.383,245.207 h 55.073 v 21.899 h -55.073 z" />
    </clipPath>
  </defs>
  <metadata
     id="metadata11025">
    <rdf:RDF>
      <cc:Work
         rdf:about="">
        <dc:format>image/svg+xml</dc:format>
        <dc:type
           rdf:resource="http://purl.org/dc/dcmitype/StillImage" />
        <dc:title></dc:title>
      </cc:Work>
    </rdf:RDF>
  </metadata>
  <g
     transform="translate(149.56542,-166.46749)"
     id="layer1">
    <g
       id="g6385"
       transform="matrix(0.35277777,0,0,-0.35277777,-223.43116,258.19684)">
      <g
         clip-path="url(#clipPath6391)"
         id="g6387">
        <g
           transform="translate(256.9322,255.8162)"
           id="g6393">
          <path
             id="path6395"
             style="fill:#e72c37;fill-opacity:1;fill-rule:nonzero;stroke:none"
             d="M 0,0 C 0,0.579 0.413,0.909 0.827,0.909 1.323,0.909 1.695,0.579 1.695,0 1.695,-0.579 1.323,-0.909 0.827,-0.909 0.413,-0.909 0,-0.579 0,0 m -1.075,0 c 0,-1.158 0.744,-1.86 1.571,-1.86 0.496,0 0.909,0.124 1.182,0.454 h 0.017 v -0.33 H 2.728 V 4.203 H 1.695 V 1.406 H 1.678 C 1.405,1.736 0.992,1.86 0.496,1.86 -0.331,1.86 -1.075,1.158 -1.075,0 m -1.24,-0.579 H -3.39 v -1.158 h 1.075 z m -4.961,0.91 c 0.083,0.33 0.331,0.661 0.827,0.661 0.496,0 0.744,-0.331 0.827,-0.661 z M -8.351,0 c 0,-1.075 0.745,-1.86 1.902,-1.86 0.827,0 1.323,0.206 1.745,0.793 l -0.778,0.406 c -0.306,-0.331 -0.554,-0.414 -0.967,-0.414 -0.413,0 -0.744,0.331 -0.827,0.744 h 2.687 v 0.414 c 0,0.95 -0.777,1.777 -1.86,1.777 -1.157,0 -1.902,-0.785 -1.902,-1.86 m -2.108,0 c 0,-0.579 -0.372,-0.909 -0.868,-0.909 -0.413,0 -0.827,0.33 -0.827,0.909 0,0.579 0.414,0.909 0.827,0.909 0.496,0 0.868,-0.33 0.868,-0.909 m 0,-1.406 v -0.165 c 0,-0.579 -0.289,-0.951 -0.868,-0.951 -0.579,0 -0.992,0.207 -1.323,0.455 l -0.496,-0.827 c 0.579,-0.413 1.149,-0.579 1.819,-0.579 1.323,0 1.902,0.579 1.902,1.902 v 3.307 h -1.034 v -0.33 h -0.016 c -0.273,0.33 -0.687,0.454 -1.183,0.454 -0.827,0 -1.571,-0.702 -1.571,-1.86 0,-1.158 0.744,-1.86 1.571,-1.86 0.496,0 0.91,0.124 1.183,0.454 z m -6.408,1.737 c 0.083,0.33 0.331,0.661 0.827,0.661 0.496,0 0.744,-0.331 0.827,-0.661 z M -17.941,0 c 0,-1.075 0.744,-1.86 1.901,-1.86 0.827,0 1.323,0.206 1.745,0.793 l -0.778,0.406 c -0.305,-0.331 -0.553,-0.414 -0.967,-0.414 -0.413,0 -0.744,0.331 -0.827,0.744 h 2.687 v 0.414 c 0,0.95 -0.777,1.777 -1.86,1.777 -1.157,0 -1.901,-0.785 -1.901,-1.86 m -3.845,0 c 0,0.579 0.413,0.909 0.827,0.909 0.496,0 0.868,-0.33 0.868,-0.909 0,-0.579 -0.372,-0.909 -0.868,-0.909 -0.414,0 -0.827,0.33 -0.827,0.909 m -1.075,0 c 0,-1.158 0.744,-1.86 1.571,-1.86 0.496,0 0.909,0.124 1.182,0.454 h 0.017 v -0.33 h 1.033 v 3.472 h -1.033 v -0.33 h -0.017 c -0.273,0.33 -0.686,0.454 -1.182,0.454 -0.827,0 -1.571,-0.702 -1.571,-1.86 m -2.191,-1.736 h 1.034 v 5.94 h -1.034 z m -4.713,5.939 v -5.939 h 1.034 v 1.901 c 0,0.414 0.289,0.744 0.703,0.744 0.496,0 0.661,-0.248 0.661,-0.744 v -1.901 h 1.033 v 2.232 c 0,0.91 -0.454,1.364 -1.265,1.364 -0.429,0 -0.843,-0.124 -1.116,-0.454 h -0.016 V 4.203 Z M -34.188,0 c 0,-1.075 0.744,-1.86 1.902,-1.86 0.661,0 1.074,0.206 1.571,0.702 l -0.662,0.662 c -0.248,-0.331 -0.496,-0.496 -0.909,-0.496 -0.455,0 -0.827,0.413 -0.827,0.992 0,0.579 0.339,0.992 0.827,0.992 0.454,0 0.661,-0.165 0.909,-0.413 l 0.538,0.661 c -0.373,0.414 -0.786,0.62 -1.447,0.62 -1.158,0 -1.902,-0.785 -1.902,-1.86 m -3.282,-0.628 -0.447,-0.67 c 0.314,-0.281 0.744,-0.562 1.34,-0.562 0.818,0 1.48,0.24 1.48,1.083 0,1.265 -1.704,1.19 -1.704,1.637 0,0.223 0.191,0.256 0.373,0.256 0.297,0 0.595,-0.107 0.818,-0.256 l 0.447,0.595 c -0.373,0.298 -0.745,0.405 -1.34,0.405 -0.67,0 -1.248,-0.322 -1.248,-0.992 0,-1.265 1.62,-1.05 1.62,-1.645 0,-0.19 -0.14,-0.298 -0.446,-0.298 -0.298,0 -0.67,0.223 -0.893,0.447 M -44.779,0 c 0,-0.579 -0.372,-0.909 -0.868,-0.909 -0.414,0 -0.827,0.33 -0.827,0.909 0,0.579 0.413,0.909 0.827,0.909 0.496,0 0.868,-0.33 0.868,-0.909 m 0,-1.736 h 1.033 v 3.472 h -1.033 v -0.33 h -0.017 c -0.272,0.33 -0.686,0.454 -1.182,0.454 -0.827,0 -1.571,-0.702 -1.571,-1.86 0,-1.158 0.744,-1.86 1.571,-1.86 0.496,0 0.91,0.124 1.182,0.454 h 0.017 z m 4.522,3.596 c -0.429,0 -0.843,-0.124 -1.116,-0.454 h -0.016 v 0.33 h -1.034 v -3.472 h 1.034 v 1.901 c 0,0.414 0.289,0.744 0.703,0.744 0.496,0 0.661,-0.248 0.661,-0.744 v -1.901 h 1.033 v 2.232 c 0,0.91 -0.454,1.364 -1.265,1.364 M 6.49,0.331 H 4.837 c 0.082,0.33 0.33,0.661 0.826,0.661 0.496,0 0.744,-0.331 0.827,-0.661 M 7.524,-0.331 V 0.083 C 7.524,1.033 6.746,1.86 5.663,1.86 4.506,1.86 3.762,1.075 3.762,0 c 0,-1.075 0.744,-1.86 1.901,-1.86 0.827,0 1.323,0.206 1.745,0.793 L 6.631,-0.661 C 6.325,-0.992 6.077,-1.075 5.663,-1.075 c -0.413,0 -0.744,0.331 -0.826,0.744 z" />
        </g>
        <g
           transform="translate(259.1048,250.4858)"
           id="g6397">
          <path
             id="path6399"
             style="fill:#e72c37;fill-opacity:1;fill-rule:nonzero;stroke:none"
             d="m 0,0 c 0,-0.092 -0.095,-0.333 -0.212,-0.495 -0.086,-0.117 -0.162,-0.18 -0.219,-0.18 -0.057,0 -0.095,0.044 -0.095,0.104 0,0.149 0.133,0.416 0.241,0.546 0.082,0.098 0.146,0.136 0.196,0.136 C -0.044,0.111 0,0.067 0,0 m -0.425,-1.798 c -0.209,0 -0.403,0.089 -0.403,0.238 0,0.076 0.051,0.143 0.134,0.206 0.066,0.051 0.177,0.092 0.212,0.092 0.035,0 0.149,-0.057 0.273,-0.139 0.101,-0.07 0.152,-0.14 0.152,-0.209 0,-0.124 -0.203,-0.188 -0.368,-0.188 m -0.158,-0.123 c 0.386,0 0.795,0.142 0.795,0.393 0,0.12 -0.063,0.219 -0.215,0.317 -0.102,0.063 -0.219,0.127 -0.301,0.171 -0.105,0.057 -0.165,0.121 -0.165,0.156 0,0.038 0.031,0.076 0.057,0.095 0.089,0.012 0.171,0.031 0.231,0.06 0.251,0.12 0.438,0.352 0.438,0.624 0,0.029 -0.013,0.08 -0.019,0.105 0,0.01 0.012,0.022 0.025,0.022 0.025,0 0.07,-0.009 0.101,-0.019 0.032,-0.009 0.064,-0.016 0.096,-0.016 0.031,0 0.089,0.023 0.089,0.111 C 0.549,0.174 0.51,0.206 0.46,0.206 0.428,0.206 0.364,0.187 0.314,0.174 0.263,0.162 0.206,0.155 0.174,0.155 c -0.025,0 -0.06,0.023 -0.104,0.041 -0.048,0.02 -0.089,0.029 -0.133,0.029 -0.184,0 -0.34,-0.06 -0.47,-0.171 -0.171,-0.146 -0.263,-0.355 -0.263,-0.511 0,-0.218 0.156,-0.301 0.257,-0.326 -0.057,-0.057 -0.174,-0.181 -0.174,-0.247 0,-0.067 0.038,-0.108 0.117,-0.159 -0.175,-0.051 -0.542,-0.187 -0.542,-0.428 0,-0.228 0.323,-0.304 0.555,-0.304 M -1.23,0.225 c -0.273,0 -0.564,-0.374 -0.764,-0.656 h -0.013 l 0.193,0.491 c 0.029,0.07 0.02,0.165 -0.095,0.165 -0.215,0 -0.444,-0.171 -0.545,-0.333 0,-0.025 0.019,-0.051 0.051,-0.051 0.089,0.083 0.209,0.165 0.273,0.165 0.037,0 0.031,-0.044 0.012,-0.095 -0.032,-0.089 -0.323,-0.875 -0.336,-0.916 -0.028,-0.089 0.083,-0.108 0.14,-0.108 0.05,0 0.088,0.013 0.107,0.051 0.156,0.326 0.311,0.618 0.482,0.84 0.146,0.184 0.282,0.282 0.336,0.282 0.038,0 0.045,-0.025 0.045,-0.054 0,-0.05 -0.026,-0.126 -0.051,-0.19 -0.076,-0.187 -0.184,-0.45 -0.266,-0.64 -0.045,-0.105 -0.058,-0.149 -0.058,-0.187 0,-0.045 0.051,-0.102 0.108,-0.102 0.248,0 0.501,0.2 0.609,0.377 0,0.039 -0.019,0.064 -0.057,0.058 -0.089,-0.102 -0.241,-0.216 -0.292,-0.216 -0.025,0 -0.022,0.025 -0.006,0.063 0.051,0.127 0.203,0.473 0.26,0.628 0.032,0.083 0.057,0.19 0.057,0.251 0,0.088 -0.051,0.177 -0.19,0.177 m -2.803,-1.03 c -0.022,-0.057 -0.038,-0.111 -0.038,-0.156 0,-0.076 0.064,-0.152 0.152,-0.152 0.21,0 0.581,0.384 0.78,0.65 h 0.007 l -0.197,-0.51 c -0.028,-0.076 0.025,-0.14 0.095,-0.14 0.222,0 0.527,0.241 0.615,0.397 0,0.044 -0.025,0.057 -0.057,0.057 -0.082,-0.092 -0.247,-0.232 -0.304,-0.232 -0.032,0 -0.035,0.035 -0.016,0.086 0.127,0.345 0.295,0.761 0.374,0.967 -0.016,0.032 -0.089,0.063 -0.158,0.063 -0.038,0 -0.07,-0.003 -0.096,-0.013 -0.123,-0.256 -0.332,-0.665 -0.595,-0.919 -0.112,-0.105 -0.194,-0.171 -0.232,-0.171 -0.032,0 -0.044,0.032 -0.022,0.089 l 0.326,0.814 c 0.013,0.035 0.019,0.073 0.019,0.086 0,0.057 -0.057,0.114 -0.12,0.114 -0.231,0 -0.501,-0.231 -0.603,-0.377 -0.006,-0.038 0.019,-0.057 0.051,-0.063 0.086,0.088 0.229,0.212 0.292,0.212 0.025,0 0.029,-0.032 0.009,-0.083 z m -1.718,-0.2 c -0.032,-0.089 0.076,-0.108 0.133,-0.108 0.051,0 0.086,0.013 0.108,0.051 0.066,0.111 0.238,0.488 0.399,0.697 0.137,0.181 0.232,0.283 0.327,0.352 0.06,0.045 0.111,0.067 0.142,0.067 0.038,0 0.058,-0.029 0.058,-0.086 0,-0.165 -0.146,-0.583 -0.241,-0.805 -0.035,-0.079 -0.057,-0.124 -0.086,-0.124 -0.019,0 -0.047,0.019 -0.079,0.051 -0.019,0.019 -0.038,0.032 -0.057,0.032 -0.048,0 -0.102,-0.06 -0.102,-0.121 0,-0.057 0.051,-0.114 0.152,-0.114 0.175,0 0.368,0.181 0.463,0.327 0.13,0.196 0.279,0.526 0.279,0.767 0,0.136 -0.076,0.244 -0.222,0.244 -0.107,0 -0.228,-0.067 -0.348,-0.158 -0.099,-0.073 -0.229,-0.187 -0.39,-0.387 l -0.007,0.006 0.34,0.958 c 0.06,0.174 0.136,0.371 0.193,0.529 C -4.696,1.179 -4.702,1.192 -4.714,1.198 -4.854,1.192 -5.12,1.135 -5.196,1.103 -5.215,1.091 -5.215,1.065 -5.209,1.046 l 0.076,-0.044 c 0.06,-0.035 0.048,-0.073 -0.009,-0.235 z m -0.828,-0.108 c 0.235,0 0.466,0.171 0.584,0.327 0.006,0.038 -0.019,0.063 -0.057,0.063 -0.13,-0.133 -0.244,-0.193 -0.34,-0.193 -0.076,0 -0.13,0.047 -0.13,0.19 0,0.231 0.102,0.466 0.2,0.621 0.089,0.14 0.171,0.203 0.235,0.203 0.082,0 0.073,-0.104 0.079,-0.174 0.003,-0.057 0.041,-0.089 0.095,-0.089 0.073,0 0.19,0.051 0.19,0.175 0.004,0.126 -0.108,0.215 -0.272,0.215 -0.168,0 -0.336,-0.076 -0.504,-0.241 -0.229,-0.225 -0.359,-0.539 -0.359,-0.748 0,-0.228 0.108,-0.349 0.279,-0.349 m -1.059,0 c 0.134,0 0.26,0.048 0.355,0.127 0.121,0.098 0.175,0.219 0.178,0.327 0.003,0.123 -0.044,0.212 -0.136,0.336 -0.057,0.076 -0.162,0.168 -0.162,0.272 0,0.045 0.038,0.099 0.108,0.099 0.082,0 0.133,-0.035 0.222,-0.137 0.019,-0.025 0.041,-0.038 0.069,-0.038 0.032,0 0.102,0.048 0.102,0.133 0,0.111 -0.108,0.219 -0.254,0.219 -0.082,0 -0.196,-0.044 -0.285,-0.12 -0.114,-0.099 -0.184,-0.206 -0.184,-0.34 0,-0.079 0.044,-0.187 0.133,-0.301 0.061,-0.076 0.159,-0.187 0.159,-0.291 0,-0.067 -0.061,-0.115 -0.127,-0.115 -0.089,0 -0.159,0.054 -0.241,0.143 -0.022,0.025 -0.045,0.044 -0.07,0.044 -0.07,0 -0.12,-0.082 -0.12,-0.152 0,-0.111 0.12,-0.206 0.253,-0.206 m -0.818,1.338 c -0.196,0 -0.355,-0.184 -0.437,-0.326 -0.007,-0.038 0.019,-0.064 0.051,-0.064 0.076,0.089 0.177,0.178 0.247,0.178 0.031,0 0.035,-0.032 0.019,-0.083 -0.089,-0.288 -0.247,-0.729 -0.317,-0.935 -0.029,-0.089 0.082,-0.108 0.146,-0.108 0.051,0 0.092,0.013 0.108,0.051 0.129,0.301 0.263,0.609 0.38,0.799 0.105,0.174 0.178,0.244 0.216,0.244 0.031,0 0.05,-0.032 0.063,-0.095 0.013,-0.057 0.025,-0.092 0.063,-0.092 0.099,0 0.171,0.155 0.171,0.254 0,0.088 -0.044,0.177 -0.145,0.177 -0.096,0 -0.181,-0.076 -0.282,-0.203 -0.08,-0.098 -0.187,-0.279 -0.283,-0.453 h -0.018 l 0.11,0.326 c 0.051,0.146 0.08,0.33 -0.092,0.33 m -1.86,-0.922 c -0.007,-0.232 0.126,-0.416 0.393,-0.416 0.139,0 0.317,0.038 0.5,0.219 0.213,0.203 0.308,0.491 0.311,0.688 0.003,0.238 -0.108,0.431 -0.39,0.431 -0.142,0 -0.298,-0.044 -0.482,-0.212 -0.193,-0.181 -0.326,-0.479 -0.332,-0.71 m 0.405,-0.302 c -0.073,0 -0.114,0.07 -0.114,0.165 0,0.235 0.165,0.612 0.314,0.806 0.083,0.104 0.149,0.139 0.206,0.139 0.089,0 0.102,-0.086 0.102,-0.171 0,-0.206 -0.153,-0.587 -0.267,-0.752 -0.095,-0.136 -0.165,-0.187 -0.241,-0.187 m -2.025,-0.006 c -0.032,-0.089 0.075,-0.108 0.133,-0.108 0.05,0 0.085,0.013 0.107,0.051 0.067,0.111 0.238,0.488 0.4,0.697 0.136,0.181 0.231,0.283 0.326,0.352 0.061,0.045 0.111,0.067 0.143,0.067 0.038,0 0.057,-0.029 0.057,-0.086 0,-0.165 -0.146,-0.583 -0.241,-0.805 -0.035,-0.079 -0.057,-0.124 -0.086,-0.124 -0.019,0 -0.047,0.019 -0.079,0.051 -0.019,0.019 -0.038,0.032 -0.057,0.032 -0.047,0 -0.101,-0.06 -0.101,-0.121 0,-0.057 0.05,-0.114 0.152,-0.114 0.174,0 0.368,0.181 0.463,0.327 0.13,0.196 0.279,0.526 0.279,0.767 0,0.136 -0.076,0.244 -0.222,0.244 -0.108,0 -0.228,-0.067 -0.349,-0.158 -0.098,-0.073 -0.228,-0.187 -0.39,-0.387 l -0.006,0.006 0.339,0.958 c 0.06,0.174 0.136,0.371 0.193,0.529 -0.006,0.006 -0.012,0.019 -0.025,0.025 -0.139,-0.006 -0.406,-0.063 -0.482,-0.095 -0.019,-0.012 -0.019,-0.038 -0.012,-0.057 l 0.075,-0.044 c 0.061,-0.035 0.048,-0.073 -0.009,-0.235 z m -0.666,1.046 c 0.018,0.003 0.038,0.007 0.069,0.007 0.108,0 0.216,-0.073 0.216,-0.245 0,-0.174 -0.073,-0.402 -0.203,-0.596 -0.108,-0.158 -0.241,-0.206 -0.289,-0.206 -0.044,0 -0.079,0.038 -0.095,0.064 -0.022,0.035 -0.022,0.073 -0.009,0.111 z m 0.101,0.314 c -0.013,0.025 -0.083,0.057 -0.159,0.057 -0.057,0 -0.101,-0.006 -0.12,-0.032 l -0.095,-0.237 c -0.14,-0.038 -0.304,-0.124 -0.406,-0.2 -0.019,-0.025 0,-0.07 0.038,-0.076 0.108,0.057 0.216,0.108 0.317,0.127 l -0.548,-1.548 c -0.061,-0.171 -0.083,-0.237 -0.235,-0.26 l -0.089,-0.012 c -0.025,-0.022 -0.019,-0.073 0.013,-0.092 0.26,0.022 0.526,0.032 0.786,0.032 0.038,0.012 0.045,0.066 0.019,0.085 l -0.133,0.013 c -0.114,0.009 -0.111,0.066 -0.051,0.241 l 0.137,0.402 c 0.009,0.032 0.025,0.051 0.05,0.058 0.038,-0.013 0.076,-0.026 0.108,-0.026 0.146,0 0.381,0.064 0.558,0.232 0.19,0.177 0.33,0.415 0.33,0.646 0,0.276 -0.209,0.409 -0.488,0.409 -0.038,0 -0.07,0 -0.102,-0.006 z m -1.849,-0.523 c -0.119,0 -0.214,-0.094 -0.214,-0.215 0,-0.12 0.095,-0.213 0.214,-0.213 0.12,0 0.215,0.093 0.215,0.213 0,0.121 -0.095,0.215 -0.215,0.215 m -1.301,0.393 c -0.273,0 -0.564,-0.374 -0.764,-0.656 h -0.013 l 0.194,0.491 c 0.028,0.07 0.019,0.165 -0.096,0.165 -0.215,0 -0.443,-0.171 -0.545,-0.333 0,-0.025 0.019,-0.051 0.051,-0.051 0.089,0.083 0.209,0.165 0.273,0.165 0.038,0 0.031,-0.044 0.012,-0.095 -0.031,-0.089 -0.323,-0.875 -0.336,-0.916 -0.028,-0.089 0.083,-0.108 0.14,-0.108 0.05,0 0.088,0.013 0.107,0.051 0.156,0.326 0.311,0.618 0.482,0.84 0.146,0.184 0.283,0.282 0.336,0.282 0.039,0 0.045,-0.025 0.045,-0.054 0,-0.05 -0.025,-0.126 -0.051,-0.19 -0.076,-0.187 -0.184,-0.45 -0.266,-0.64 -0.045,-0.105 -0.057,-0.149 -0.057,-0.187 0,-0.045 0.05,-0.102 0.108,-0.102 0.247,0 0.501,0.2 0.608,0.377 0,0.039 -0.019,0.064 -0.057,0.058 -0.088,-0.102 -0.241,-0.216 -0.291,-0.216 -0.026,0 -0.023,0.025 -0.007,0.063 0.051,0.127 0.203,0.473 0.26,0.628 0.032,0.083 0.057,0.19 0.057,0.251 0,0.088 -0.05,0.177 -0.19,0.177 M -17.379,0 c 0,-0.092 -0.095,-0.333 -0.212,-0.495 -0.086,-0.117 -0.162,-0.18 -0.219,-0.18 -0.057,0 -0.095,0.044 -0.095,0.104 0,0.149 0.133,0.416 0.241,0.546 0.082,0.098 0.146,0.136 0.196,0.136 0.045,0 0.089,-0.044 0.089,-0.111 m -0.425,-1.798 c -0.209,0 -0.402,0.089 -0.402,0.238 0,0.076 0.051,0.143 0.133,0.206 0.066,0.051 0.177,0.092 0.212,0.092 0.035,0 0.149,-0.057 0.273,-0.139 0.101,-0.07 0.152,-0.14 0.152,-0.209 0,-0.124 -0.203,-0.188 -0.368,-0.188 m -0.158,-0.123 c 0.386,0 0.796,0.142 0.796,0.393 0,0.12 -0.064,0.219 -0.216,0.317 -0.101,0.063 -0.219,0.127 -0.301,0.171 -0.105,0.057 -0.165,0.121 -0.165,0.156 0,0.038 0.032,0.076 0.057,0.095 0.089,0.012 0.171,0.031 0.231,0.06 0.251,0.12 0.438,0.352 0.438,0.624 0,0.029 -0.013,0.08 -0.019,0.105 0,0.01 0.013,0.022 0.025,0.022 0.026,0 0.07,-0.009 0.102,-0.019 0.031,-0.009 0.063,-0.016 0.095,-0.016 0.032,0 0.089,0.023 0.089,0.111 0,0.076 -0.038,0.108 -0.089,0.108 -0.032,0 -0.095,-0.019 -0.146,-0.032 -0.051,-0.012 -0.108,-0.019 -0.14,-0.019 -0.025,0 -0.06,0.023 -0.104,0.041 -0.048,0.02 -0.089,0.029 -0.133,0.029 -0.184,0 -0.34,-0.06 -0.47,-0.171 -0.171,-0.146 -0.263,-0.355 -0.263,-0.511 0,-0.218 0.156,-0.301 0.257,-0.326 -0.057,-0.057 -0.174,-0.181 -0.174,-0.247 0,-0.067 0.038,-0.108 0.117,-0.159 -0.174,-0.051 -0.542,-0.187 -0.542,-0.428 0,-0.228 0.323,-0.304 0.555,-0.304 m -0.501,2.428 c 0.12,0 0.206,0.105 0.206,0.219 0,0.098 -0.054,0.149 -0.146,0.149 -0.133,0 -0.206,-0.117 -0.206,-0.219 0,-0.079 0.051,-0.149 0.146,-0.149 M -18.406,0 c 0.028,0.067 0.041,0.111 0.035,0.136 -0.01,0.045 -0.06,0.089 -0.105,0.089 -0.142,0 -0.412,-0.139 -0.583,-0.339 -0.01,-0.025 0.012,-0.064 0.044,-0.064 0.102,0.089 0.235,0.172 0.273,0.172 0.019,0 0.019,-0.019 0.006,-0.051 l -0.352,-0.834 c -0.022,-0.054 -0.028,-0.089 -0.028,-0.123 0,-0.029 0.047,-0.099 0.101,-0.099 0.241,0 0.546,0.244 0.634,0.377 0.006,0.032 -0.019,0.064 -0.054,0.064 -0.092,-0.098 -0.266,-0.219 -0.317,-0.219 -0.025,0 -0.022,0.029 -0.009,0.06 z m -1.55,-1.113 c 0.133,0 0.26,0.048 0.355,0.127 0.12,0.098 0.174,0.219 0.177,0.327 0.003,0.123 -0.044,0.212 -0.136,0.336 -0.057,0.076 -0.162,0.168 -0.162,0.272 0,0.045 0.038,0.099 0.108,0.099 0.082,0 0.133,-0.035 0.222,-0.137 0.019,-0.025 0.041,-0.038 0.07,-0.038 0.031,0 0.101,0.048 0.101,0.133 0,0.111 -0.108,0.219 -0.254,0.219 -0.082,0 -0.196,-0.044 -0.285,-0.12 -0.114,-0.099 -0.184,-0.206 -0.184,-0.34 0,-0.079 0.044,-0.187 0.133,-0.301 0.061,-0.076 0.159,-0.187 0.159,-0.291 0,-0.067 -0.06,-0.115 -0.127,-0.115 -0.089,0 -0.158,0.054 -0.241,0.143 -0.022,0.025 -0.044,0.044 -0.07,0.044 -0.069,0 -0.12,-0.082 -0.12,-0.152 0,-0.111 0.12,-0.206 0.254,-0.206 m -0.521,1.224 c 0.042,0 0.061,-0.038 0.061,-0.079 0,-0.051 -0.038,-0.159 -0.117,-0.238 -0.102,-0.105 -0.2,-0.159 -0.362,-0.216 0.035,0.114 0.111,0.283 0.228,0.406 0.08,0.089 0.146,0.127 0.19,0.127 m -0.51,-1.224 c 0.209,0 0.431,0.095 0.603,0.333 0.006,0.032 -0.019,0.064 -0.051,0.064 -0.146,-0.134 -0.26,-0.2 -0.374,-0.2 -0.089,0 -0.14,0.063 -0.14,0.18 0,0.089 0.013,0.162 0.029,0.207 0.352,0.095 0.783,0.25 0.783,0.535 0,0.105 -0.102,0.219 -0.254,0.219 -0.12,0 -0.269,-0.041 -0.444,-0.171 -0.301,-0.228 -0.45,-0.583 -0.45,-0.821 0,-0.175 0.089,-0.346 0.298,-0.346 m -0.903,1.224 c 0.063,0 0.091,-0.098 0.057,-0.225 -0.045,-0.152 -0.149,-0.352 -0.317,-0.536 -0.169,-0.184 -0.371,-0.314 -0.435,-0.314 -0.025,0 -0.044,0.019 -0.044,0.057 0,0.07 0.057,0.235 0.184,0.447 0.111,0.191 0.282,0.387 0.374,0.47 0.07,0.063 0.133,0.101 0.181,0.101 m -0.023,0.114 c -0.171,0 -0.374,-0.089 -0.586,-0.273 -0.251,-0.218 -0.412,-0.561 -0.415,-0.802 -0.004,-0.158 0.079,-0.263 0.218,-0.263 0.32,0 0.577,0.327 0.764,0.603 h 0.007 l -0.105,-0.286 c -0.035,-0.092 -0.054,-0.158 -0.054,-0.212 0,-0.048 0.038,-0.105 0.114,-0.105 0.241,0 0.514,0.26 0.596,0.403 0,0.038 -0.019,0.057 -0.05,0.057 -0.102,-0.121 -0.279,-0.241 -0.317,-0.241 -0.026,0 -0.032,0.025 -0.026,0.054 0.007,0.032 0.022,0.079 0.045,0.155 0.031,0.105 0.336,1.034 0.462,1.37 0.083,0.215 0.118,0.33 0.175,0.488 0,0.006 -0.013,0.019 -0.025,0.025 -0.146,-0.006 -0.4,-0.057 -0.476,-0.088 -0.019,-0.013 -0.026,-0.038 -0.013,-0.057 l 0.076,-0.051 c 0.051,-0.032 0.048,-0.076 -0.003,-0.222 l -0.222,-0.644 c -0.032,0.051 -0.101,0.089 -0.165,0.089 m -2.07,-0.393 c -0.12,0 -0.215,-0.094 -0.215,-0.215 0,-0.12 0.095,-0.213 0.215,-0.213 0.12,0 0.215,0.093 0.215,0.213 0,0.121 -0.095,0.215 -0.215,0.215 m -1.301,0.393 c -0.273,0 -0.565,-0.374 -0.764,-0.656 h -0.013 l 0.193,0.491 c 0.029,0.07 0.019,0.165 -0.095,0.165 -0.215,0 -0.443,-0.171 -0.545,-0.333 0,-0.025 0.019,-0.051 0.051,-0.051 0.089,0.083 0.209,0.165 0.272,0.165 0.038,0 0.032,-0.044 0.013,-0.095 -0.032,-0.089 -0.323,-0.875 -0.336,-0.916 -0.029,-0.089 0.082,-0.108 0.14,-0.108 0.05,0 0.088,0.013 0.107,0.051 0.156,0.326 0.311,0.618 0.482,0.84 0.146,0.184 0.282,0.282 0.336,0.282 0.038,0 0.045,-0.025 0.045,-0.054 0,-0.05 -0.026,-0.126 -0.051,-0.19 -0.076,-0.187 -0.184,-0.45 -0.266,-0.64 -0.045,-0.105 -0.057,-0.149 -0.057,-0.187 0,-0.045 0.05,-0.102 0.107,-0.102 0.248,0 0.501,0.2 0.609,0.377 0,0.039 -0.019,0.064 -0.057,0.058 -0.089,-0.102 -0.241,-0.216 -0.292,-0.216 -0.025,0 -0.022,0.025 -0.006,0.063 0.051,0.127 0.203,0.473 0.26,0.628 0.032,0.083 0.057,0.19 0.057,0.251 0,0.088 -0.051,0.177 -0.19,0.177 m -2.619,-0.922 c -0.006,-0.232 0.127,-0.416 0.393,-0.416 0.14,0 0.317,0.038 0.501,0.219 0.212,0.203 0.308,0.491 0.311,0.688 0.003,0.238 -0.108,0.431 -0.39,0.431 -0.143,0 -0.298,-0.044 -0.482,-0.212 -0.194,-0.181 -0.327,-0.479 -0.333,-0.71 m 0.406,-0.302 c -0.073,0 -0.114,0.07 -0.114,0.165 0,0.235 0.165,0.612 0.314,0.806 0.082,0.104 0.148,0.139 0.206,0.139 0.088,0 0.101,-0.086 0.101,-0.171 0,-0.206 -0.152,-0.587 -0.266,-0.752 -0.095,-0.136 -0.165,-0.187 -0.241,-0.187 m -0.637,1.506 c 0.12,0 0.206,0.105 0.206,0.219 0,0.098 -0.054,0.149 -0.146,0.149 -0.133,0 -0.206,-0.117 -0.206,-0.219 0,-0.079 0.05,-0.149 0.146,-0.149 M -28.077,0 c 0.028,0.067 0.041,0.111 0.034,0.136 -0.009,0.045 -0.06,0.089 -0.104,0.089 -0.143,0 -0.412,-0.139 -0.584,-0.339 -0.009,-0.025 0.013,-0.064 0.045,-0.064 0.101,0.089 0.235,0.172 0.273,0.172 0.019,0 0.019,-0.019 0.006,-0.051 l -0.352,-0.834 c -0.022,-0.054 -0.029,-0.089 -0.029,-0.123 0,-0.029 0.048,-0.099 0.102,-0.099 0.241,0 0.545,0.244 0.634,0.377 0.006,0.032 -0.019,0.064 -0.054,0.064 -0.092,-0.098 -0.266,-0.219 -0.317,-0.219 -0.025,0 -0.022,0.029 -0.01,0.06 z m -0.685,0.022 c 0.038,0.019 0.063,0.102 0.025,0.14 h -0.317 l 0.089,0.295 c -0.013,0.025 -0.057,0.041 -0.101,0.041 -0.032,0 -0.057,-0.003 -0.076,-0.016 l -0.203,-0.308 -0.267,-0.05 c -0.031,-0.019 -0.051,-0.073 -0.031,-0.102 h 0.24 l -0.291,-0.853 c -0.029,-0.085 -0.038,-0.13 -0.038,-0.174 0,-0.051 0.05,-0.108 0.114,-0.108 0.203,0 0.513,0.225 0.653,0.435 0.006,0.044 -0.013,0.063 -0.051,0.069 -0.114,-0.127 -0.298,-0.266 -0.348,-0.266 -0.032,0 -0.039,0.025 -0.02,0.076 l 0.286,0.821 z m -1.633,0.026 c 0.064,0 0.114,-0.035 0.14,-0.111 -0.045,-0.146 -0.187,-0.432 -0.349,-0.596 -0.137,-0.143 -0.273,-0.254 -0.324,-0.254 -0.025,0 -0.038,0.029 -0.038,0.063 0.007,0.209 0.172,0.568 0.349,0.761 0.102,0.108 0.152,0.137 0.222,0.137 m 0.222,0.05 c -0.019,0.026 -0.051,0.051 -0.067,0.06 -0.022,0.01 -0.047,0.023 -0.072,0.023 -0.077,0 -0.153,-0.019 -0.248,-0.07 -0.108,-0.057 -0.253,-0.155 -0.396,-0.314 -0.244,-0.276 -0.371,-0.596 -0.371,-0.72 0,-0.101 0.07,-0.19 0.171,-0.19 0.184,0 0.501,0.232 0.723,0.533 h 0.01 l -0.115,-0.301 c -0.025,-0.064 -0.031,-0.099 -0.031,-0.13 0,-0.038 0.028,-0.102 0.104,-0.102 0.203,0 0.451,0.178 0.59,0.355 0,0.042 -0.025,0.061 -0.051,0.061 -0.139,-0.134 -0.269,-0.207 -0.317,-0.207 -0.019,0 -0.031,0.016 -0.016,0.058 0.118,0.329 0.321,0.852 0.409,1.058 -0.028,0.058 -0.117,0.077 -0.177,0.077 -0.025,0 -0.051,-0.007 -0.064,-0.013 z m -2.061,-0.577 c -0.031,0 -0.035,0.026 -0.031,0.045 0.012,0.044 0.088,0.152 0.164,0.231 0.149,0.152 0.286,0.244 0.387,0.244 0.057,0 0.095,-0.035 0.095,-0.085 0,-0.083 -0.088,-0.184 -0.215,-0.27 -0.184,-0.12 -0.33,-0.165 -0.4,-0.165 m 0.698,0.704 c -0.279,0 -0.482,-0.231 -0.653,-0.409 h -0.007 l 0.317,0.923 c 0.073,0.215 0.118,0.32 0.156,0.434 -0.003,0.013 -0.013,0.022 -0.029,0.025 -0.146,-0.019 -0.387,-0.069 -0.488,-0.114 -0.019,-0.019 -0.019,-0.044 -0.007,-0.063 l 0.077,-0.038 c 0.057,-0.029 0.057,-0.06 0,-0.232 l -0.596,-1.756 c -0.029,-0.089 0.088,-0.108 0.145,-0.108 0.045,0 0.092,0.013 0.108,0.051 l 0.146,0.365 c 0.038,0.094 0.057,0.111 0.12,0.117 0.039,0.006 0.064,-0.016 0.077,-0.057 0.038,-0.137 0.073,-0.247 0.114,-0.33 0.047,-0.095 0.108,-0.146 0.184,-0.146 0.146,0 0.323,0.133 0.418,0.327 -0.003,0.031 -0.032,0.05 -0.057,0.044 -0.082,-0.089 -0.158,-0.158 -0.209,-0.158 -0.038,0 -0.063,0.031 -0.092,0.092 -0.035,0.072 -0.073,0.19 -0.092,0.266 -0.006,0.025 -0.006,0.051 0.013,0.057 0.158,0.032 0.32,0.111 0.415,0.19 0.155,0.127 0.193,0.238 0.193,0.314 0,0.092 -0.069,0.206 -0.253,0.206 m -1.411,0.282 c 0.12,0 0.206,0.105 0.206,0.219 0,0.098 -0.054,0.149 -0.146,0.149 -0.133,0 -0.206,-0.117 -0.206,-0.219 0,-0.079 0.051,-0.149 0.146,-0.149 M -32.89,0 c 0.029,0.067 0.041,0.111 0.035,0.136 -0.01,0.045 -0.06,0.089 -0.105,0.089 -0.142,0 -0.412,-0.139 -0.583,-0.339 -0.01,-0.025 0.013,-0.064 0.044,-0.064 0.102,0.089 0.235,0.172 0.273,0.172 0.019,0 0.019,-0.019 0.006,-0.051 l -0.352,-0.834 c -0.022,-0.054 -0.028,-0.089 -0.028,-0.123 0,-0.029 0.047,-0.099 0.101,-0.099 0.241,0 0.546,0.244 0.634,0.377 0.007,0.032 -0.019,0.064 -0.053,0.064 -0.092,-0.098 -0.267,-0.219 -0.318,-0.219 -0.025,0 -0.022,0.029 -0.009,0.06 z m -1.125,0.225 c -0.273,0 -0.565,-0.374 -0.764,-0.656 h -0.013 l 0.193,0.491 c 0.029,0.07 0.019,0.165 -0.095,0.165 -0.215,0 -0.444,-0.171 -0.545,-0.333 0,-0.025 0.019,-0.051 0.05,-0.051 0.089,0.083 0.21,0.165 0.273,0.165 0.038,0 0.032,-0.044 0.013,-0.095 -0.032,-0.089 -0.324,-0.875 -0.336,-0.916 -0.029,-0.089 0.082,-0.108 0.139,-0.108 0.051,0 0.089,0.013 0.108,0.051 0.155,0.326 0.311,0.618 0.482,0.84 0.146,0.184 0.282,0.282 0.336,0.282 0.038,0 0.044,-0.025 0.044,-0.054 0,-0.05 -0.025,-0.126 -0.05,-0.19 -0.076,-0.187 -0.184,-0.45 -0.267,-0.64 -0.044,-0.105 -0.057,-0.149 -0.057,-0.187 0,-0.045 0.051,-0.102 0.108,-0.102 0.247,0 0.501,0.2 0.609,0.377 0,0.039 -0.019,0.064 -0.057,0.058 -0.089,-0.102 -0.241,-0.216 -0.292,-0.216 -0.025,0 -0.022,0.025 -0.006,0.063 0.05,0.127 0.203,0.473 0.26,0.628 0.031,0.083 0.057,0.19 0.057,0.251 0,0.088 -0.051,0.177 -0.19,0.177 m -2.787,-1.03 c -0.022,-0.057 -0.038,-0.111 -0.038,-0.156 0,-0.076 0.063,-0.152 0.152,-0.152 0.209,0 0.58,0.384 0.78,0.65 h 0.006 l -0.196,-0.51 c -0.029,-0.076 0.025,-0.14 0.095,-0.14 0.222,0 0.526,0.241 0.615,0.397 0,0.044 -0.026,0.057 -0.057,0.057 -0.083,-0.092 -0.248,-0.232 -0.305,-0.232 -0.031,0 -0.035,0.035 -0.016,0.086 0.127,0.345 0.295,0.761 0.375,0.967 -0.016,0.032 -0.089,0.063 -0.159,0.063 -0.038,0 -0.07,-0.003 -0.095,-0.013 -0.124,-0.256 -0.333,-0.665 -0.596,-0.919 -0.111,-0.105 -0.194,-0.171 -0.232,-0.171 -0.031,0 -0.044,0.032 -0.022,0.089 l 0.327,0.814 c 0.012,0.035 0.019,0.073 0.019,0.086 0,0.057 -0.057,0.114 -0.121,0.114 -0.231,0 -0.501,-0.231 -0.602,-0.377 -0.006,-0.038 0.019,-0.057 0.051,-0.063 0.085,0.088 0.228,0.212 0.291,0.212 0.026,0 0.029,-0.032 0.01,-0.083 z m -1.928,1.03 c -0.279,0 -0.463,-0.152 -0.552,-0.326 0,-0.032 0.026,-0.058 0.057,-0.058 0.064,0.077 0.165,0.178 0.267,0.178 0.044,0 0.05,-0.025 0.022,-0.108 -0.029,-0.089 -0.323,-0.897 -0.333,-0.929 -0.022,-0.076 0.063,-0.095 0.159,-0.095 0.05,0 0.076,0.013 0.095,0.057 0.149,0.314 0.298,0.622 0.456,0.825 0.159,0.203 0.282,0.291 0.352,0.291 0.035,0 0.048,-0.025 0.048,-0.063 0,-0.048 -0.038,-0.136 -0.057,-0.181 -0.07,-0.168 -0.317,-0.815 -0.324,-0.834 -0.025,-0.076 0.07,-0.095 0.159,-0.095 0.05,0 0.076,0.013 0.098,0.057 0.162,0.314 0.311,0.622 0.476,0.831 0.152,0.193 0.269,0.285 0.329,0.285 0.042,0 0.048,-0.025 0.048,-0.057 0,-0.047 -0.025,-0.123 -0.051,-0.187 -0.076,-0.193 -0.184,-0.45 -0.266,-0.64 -0.044,-0.105 -0.064,-0.149 -0.064,-0.187 0,-0.045 0.058,-0.102 0.115,-0.102 0.247,0 0.513,0.197 0.608,0.377 0,0.039 -0.019,0.064 -0.057,0.058 -0.089,-0.102 -0.234,-0.216 -0.291,-0.216 -0.026,0 -0.026,0.025 -0.01,0.063 0.054,0.127 0.206,0.473 0.263,0.628 0.032,0.086 0.057,0.184 0.057,0.244 0,0.095 -0.057,0.184 -0.196,0.184 -0.222,0 -0.479,-0.231 -0.736,-0.647 h -0.006 c 0.051,0.121 0.123,0.305 0.142,0.371 0.026,0.099 0.035,0.276 -0.158,0.276 -0.244,0 -0.526,-0.326 -0.726,-0.634 h -0.006 l 0.184,0.469 c 0.028,0.073 0.012,0.165 -0.102,0.165 m -2.397,0 c -0.279,0 -0.463,-0.152 -0.552,-0.326 0,-0.032 0.026,-0.058 0.058,-0.058 0.063,0.077 0.164,0.178 0.266,0.178 0.044,0 0.051,-0.025 0.022,-0.108 -0.029,-0.089 -0.323,-0.897 -0.333,-0.929 -0.022,-0.076 0.064,-0.095 0.159,-0.095 0.05,0 0.076,0.013 0.095,0.057 0.149,0.314 0.298,0.622 0.456,0.825 0.159,0.203 0.283,0.291 0.352,0.291 0.035,0 0.048,-0.025 0.048,-0.063 0,-0.048 -0.038,-0.136 -0.057,-0.181 -0.07,-0.168 -0.317,-0.815 -0.324,-0.834 -0.025,-0.076 0.07,-0.095 0.159,-0.095 0.051,0 0.076,0.013 0.098,0.057 0.162,0.314 0.311,0.622 0.476,0.831 0.152,0.193 0.269,0.285 0.329,0.285 0.042,0 0.048,-0.025 0.048,-0.057 0,-0.047 -0.025,-0.123 -0.051,-0.187 -0.076,-0.193 -0.184,-0.45 -0.266,-0.64 -0.044,-0.105 -0.063,-0.149 -0.063,-0.187 0,-0.045 0.057,-0.102 0.114,-0.102 0.247,0 0.513,0.197 0.608,0.377 0,0.039 -0.019,0.064 -0.057,0.058 -0.088,-0.102 -0.234,-0.216 -0.291,-0.216 -0.026,0 -0.026,0.025 -0.01,0.063 0.054,0.127 0.206,0.473 0.263,0.628 0.032,0.086 0.057,0.184 0.057,0.244 0,0.095 -0.057,0.184 -0.196,0.184 -0.222,0 -0.479,-0.231 -0.736,-0.647 h -0.006 c 0.051,0.121 0.124,0.305 0.143,0.371 0.025,0.099 0.034,0.276 -0.159,0.276 -0.244,0 -0.526,-0.326 -0.726,-0.634 h -0.006 l 0.184,0.469 c 0.028,0.073 0.012,0.165 -0.102,0.165 m -1.934,-0.922 c -0.006,-0.232 0.127,-0.416 0.393,-0.416 0.14,0 0.317,0.038 0.501,0.219 0.213,0.203 0.308,0.491 0.311,0.688 0.003,0.238 -0.108,0.431 -0.39,0.431 -0.143,0 -0.298,-0.044 -0.482,-0.212 -0.193,-0.181 -0.327,-0.479 -0.333,-0.71 m 0.406,-0.302 c -0.073,0 -0.114,0.07 -0.114,0.165 0,0.235 0.165,0.612 0.314,0.806 0.082,0.104 0.149,0.139 0.206,0.139 0.089,0 0.101,-0.086 0.101,-0.171 0,-0.206 -0.152,-0.587 -0.266,-0.752 -0.095,-0.136 -0.165,-0.187 -0.241,-0.187 m -1.392,0.52 c -0.032,0 -0.035,0.026 -0.032,0.045 0.013,0.044 0.089,0.152 0.165,0.231 0.149,0.152 0.286,0.244 0.387,0.244 0.057,0 0.095,-0.035 0.095,-0.085 0,-0.083 -0.088,-0.184 -0.215,-0.27 -0.184,-0.12 -0.33,-0.165 -0.4,-0.165 m 0.698,0.704 c -0.279,0 -0.482,-0.231 -0.653,-0.409 h -0.007 l 0.317,0.923 c 0.073,0.215 0.118,0.32 0.156,0.434 -0.003,0.013 -0.013,0.022 -0.029,0.025 -0.146,-0.019 -0.387,-0.069 -0.488,-0.114 -0.019,-0.019 -0.019,-0.044 -0.006,-0.063 l 0.076,-0.038 c 0.057,-0.029 0.057,-0.06 0,-0.232 l -0.596,-1.756 c -0.029,-0.089 0.088,-0.108 0.145,-0.108 0.045,0 0.092,0.013 0.108,0.051 l 0.146,0.365 c 0.038,0.094 0.057,0.111 0.121,0.117 0.038,0.006 0.063,-0.016 0.076,-0.057 0.038,-0.137 0.073,-0.247 0.114,-0.33 0.047,-0.095 0.108,-0.146 0.184,-0.146 0.146,0 0.323,0.133 0.418,0.327 -0.003,0.031 -0.032,0.05 -0.057,0.044 -0.082,-0.089 -0.158,-0.158 -0.209,-0.158 -0.038,0 -0.064,0.031 -0.092,0.092 -0.035,0.072 -0.073,0.19 -0.092,0.266 -0.006,0.025 -0.006,0.051 0.013,0.057 0.158,0.032 0.32,0.111 0.415,0.19 0.155,0.127 0.193,0.238 0.193,0.314 0,0.092 -0.069,0.206 -0.253,0.206" />
        </g>
      </g>
    </g>
  </g>
</svg>
