<?xml version="1.0" encoding="UTF-8" standalone="no"?>
<svg
   xmlns:dc="http://purl.org/dc/elements/1.1/"
   xmlns:cc="http://creativecommons.org/ns#"
   xmlns:rdf="http://www.w3.org/1999/02/22-rdf-syntax-ns#"
   xmlns:svg="http://www.w3.org/2000/svg"
   xmlns="http://www.w3.org/2000/svg"
   id="svg4850"
   version="1.1"
   viewBox="0 0 22.090265 21.106873"
   height="21.106873mm"
   width="22.090265mm">
  <defs
     id="defs4844" />
  <metadata
     id="metadata4847">
    <rdf:RDF>
      <cc:Work
         rdf:about="">
        <dc:format>image/svg+xml</dc:format>
        <dc:type
           rdf:resource="http://purl.org/dc/dcmitype/StillImage" />
        <dc:title></dc:title>
      </cc:Work>
    </rdf:RDF>
  </metadata>
  <g
     transform="translate(179.62251,-314.4168)"
     id="layer1">
    <path
       id="path4651"
       style="opacity:1;fill:#ffdd0e;fill-opacity:1;fill-rule:nonzero;stroke:none;stroke-width:0.35277775"
       d="m -164.06209,326.18466 c 2.22603,0 4.03084,-1.80481 4.03084,-4.03084 0,-2.22638 -1.80481,-4.03084 -4.03084,-4.03084 -2.22602,0 -4.03083,1.80446 -4.03083,4.03084 0,2.22603 1.80481,4.03084 4.03083,4.03084" />
    <path
       id="path4669"
       style="opacity:1;fill:#ffdd0e;fill-opacity:1;fill-rule:nonzero;stroke:none;stroke-width:0.35277775"
       d="M -168.71593,331.31486 V 314.4168 l -9.61919,16.89806 z" />
    <path
       id="path4683"
       style="fill:#f9b233;fill-opacity:1;fill-rule:nonzero;stroke:none;stroke-width:0.35277775"
       d="m -168.09296,331.31486 v -9.19762 l 9.67423,9.19762 z" />
    <path
       d="m -177.99635,333.04764 0.6171,1.35618 h -0.18657 l -0.15273,-0.33418 h -0.55457 l -0.14863,0.33418 h -0.18554 z m 0,0.40901 -0.21014,0.46436 h 0.42028 z"
       style="font-style:normal;font-variant:normal;font-weight:normal;font-stretch:normal;font-size:medium;line-height:1.25;font-family:'Tw Cen MT';-inkscape-font-specification:'Tw Cen MT';letter-spacing:0px;word-spacing:0px;fill:#f9b233;fill-opacity:1;stroke:none;stroke-width:0.05248376"
       id="path4645" />
    <path
       d="m -177.18859,333.09787 h 0.28292 q 0.21117,0 0.3434,0.10559 0.13326,0.10455 0.13326,0.26857 0,0.1312 -0.0861,0.23166 -0.0861,0.10046 -0.26856,0.14146 l 0.3803,0.55867 h -0.20399 l -0.36288,-0.53714 h -0.04 v 0.53714 h -0.17836 z m 0.17836,0.15786 v 0.45514 q 0.39466,0.008 0.39466,-0.22859 0,-0.083 -0.0461,-0.13531 -0.0461,-0.0533 -0.12301,-0.0718 -0.0769,-0.0195 -0.22552,-0.0195 z"
       style="font-style:normal;font-variant:normal;font-weight:normal;font-stretch:normal;font-size:medium;line-height:1.25;font-family:'Tw Cen MT';-inkscape-font-specification:'Tw Cen MT';letter-spacing:0px;word-spacing:0px;fill:#f9b233;fill-opacity:1;stroke:none;stroke-width:0.05248376"
       id="path4647" />
    <path
       d="m -176.27962,333.09787 h 0.79854 v 0.17837 h -0.31163 v 1.12758 h -0.17631 v -1.12758 h -0.3106 z"
       style="font-style:normal;font-variant:normal;font-weight:normal;font-stretch:normal;font-size:medium;line-height:1.25;font-family:'Tw Cen MT';-inkscape-font-specification:'Tw Cen MT';letter-spacing:0px;word-spacing:0px;fill:#f9b233;fill-opacity:1;stroke:none;stroke-width:0.05248376"
       id="path4649" />
    <path
       d="m -174.95214,333.74264 q 0,-0.28292 0.21321,-0.48486 0.21322,-0.20193 0.51254,-0.20193 0.29215,0 0.50331,0.20399 0.21117,0.20296 0.21117,0.4828 0,0.29625 -0.20912,0.50127 -0.20809,0.20399 -0.51151,0.20399 -0.29932,0 -0.50946,-0.20604 -0.21014,-0.20604 -0.21014,-0.49922 z m 1.25059,0.008 q 0,-0.2163 -0.15581,-0.36391 -0.15581,-0.14863 -0.38338,-0.14863 -0.21629,0 -0.37108,0.15068 -0.15376,0.15069 -0.15376,0.36186 0,0.21424 0.15786,0.36287 0.15889,0.14761 0.38851,0.14761 0.21116,0 0.3639,-0.15068 0.15376,-0.15171 0.15376,-0.3598 z"
       style="font-style:normal;font-variant:normal;font-weight:normal;font-stretch:normal;font-size:medium;line-height:1.25;font-family:'Tw Cen MT';-inkscape-font-specification:'Tw Cen MT';letter-spacing:0px;word-spacing:0px;fill:#f9b233;fill-opacity:1;stroke:none;stroke-width:0.05248376"
       id="path4652" />
    <path
       d="m -173.29255,333.09787 h 0.7237 v 0.17837 h -0.54739 v 0.32597 h 0.54739 v 0.17631 h -0.54534 v 0.6253 h -0.17836 z"
       style="font-style:normal;font-variant:normal;font-weight:normal;font-stretch:normal;font-size:medium;line-height:1.25;font-family:'Tw Cen MT';-inkscape-font-specification:'Tw Cen MT';letter-spacing:0px;word-spacing:0px;fill:#f9b233;fill-opacity:1;stroke:none;stroke-width:0.05248376"
       id="path4654" />
    <path
       d="m -171.82371,333.09787 h 0.28292 q 0.21116,0 0.3434,0.10559 0.13326,0.10455 0.13326,0.26857 0,0.1312 -0.0861,0.23166 -0.0861,0.10046 -0.26857,0.14146 l 0.3803,0.55867 h -0.20399 l -0.36287,-0.53714 h -0.04 v 0.53714 h -0.17836 z m 0.17836,0.15786 v 0.45514 q 0.39465,0.008 0.39465,-0.22859 0,-0.083 -0.0461,-0.13531 -0.0461,-0.0533 -0.123,-0.0718 -0.0769,-0.0195 -0.22552,-0.0195 z"
       style="font-style:normal;font-variant:normal;font-weight:normal;font-stretch:normal;font-size:medium;line-height:1.25;font-family:'Tw Cen MT';-inkscape-font-specification:'Tw Cen MT';letter-spacing:0px;word-spacing:0px;fill:#f9b233;fill-opacity:1;stroke:none;stroke-width:0.05248376"
       id="path4656" />
    <path
       d="m -170.783,333.09787 h 0.72371 v 0.17837 h -0.54739 v 0.32597 h 0.54739 v 0.17631 h -0.54739 v 0.44898 h 0.54739 v 0.17632 h -0.72371 z"
       style="font-style:normal;font-variant:normal;font-weight:normal;font-stretch:normal;font-size:medium;line-height:1.25;font-family:'Tw Cen MT';-inkscape-font-specification:'Tw Cen MT';letter-spacing:0px;word-spacing:0px;fill:#f9b233;fill-opacity:1;stroke:none;stroke-width:0.05248376"
       id="path4658" />
    <path
       d="m -168.62138,333.30596 -0.13224,0.13019 q -0.19989,-0.19579 -0.46231,-0.19579 -0.22961,0 -0.38235,0.14761 -0.15273,0.14761 -0.15273,0.36903 0,0.19373 0.14761,0.34955 0.14863,0.15478 0.409,0.15478 0.39055,0 0.49101,-0.34032 h -0.35263 v -0.17837 h 0.55662 q 0,0.13429 -0.0185,0.21424 -0.0174,0.08 -0.0738,0.17632 -0.0564,0.0963 -0.15068,0.17324 -0.0933,0.0759 -0.20092,0.10865 -0.1066,0.0328 -0.25524,0.0328 -0.33827,0 -0.54021,-0.2122 -0.20092,-0.21321 -0.20092,-0.4869 0,-0.28805 0.20604,-0.48999 0.20604,-0.20296 0.49921,-0.20296 0.17426,0 0.31777,0.0533 0.14454,0.0523 0.29523,0.19681 z"
       style="font-style:normal;font-variant:normal;font-weight:normal;font-stretch:normal;font-size:medium;line-height:1.25;font-family:'Tw Cen MT';-inkscape-font-specification:'Tw Cen MT';letter-spacing:0px;word-spacing:0px;fill:#f9b233;fill-opacity:1;stroke:none;stroke-width:0.05248376"
       id="path4660" />
    <path
       d="m -168.24491,333.09787 h 0.7237 v 0.17837 h -0.54739 v 0.32597 h 0.54739 v 0.17631 h -0.54739 v 0.44898 h 0.54739 v 0.17632 h -0.7237 z"
       style="font-style:normal;font-variant:normal;font-weight:normal;font-stretch:normal;font-size:medium;line-height:1.25;font-family:'Tw Cen MT';-inkscape-font-specification:'Tw Cen MT';letter-spacing:0px;word-spacing:0px;fill:#f9b233;fill-opacity:1;stroke:none;stroke-width:0.05248376"
       id="path4662" />
    <path
       d="m -167.28928,333.04559 0.96562,0.9933 v -0.94102 h 0.17836 v 1.36643 l -0.96562,-0.98817 v 0.92769 h -0.17836 z"
       style="font-style:normal;font-variant:normal;font-weight:normal;font-stretch:normal;font-size:medium;line-height:1.25;font-family:'Tw Cen MT';-inkscape-font-specification:'Tw Cen MT';letter-spacing:0px;word-spacing:0px;fill:#f9b233;fill-opacity:1;stroke:none;stroke-width:0.05248376"
       id="path4664" />
    <path
       d="m -165.69266,333.09787 h 0.7237 v 0.17837 h -0.54738 v 0.32597 h 0.54738 v 0.17631 h -0.54738 v 0.44898 h 0.54738 v 0.17632 h -0.7237 z"
       style="font-style:normal;font-variant:normal;font-weight:normal;font-stretch:normal;font-size:medium;line-height:1.25;font-family:'Tw Cen MT';-inkscape-font-specification:'Tw Cen MT';letter-spacing:0px;word-spacing:0px;fill:#f9b233;fill-opacity:1;stroke:none;stroke-width:0.05248376"
       id="path4666" />
    <path
       d="m -164.73216,333.09787 h 0.28292 q 0.21116,0 0.3434,0.10559 0.13326,0.10455 0.13326,0.26857 0,0.1312 -0.0861,0.23166 -0.0861,0.10046 -0.26857,0.14146 l 0.3803,0.55867 h -0.20399 l -0.36287,-0.53714 h -0.04 v 0.53714 h -0.17836 z m 0.17836,0.15786 v 0.45514 q 0.39465,0.008 0.39465,-0.22859 0,-0.083 -0.0461,-0.13531 -0.0461,-0.0533 -0.123,-0.0718 -0.0769,-0.0195 -0.22552,-0.0195 z"
       style="font-style:normal;font-variant:normal;font-weight:normal;font-stretch:normal;font-size:medium;line-height:1.25;font-family:'Tw Cen MT';-inkscape-font-specification:'Tw Cen MT';letter-spacing:0px;word-spacing:0px;fill:#f9b233;fill-opacity:1;stroke:none;stroke-width:0.05248376"
       id="path4668" />
    <path
       d="m -163.25633,333.04764 0.6171,1.35618 h -0.18657 l -0.15273,-0.33418 h -0.55457 l -0.14863,0.33418 h -0.18554 z m 0,0.40901 -0.21014,0.46436 h 0.42028 z"
       style="font-style:normal;font-variant:normal;font-weight:normal;font-stretch:normal;font-size:medium;line-height:1.25;font-family:'Tw Cen MT';-inkscape-font-specification:'Tw Cen MT';letter-spacing:0px;word-spacing:0px;fill:#f9b233;fill-opacity:1;stroke:none;stroke-width:0.05248376"
       id="path4670" />
    <path
       d="m -162.62359,333.09787 h 0.79853 v 0.17837 h -0.31162 v 1.12758 h -0.17631 v -1.12758 h -0.3106 z"
       style="font-style:normal;font-variant:normal;font-weight:normal;font-stretch:normal;font-size:medium;line-height:1.25;font-family:'Tw Cen MT';-inkscape-font-specification:'Tw Cen MT';letter-spacing:0px;word-spacing:0px;fill:#f9b233;fill-opacity:1;stroke:none;stroke-width:0.05248376"
       id="path4672" />
    <path
       d="m -161.62517,333.09787 h 0.17632 v 1.30595 h -0.17632 z"
       style="font-style:normal;font-variant:normal;font-weight:normal;font-stretch:normal;font-size:medium;line-height:1.25;font-family:'Tw Cen MT';-inkscape-font-specification:'Tw Cen MT';letter-spacing:0px;word-spacing:0px;fill:#f9b233;fill-opacity:1;stroke:none;stroke-width:0.05248376"
       id="path4674" />
    <path
       d="m -161.21821,333.74264 q 0,-0.28292 0.21321,-0.48486 0.21322,-0.20193 0.51254,-0.20193 0.29215,0 0.50331,0.20399 0.21117,0.20296 0.21117,0.4828 0,0.29625 -0.20912,0.50127 -0.20809,0.20399 -0.51151,0.20399 -0.29932,0 -0.50946,-0.20604 -0.21014,-0.20604 -0.21014,-0.49922 z m 1.25059,0.008 q 0,-0.2163 -0.15581,-0.36391 -0.15581,-0.14863 -0.38338,-0.14863 -0.21629,0 -0.37108,0.15068 -0.15376,0.15069 -0.15376,0.36186 0,0.21424 0.15786,0.36287 0.15889,0.14761 0.38851,0.14761 0.21116,0 0.3639,-0.15068 0.15376,-0.15171 0.15376,-0.3598 z"
       style="font-style:normal;font-variant:normal;font-weight:normal;font-stretch:normal;font-size:medium;line-height:1.25;font-family:'Tw Cen MT';-inkscape-font-specification:'Tw Cen MT';letter-spacing:0px;word-spacing:0px;fill:#f9b233;fill-opacity:1;stroke:none;stroke-width:0.05248376"
       id="path4676" />
    <path
       d="m -159.52145,333.04559 0.96562,0.9933 v -0.94102 h 0.17836 v 1.36643 l -0.96562,-0.98817 v 0.92769 h -0.17836 z"
       style="font-style:normal;font-variant:normal;font-weight:normal;font-stretch:normal;font-size:medium;line-height:1.25;font-family:'Tw Cen MT';-inkscape-font-specification:'Tw Cen MT';letter-spacing:0px;word-spacing:0px;fill:#f9b233;fill-opacity:1;stroke:none;stroke-width:0.05248376"
       id="path4678" />
  </g>
</svg>
