<?xml version="1.0" encoding="UTF-8" standalone="no"?>
<svg
   xmlns:dc="http://purl.org/dc/elements/1.1/"
   xmlns:cc="http://creativecommons.org/ns#"
   xmlns:rdf="http://www.w3.org/1999/02/22-rdf-syntax-ns#"
   xmlns:svg="http://www.w3.org/2000/svg"
   xmlns="http://www.w3.org/2000/svg"
   id="svg11660"
   version="1.1"
   viewBox="0 0 49.415768 5.8434463"
   height="5.8434463mm"
   width="49.415768mm">
  <defs
     id="defs11654">
    <clipPath
       id="clipPath6793"
       clipPathUnits="userSpaceOnUse">
      <path
         id="path6791"
         d="M 114.332,152.852 H 274.96 v 18.994 H 114.332 Z" />
    </clipPath>
  </defs>
  <metadata
     id="metadata11657">
    <rdf:RDF>
      <cc:Work
         rdf:about="">
        <dc:format>image/svg+xml</dc:format>
        <dc:type
           rdf:resource="http://purl.org/dc/dcmitype/StillImage" />
        <dc:title></dc:title>
      </cc:Work>
    </rdf:RDF>
  </metadata>
  <g
     transform="translate(147.17217,-118.69732)"
     id="layer1">
    <g
       id="g6787"
       transform="matrix(0.35277777,0,0,-0.35277777,-187.50642,179.32077)">
      <g
         clip-path="url(#clipPath6793)"
         id="g6789">
        <g
           transform="translate(210.415,161.2282)"
           id="g6795">
          <path
             id="path6797"
             style="fill:#ed192e;fill-opacity:1;fill-rule:nonzero;stroke:none"
             d="m 0,0 c 1.984,0 3.021,0.903 3.021,2.354 0,1.303 -0.889,2.044 -2.281,2.044 -2.62,0 -3.968,-2.28 -3.968,-4.412 0,-1.763 1.096,-2.933 2.68,-2.933 0.578,0 1.732,0.207 2.384,0.43 v 1.421 C 0.919,-1.273 0.518,-1.333 0,-1.333 c -0.859,0 -1.17,0.667 -1.17,1.333 z m -0.948,1.155 c 0.163,0.933 0.83,1.569 1.318,1.569 0.282,0 0.518,-0.133 0.518,-0.518 0,-0.503 -0.503,-1.051 -1.213,-1.051 z m -6.915,0.548 c 0.356,0.385 1.007,0.725 1.377,0.725 0.474,0 0.637,-0.444 0.637,-0.814 0,-0.918 -0.695,-2.947 -1.925,-2.947 -0.192,0 -0.711,0.074 -0.711,0.074 z m 0.815,4.398 v 1.762 h -3.303 V 6.101 h 1.215 l -1.688,-8.9 h 1.066 c 0.578,0 1.214,-0.148 1.94,-0.148 2.547,0 4.027,2.725 4.027,4.916 0,1.673 -0.695,2.429 -1.555,2.429 -0.902,0 -1.776,-0.622 -2.25,-1.052 z" />
        </g>
        <g
           transform="translate(222.6325,155.8507)"
           id="g6799">
          <path
             id="path6801"
             style="fill:#ed192e;fill-opacity:1;fill-rule:nonzero;stroke:none"
             d="M 0,0 H 1.253 V 5.65 H 2.648 V 0 h 1.25 V 5.65 H 5.273 V 0 H 6.525 V 2.553 H 31.777 V 13.271 H 2.648 V 8.162 H 6.525 V 6.869 H 0 Z" />
        </g>
        <path
           id="path6803"
           style="fill:#ed192e;fill-opacity:1;fill-rule:nonzero;stroke:none"
           d="m 214.736,161.526 h 1.25 v -5.675 h -1.25 z" />
        <path
           id="path6805"
           style="fill:#ed192e;fill-opacity:1;fill-rule:nonzero;stroke:none"
           d="m 217.373,161.526 h 1.25 v -5.675 h -1.25 z" />
        <path
           id="path6807"
           style="fill:#ed192e;fill-opacity:1;fill-rule:nonzero;stroke:none"
           d="m 220.009,161.526 h 1.25 v -5.675 h -1.25 z" />
        <path
           id="path6809"
           style="fill:#ed192e;fill-opacity:1;fill-rule:nonzero;stroke:none"
           d="m 214.736,164.013 h 7.899 v -1.292 h -7.899 z" />
        <g
           transform="translate(221.0453,165.6701)"
           id="g6811">
          <path
             id="path6813"
             style="fill:#ed192e;fill-opacity:1;fill-rule:nonzero;stroke:none"
             d="M 0,0 C 0,0.506 0.411,0.917 0.917,0.917 1.424,0.917 1.834,0.506 1.834,0 1.834,-0.506 1.424,-0.917 0.917,-0.917 0.411,-0.917 0,-0.506 0,0" />
        </g>
        <g
           transform="translate(247.93,160.88)"
           id="g6815">
          <path
             id="path6817"
             style="fill:#ffffff;fill-opacity:1;fill-rule:nonzero;stroke:none"
             d="m 0,0 h 0.76 v 1.84 c 0,0 -0.032,0.347 0.095,0.714 0.121,0.355 0.4,0.758 0.963,0.792 0.66,0.04 0.62,-0.688 0.62,-0.688 V 0 h 0.766 v 2.742 c 0,0 0.063,1.094 -0.959,1.136 C 1.003,3.929 0.76,3.146 0.76,3.146 v 0.69 c 0,0 -0.267,0.01 -0.696,-0.014 C -0.345,3.799 -0.641,3.771 -0.641,3.771 V 3.364 L 0,3.289 Z m -2.537,3.284 -0.657,0.088 v 0.407 c 0.256,0.023 0.383,0.033 0.657,0.044 0.331,0.013 0.58,0.023 0.745,0.013 V 0.527 L -1.104,0.422 V 0 h -2.09 v 0.422 l 0.657,0.105 z m -0.167,1.639 c 0,0.284 0.23,0.514 0.514,0.514 0.282,0 0.512,-0.23 0.512,-0.514 0,-0.284 -0.23,-0.513 -0.512,-0.513 -0.284,0 -0.514,0.229 -0.514,0.513 m -2.464,0.191 c 0,0 -0.185,0.029 -0.303,0.043 -0.132,0.017 -0.338,0.034 -0.338,0.034 v 0.396 c 0,0 0.467,0.031 0.766,0.037 0.252,0.005 0.646,0 0.646,0 V 0.527 L -3.751,0.422 V 0 h -2.058 v 0.422 l 0.641,0.105 z M -11.4,1.928 h 2.475 c 0,0 0.245,2.033 -1.505,1.991 -1.553,-0.036 -1.715,-1.427 -1.725,-2.012 -0.009,-0.476 0.1,-1.295 0.72,-1.712 0.255,-0.171 0.772,-0.291 1.281,-0.268 0.457,0.021 1.062,0.245 1.062,0.245 v 0.589 c 0,0 -0.492,-0.223 -1.152,-0.234 -1.291,-0.022 -1.156,1.401 -1.156,1.401 m 0.954,1.478 C -9.594,3.379 -9.68,2.499 -9.68,2.499 h -1.668 c 0,0 0.084,0.933 0.902,0.907 m 3.309,-0.32 v 0.75 c 0,0 -0.446,0 -0.73,-0.011 C -8.117,3.817 -8.508,3.789 -8.508,3.789 V 3.378 L -7.867,3.294 V 0 h 0.75 v 1.741 c 0,0 -0.031,0.826 0.354,1.238 0.271,0.289 0.839,0.174 0.839,0.174 v 0.725 c 0,0 -0.456,0.06 -0.797,-0.149 C -7.044,3.532 -7.137,3.086 -7.137,3.086 m -9.405,1.801 c -0.183,0.025 -0.298,0.059 -0.298,0.059 v 0.435 c 0,0 0.35,-0.007 0.751,-0.012 0.401,-0.006 0.75,0.026 1.24,0.026 0.908,0 1.9,-0.125 1.948,-1.272 0.042,-0.99 -0.948,-1.277 -0.948,-1.277 0,0 1.105,-0.151 1.068,-1.319 C -12.832,-0.11 -14.86,0 -14.86,0 h -1.98 v 0.422 l 0.652,0.125 v 4.296 c 0,0 -0.12,0.01 -0.354,0.044 m 1.145,-2.391 V 0.615 c 0,0 0.398,-0.014 0.652,-0.002 0.745,0.031 1.189,0.389 1.157,0.98 -0.032,0.578 -0.44,0.841 -1.063,0.896 -0.288,0.025 -0.746,0.007 -0.746,0.007 m 0,2.289 v -1.72 c 0,0 0.296,0 0.509,0.005 0.619,0.016 1.179,0.219 1.201,0.923 0.016,0.5 -0.373,0.75 -0.758,0.776 -0.37,0.025 -0.952,0.016 -0.952,0.016" />
        </g>
        <path
           id="path6819"
           style="fill:#ed192e;fill-opacity:1;fill-rule:nonzero;stroke:none"
           d="m 193.723,155.851 h -0.33 v 15.574 h 0.33 z" />
        <g
           transform="translate(141.1204,159.2769)"
           id="g6821">
          <path
             id="path6823"
             style="fill:#ed192e;fill-opacity:1;fill-rule:nonzero;stroke:none"
             d="M 0,0 H -0.404 L -1.389,-1.596 V 0 h -0.333 v -3.076 h 0.333 v 1.072 l 0.352,0.505 c 0,0 0.294,-0.281 0.413,-0.633 l 0.316,-0.944 h 0.37 l -0.378,1.042 c -0.167,0.456 -0.558,0.772 -0.558,0.772 z m 0.612,-0.879 v -1.622 c 0,-0.277 0.087,-0.615 0.592,-0.615 0.361,0 0.766,0.259 0.766,0.259 l 0.044,-0.219 h 0.241 v 2.197 H 1.939 v -1.745 c 0,0 -0.365,-0.224 -0.669,-0.224 -0.29,0 -0.343,0.163 -0.343,0.449 v 1.52 z M 3.345,0.263 H 3.029 v -3.34 h 0.316 z m 1.793,-3.081 c 0,0 -0.127,-0.026 -0.224,-0.026 -0.339,0 -0.387,0.158 -0.387,0.51 v 1.187 h 0.545 v 0.268 H 4.527 V 0 H 4.211 V -0.879 H 3.846 v -0.268 h 0.365 v -1.236 c 0,-0.496 0.172,-0.733 0.65,-0.733 0.128,0 0.277,0.027 0.277,0.027 z m 0.431,1.939 v -1.622 c 0,-0.277 0.088,-0.615 0.593,-0.615 0.36,0 0.765,0.259 0.765,0.259 l 0.044,-0.219 h 0.241 v 2.197 H 6.897 v -1.745 c 0,0 -0.366,-0.224 -0.669,-0.224 -0.29,0 -0.343,0.163 -0.343,0.449 v 1.52 z M 9.071,-0.84 C 8.672,-0.818 8.272,-1.098 8.272,-1.098 L 8.228,-0.879 H 7.986 v -2.197 h 0.317 v 1.744 c 0,0 0.404,0.242 0.768,0.203 z m 1.943,-1.854 c 0,0 -0.369,-0.146 -0.672,-0.146 -0.426,0 -0.546,0.295 -0.577,0.704 h 0.432 c 0.409,0 0.856,0.119 0.856,0.69 0,0.4 -0.263,0.611 -0.685,0.611 -0.537,0 -0.923,-0.391 -0.923,-1.182 0,-0.682 0.268,-1.094 0.84,-1.094 0.4,0 0.729,0.135 0.729,0.135 z m -1.253,0.817 c 0.013,0.427 0.22,0.774 0.607,0.774 0.238,0 0.369,-0.136 0.369,-0.37 0,-0.241 -0.171,-0.404 -0.54,-0.404 z m 2.18,2.14 h -0.316 v -3.34 h 0.316 z m 1.051,0 h -0.316 v -3.34 h 0.316 z m 2.149,-2.957 c 0,0 -0.369,-0.146 -0.672,-0.146 -0.427,0 -0.545,0.295 -0.576,0.704 h 0.431 c 0.409,0 0.856,0.119 0.856,0.69 0,0.4 -0.263,0.611 -0.685,0.611 -0.536,0 -0.923,-0.391 -0.923,-1.182 0,-0.682 0.268,-1.094 0.84,-1.094 0.4,0 0.729,0.135 0.729,0.135 z m -1.253,0.817 c 0.013,0.427 0.22,0.774 0.607,0.774 0.238,0 0.37,-0.136 0.37,-0.37 0,-0.241 -0.172,-0.404 -0.541,-0.404 z m 4.449,-1.199 h 0.36 l -0.4,1.845 C 18.231,-0.906 17.84,0 17.84,0 h -0.382 c 0,0 -0.387,-0.897 -0.457,-1.231 l -0.4,-1.845 h 0.347 l 0.145,0.747 h 1.099 z m -0.695,2.803 c 0,0 0.29,-0.725 0.334,-0.958 L 18.135,-2.04 H 17.15 l 0.158,0.809 c 0.049,0.251 0.334,0.958 0.334,0.958 m 3.204,-2.803 v 1.621 c 0,0.277 -0.088,0.615 -0.593,0.615 -0.361,0 -0.765,-0.258 -0.765,-0.258 l -0.044,0.219 h -0.241 v -2.197 h 0.315 v 1.744 c 0,0 0.365,0.225 0.669,0.225 0.29,0 0.343,-0.163 0.343,-0.448 v -1.521 z m 0.923,1.411 c 0,0.395 0.259,0.571 0.496,0.571 0.401,0 0.59,-0.264 0.59,-0.264 v -0.307 c 0,-0.392 -0.242,-0.581 -0.546,-0.581 -0.303,0 -0.54,0.189 -0.54,0.581 m 0.066,-1.433 c 0,0 0.088,-0.022 0.189,-0.022 h 0.554 c 0.246,0 0.457,-0.04 0.457,-0.291 0,-0.246 -0.316,-0.36 -0.713,-0.36 -0.399,0 -0.681,0.083 -0.681,0.338 0,0.207 0.194,0.335 0.194,0.335 m -0.492,-0.37 c 0,-0.351 0.276,-0.527 0.949,-0.527 0.677,0 1.042,0.246 1.042,0.615 0,0.361 -0.233,0.519 -0.677,0.519 h -0.55 c -0.228,0 -0.312,0.074 -0.312,0.193 0,0.119 0.11,0.181 0.321,0.181 h 0.193 c 0.454,0 0.853,0.258 0.853,0.848 v 0.76 h -0.237 l -0.044,-0.219 c 0,0 -0.246,0.258 -0.668,0.258 -0.347,0 -0.756,-0.272 -0.756,-0.847 0,-0.511 0.365,-0.656 0.365,-0.656 0,0 -0.325,-0.052 -0.325,-0.373 0,-0.203 0.144,-0.286 0.144,-0.286 0,0 -0.298,-0.153 -0.298,-0.466 m 3.885,0.774 c 0,0 -0.369,-0.146 -0.672,-0.146 -0.427,0 -0.546,0.295 -0.576,0.704 h 0.43 c 0.41,0 0.857,0.119 0.857,0.69 0,0.4 -0.263,0.611 -0.685,0.611 -0.537,0 -0.923,-0.391 -0.923,-1.182 0,-0.682 0.268,-1.094 0.839,-1.094 0.401,0 0.73,0.135 0.73,0.135 z m -1.253,0.817 c 0.013,0.427 0.22,0.774 0.607,0.774 0.238,0 0.369,-0.136 0.369,-0.37 0,-0.241 -0.171,-0.404 -0.541,-0.404 z m 2.18,2.14 h -0.316 v -3.34 h 0.316 z m 2.149,-2.957 c 0,0 -0.368,-0.146 -0.672,-0.146 -0.426,0 -0.545,0.295 -0.576,0.704 h 0.431 c 0.409,0 0.857,0.119 0.857,0.69 0,0.4 -0.264,0.611 -0.686,0.611 -0.536,0 -0.922,-0.391 -0.922,-1.182 0,-0.682 0.267,-1.094 0.839,-1.094 0.4,0 0.729,0.135 0.729,0.135 z m -1.252,0.817 c 0.013,0.427 0.22,0.774 0.606,0.774 0.238,0 0.37,-0.136 0.37,-0.37 0,-0.241 -0.171,-0.404 -0.541,-0.404 z m 2.061,0.212 c 0,0.395 0.259,0.571 0.497,0.571 0.4,0 0.59,-0.264 0.59,-0.264 v -0.307 c 0,-0.392 -0.243,-0.581 -0.546,-0.581 -0.303,0 -0.541,0.189 -0.541,0.581 m 0.066,-1.433 c 0,0 0.088,-0.022 0.189,-0.022 h 0.554 c 0.246,0 0.457,-0.04 0.457,-0.291 0,-0.246 -0.316,-0.36 -0.712,-0.36 -0.4,0 -0.681,0.083 -0.681,0.338 0,0.207 0.193,0.335 0.193,0.335 m -0.491,-0.37 c 0,-0.351 0.276,-0.527 0.948,-0.527 0.678,0 1.042,0.246 1.042,0.615 0,0.361 -0.233,0.519 -0.677,0.519 h -0.55 c -0.228,0 -0.312,0.074 -0.312,0.193 0,0.119 0.111,0.181 0.321,0.181 h 0.194 c 0.453,0 0.852,0.258 0.852,0.848 v 0.76 h -0.237 l -0.044,-0.219 c 0,0 -0.246,0.258 -0.668,0.258 -0.347,0 -0.756,-0.272 -0.756,-0.847 0,-0.511 0.365,-0.656 0.365,-0.656 0,0 -0.326,-0.052 -0.326,-0.373 0,-0.203 0.146,-0.286 0.146,-0.286 0,0 -0.298,-0.153 -0.298,-0.466 m 3.884,0.774 c 0,0 -0.368,-0.146 -0.673,-0.146 -0.426,0 -0.544,0.295 -0.575,0.704 h 0.431 c 0.409,0 0.856,0.119 0.856,0.69 0,0.4 -0.263,0.611 -0.685,0.611 -0.536,0 -0.923,-0.391 -0.923,-1.182 0,-0.682 0.268,-1.094 0.839,-1.094 0.401,0 0.73,0.135 0.73,0.135 z m -1.252,0.817 c 0.013,0.427 0.22,0.774 0.606,0.774 0.238,0 0.37,-0.136 0.37,-0.37 0,-0.241 -0.172,-0.404 -0.541,-0.404 z m 3.507,-1.199 v 1.621 c 0,0.277 -0.088,0.615 -0.594,0.615 -0.36,0 -0.764,-0.258 -0.764,-0.258 l -0.044,0.219 h -0.242 v -2.197 h 0.316 v 1.744 c 0,0 0.365,0.225 0.668,0.225 0.292,0 0.344,-0.163 0.344,-0.448 v -1.521 z m 2.368,0 v 1.621 c 0,0.277 -0.087,0.615 -0.593,0.615 -0.36,0 -0.756,-0.254 -0.756,-0.254 l 0.022,0.263 v 1.094 h -0.316 v -3.339 h 0.316 v 1.744 c 0,0 0.365,0.225 0.668,0.225 0.291,0 0.343,-0.163 0.343,-0.448 v -1.521 z m 2.141,0.382 c 0,0 -0.369,-0.146 -0.672,-0.146 -0.427,0 -0.545,0.295 -0.577,0.704 h 0.432 c 0.408,0 0.856,0.119 0.856,0.69 0,0.4 -0.263,0.611 -0.684,0.611 -0.537,0 -0.924,-0.391 -0.924,-1.182 0,-0.682 0.268,-1.094 0.839,-1.094 0.4,0 0.73,0.135 0.73,0.135 z m -1.253,0.817 c 0.014,0.427 0.221,0.774 0.608,0.774 0.236,0 0.369,-0.136 0.369,-0.37 0,-0.241 -0.172,-0.404 -0.541,-0.404 z m 2.18,0.998 h -0.316 v -2.198 h 0.316 z m -0.408,0.699 c 0,-0.145 0.114,-0.259 0.259,-0.259 0.146,0 0.259,0.114 0.259,0.259 0,0.145 -0.113,0.259 -0.259,0.259 -0.145,0 -0.259,-0.114 -0.259,-0.259 m 2.202,-2.638 c 0,0 -0.128,-0.026 -0.225,-0.026 -0.338,0 -0.386,0.158 -0.386,0.51 v 1.187 h 0.544 v 0.268 H 41.446 V 0 H 41.13 v -0.879 h -0.365 v -0.268 h 0.365 v -1.236 c 0,-0.496 0.171,-0.733 0.65,-0.733 0.127,0 0.277,0.027 0.277,0.027 z m 1.858,0.124 c 0,0 -0.368,-0.146 -0.672,-0.146 -0.427,0 -0.545,0.295 -0.576,0.704 h 0.432 c 0.408,0 0.856,0.119 0.856,0.69 0,0.4 -0.263,0.611 -0.685,0.611 -0.536,0 -0.923,-0.391 -0.923,-1.182 0,-0.682 0.267,-1.094 0.839,-1.094 0.401,0 0.729,0.135 0.729,0.135 z m -1.252,0.817 c 0.013,0.427 0.22,0.774 0.607,0.774 0.237,0 0.369,-0.136 0.369,-0.37 0,-0.241 -0.171,-0.404 -0.54,-0.404 z m 3.508,-1.199 v 1.621 c 0,0.277 -0.088,0.615 -0.594,0.615 -0.36,0 -0.765,-0.258 -0.765,-0.258 l -0.044,0.219 h -0.241 v -2.197 h 0.316 v 1.744 c 0,0 0.365,0.225 0.669,0.225 0.289,0 0.342,-0.163 0.342,-0.448 v -1.521 z" />
        </g>
        <g
           transform="translate(164.3133,166.507)"
           id="g6825">
          <path
             id="path6827"
             style="fill:#ed192e;fill-opacity:1;fill-rule:nonzero;stroke:none"
             d="m 0,0 c 0,0 -0.373,0.066 -0.624,0.066 -0.585,0 -0.901,-0.351 -0.901,-0.787 0,-0.44 0.272,-0.672 0.448,-0.765 l 0.418,-0.22 c 0.18,-0.096 0.427,-0.232 0.427,-0.549 0,-0.334 -0.211,-0.545 -0.616,-0.545 -0.326,0 -0.694,0.119 -0.694,0.119 v -0.308 c 0,0 0.355,-0.109 0.685,-0.109 0.673,0 0.962,0.355 0.962,0.861 0,0.475 -0.32,0.681 -0.518,0.782 l -0.435,0.224 c -0.163,0.084 -0.352,0.215 -0.352,0.524 0,0.277 0.224,0.483 0.567,0.483 0.247,0 0.633,-0.074 0.633,-0.074 z m 2.224,-2.672 c 0,0 -0.369,-0.145 -0.673,-0.145 -0.426,0 -0.544,0.294 -0.575,0.703 h 0.431 c 0.409,0 0.857,0.118 0.857,0.69 0,0.4 -0.264,0.611 -0.686,0.611 -0.536,0 -0.923,-0.391 -0.923,-1.183 0,-0.681 0.268,-1.093 0.839,-1.093 0.401,0 0.73,0.135 0.73,0.135 z m -1.253,0.817 c 0.014,0.426 0.22,0.774 0.607,0.774 0.238,0 0.37,-0.136 0.37,-0.37 0,-0.241 -0.172,-0.404 -0.541,-0.404 z m 3.508,-1.199 v 1.621 c 0,0.277 -0.088,0.615 -0.594,0.615 -0.36,0 -0.764,-0.258 -0.764,-0.258 L 3.077,-0.857 H 2.836 v -2.197 h 0.315 v 1.744 c 0,0 0.365,0.225 0.669,0.225 0.29,0 0.343,-0.163 0.343,-0.448 v -1.521 z m 0.76,1.824 c 0,0 0.452,0.145 0.756,0.145 0.321,0 0.414,-0.097 0.414,-0.396 v -0.255 h -0.52 c -0.448,0 -0.769,-0.259 -0.769,-0.708 0,-0.351 0.194,-0.65 0.633,-0.65 0.299,0 0.686,0.259 0.686,0.259 l 0.044,-0.219 h 0.241 v 1.652 c 0,0.452 -0.206,0.584 -0.663,0.584 -0.427,0 -0.822,-0.132 -0.822,-0.132 z m 0.198,-1.187 c 0,0.286 0.21,0.431 0.488,0.431 h 0.484 v -0.611 c 0,0 -0.362,-0.225 -0.598,-0.225 -0.238,0 -0.374,0.159 -0.374,0.405 m 3.071,-0.378 c 0,0 -0.127,-0.027 -0.223,-0.027 -0.338,0 -0.387,0.158 -0.387,0.51 v 1.187 h 0.545 v 0.268 H 7.898 V 0.022 H 7.581 V -0.857 H 7.217 V -1.125 H 7.581 V -2.36 c 0,-0.497 0.172,-0.734 0.651,-0.734 0.127,0 0.276,0.027 0.276,0.027 z m 1.654,1.92 c 0,0 -0.269,0.057 -0.528,0.057 -0.576,0 -0.756,-0.263 -0.756,-0.566 0,-0.344 0.22,-0.519 0.426,-0.594 L 9.612,-2.083 C 9.814,-2.154 9.95,-2.251 9.95,-2.474 9.95,-2.642 9.885,-2.817 9.537,-2.817 9.251,-2.817 8.9,-2.712 8.9,-2.712 v -0.299 c 0,0 0.316,-0.083 0.62,-0.083 0.624,0 0.747,0.325 0.747,0.632 0,0.396 -0.25,0.559 -0.479,0.638 L 9.467,-1.71 c -0.154,0.057 -0.282,0.149 -0.282,0.343 0,0.145 0.092,0.291 0.423,0.291 0.255,0 0.554,-0.062 0.554,-0.062 z m 2.294,-2.179 -0.317,0.874 c -0.119,0.33 -0.431,0.567 -0.431,0.567 l 0.673,0.756 h -0.396 l -0.817,-1.037 v 2.179 h -0.316 v -3.339 h 0.316 v 0.83 l 0.36,0.4 c 0,0 0.224,-0.158 0.321,-0.452 l 0.259,-0.778 z m 0.567,1.824 c 0,0 0.452,0.145 0.756,0.145 0.321,0 0.413,-0.097 0.413,-0.396 v -0.255 h -0.518 c -0.45,0 -0.77,-0.259 -0.77,-0.708 0,-0.351 0.193,-0.65 0.633,-0.65 0.299,0 0.686,0.259 0.686,0.259 l 0.043,-0.219 h 0.242 v 1.652 c 0,0.452 -0.206,0.584 -0.663,0.584 -0.427,0 -0.822,-0.132 -0.822,-0.132 z m 0.197,-1.187 c 0,0.286 0.211,0.431 0.489,0.431 h 0.483 v -0.611 c 0,0 -0.361,-0.225 -0.598,-0.225 -0.237,0 -0.374,0.159 -0.374,0.405 m 3.657,-0.637 v 1.621 c 0,0.277 -0.088,0.615 -0.593,0.615 -0.36,0 -0.765,-0.258 -0.765,-0.258 l -0.044,0.219 h -0.241 v -2.197 h 0.315 v 1.744 c 0,0 0.366,0.225 0.669,0.225 0.29,0 0.343,-0.163 0.343,-0.448 v -1.521 z m 2.115,0 v 0.28 h -1.174 l 1.134,1.658 v 0.259 h -1.437 v -0.277 h 1.081 l -1.134,-1.661 v -0.259 z m 0.9,3.339 h -0.316 v -3.34 h 0.316 z m 2.149,-2.957 c 0,0 -0.368,-0.145 -0.672,-0.145 -0.426,0 -0.545,0.294 -0.576,0.703 h 0.43 c 0.41,0 0.857,0.118 0.857,0.69 0,0.4 -0.262,0.611 -0.684,0.611 -0.537,0 -0.923,-0.391 -0.923,-1.183 0,-0.681 0.267,-1.093 0.839,-1.093 0.4,0 0.729,0.135 0.729,0.135 z m -1.252,0.817 c 0.012,0.426 0.22,0.774 0.607,0.774 0.237,0 0.369,-0.136 0.369,-0.37 0,-0.241 -0.172,-0.404 -0.542,-0.404 z m 2.18,0.998 h -0.316 v -2.198 h 0.316 z m -0.409,0.699 c 0,-0.145 0.115,-0.259 0.259,-0.259 0.145,0 0.259,0.114 0.259,0.259 0,0.145 -0.114,0.259 -0.259,0.259 -0.144,0 -0.259,-0.114 -0.259,-0.259" />
        </g>
        <g
           transform="translate(116.3673,170.1065)"
           id="g6829">
          <path
             id="path6831"
             style="fill:#ed192e;fill-opacity:1;fill-rule:nonzero;stroke:none"
             d="M 0,0 C 0,1.195 -0.575,1.477 -1.257,1.477 H -2.034 V -1.6 h 0.777 C -0.575,-1.6 0,-1.125 0,0 m -1.292,1.187 c 0.541,0 0.95,-0.246 0.95,-1.248 0,-0.84 -0.409,-1.249 -0.946,-1.249 h -0.413 v 2.497 z m 3.309,-2.404 c 0,0 -0.368,-0.146 -0.672,-0.146 -0.426,0 -0.545,0.295 -0.576,0.704 H 1.2 c 0.409,0 0.857,0.119 0.857,0.69 0,0.4 -0.263,0.61 -0.685,0.61 -0.537,0 -0.923,-0.39 -0.923,-1.181 0,-0.682 0.267,-1.095 0.839,-1.095 0.4,0 0.729,0.136 0.729,0.136 z M 0.765,-0.4 c 0.013,0.426 0.22,0.774 0.607,0.774 0.237,0 0.369,-0.136 0.369,-0.37 C 1.741,-0.237 1.57,-0.4 1.2,-0.4 Z m 2.949,1.037 c -0.4,0.022 -0.8,-0.259 -0.8,-0.259 L 2.871,0.598 H 2.629 V -1.6 h 0.316 v 1.745 c 0,0 0.404,0.242 0.769,0.202 z M 7.16,-1.6 6.918,-0.796 c -0.127,0.431 -0.276,0.559 -0.496,0.647 v 0.004 c 0.43,0.119 0.632,0.422 0.632,0.818 0,0.637 -0.474,0.804 -1.024,0.804 H 5.319 V -1.6 h 0.333 v 1.354 h 0.334 c 0.29,0 0.462,-0.136 0.581,-0.541 L 6.804,-1.6 Z M 5.99,1.204 C 6.404,1.204 6.716,1.09 6.716,0.62 6.716,0.229 6.368,0.022 5.99,0.022 H 5.652 v 1.182 z m 3.191,-2.421 c 0,0 -0.368,-0.146 -0.672,-0.146 -0.426,0 -0.545,0.295 -0.576,0.704 h 0.431 c 0.409,0 0.857,0.119 0.857,0.69 0,0.4 -0.263,0.61 -0.686,0.61 -0.536,0 -0.922,-0.39 -0.922,-1.181 0,-0.682 0.267,-1.095 0.839,-1.095 0.4,0 0.729,0.136 0.729,0.136 z M 7.929,-0.4 c 0.013,0.426 0.22,0.774 0.606,0.774 0.238,0 0.37,-0.136 0.37,-0.37 0,-0.241 -0.171,-0.404 -0.541,-0.404 z m 2.061,0.211 c 0,0.396 0.259,0.572 0.497,0.572 0.4,0 0.589,-0.264 0.589,-0.264 v -0.308 c 0,-0.391 -0.242,-0.58 -0.545,-0.58 -0.304,0 -0.541,0.189 -0.541,0.58 m 0.066,-1.433 c 0,0 0.088,-0.022 0.189,-0.022 h 0.554 c 0.247,0 0.457,-0.039 0.457,-0.29 0,-0.246 -0.316,-0.36 -0.712,-0.36 -0.4,0 -0.681,0.084 -0.681,0.338 0,0.207 0.193,0.334 0.193,0.334 M 9.564,-1.991 c 0,-0.351 0.277,-0.527 0.949,-0.527 0.677,0 1.042,0.246 1.042,0.615 0,0.361 -0.233,0.519 -0.677,0.519 h -0.549 c -0.229,0 -0.312,0.074 -0.312,0.193 0,0.119 0.109,0.18 0.32,0.18 h 0.194 c 0.453,0 0.852,0.259 0.852,0.848 v 0.761 h -0.237 l -0.043,-0.22 c 0,0 -0.247,0.259 -0.669,0.259 -0.347,0 -0.756,-0.272 -0.756,-0.848 0,-0.51 0.365,-0.655 0.365,-0.655 0,0 -0.325,-0.053 -0.325,-0.373 0,-0.203 0.145,-0.286 0.145,-0.286 0,0 -0.299,-0.154 -0.299,-0.466 M 12.35,0.598 H 12.034 V -1.6 h 0.316 z m -0.408,0.699 c 0,-0.145 0.114,-0.259 0.259,-0.259 0.145,0 0.259,0.114 0.259,0.259 0,0.145 -0.114,0.258 -0.259,0.258 -0.145,0 -0.259,-0.113 -0.259,-0.258 M 14.5,-1.217 c 0,0 -0.369,-0.146 -0.673,-0.146 -0.426,0 -0.545,0.295 -0.576,0.704 h 0.431 c 0.409,0 0.857,0.119 0.857,0.69 0,0.4 -0.264,0.61 -0.686,0.61 -0.536,0 -0.922,-0.39 -0.922,-1.181 0,-0.682 0.268,-1.095 0.839,-1.095 0.401,0 0.73,0.136 0.73,0.136 z M 13.247,-0.4 c 0.013,0.426 0.22,0.774 0.606,0.774 0.238,0 0.37,-0.136 0.37,-0.37 0,-0.241 -0.172,-0.404 -0.541,-0.404 z m 2.949,1.037 c -0.4,0.022 -0.8,-0.259 -0.8,-0.259 l -0.044,0.22 H 15.111 V -1.6 h 0.316 v 1.745 c 0,0 0.404,0.242 0.769,0.202 z m 1.943,-1.854 c 0,0 -0.369,-0.146 -0.673,-0.146 -0.426,0 -0.545,0.295 -0.576,0.704 h 0.431 c 0.409,0 0.857,0.119 0.857,0.69 0,0.4 -0.263,0.61 -0.685,0.61 -0.537,0 -0.923,-0.39 -0.923,-1.181 0,-0.682 0.268,-1.095 0.839,-1.095 0.4,0 0.73,0.136 0.73,0.136 z M 16.886,-0.4 c 0.013,0.426 0.22,0.774 0.607,0.774 0.237,0 0.369,-0.136 0.369,-0.37 0,-0.241 -0.172,-0.404 -0.541,-0.404 z m 3.507,-1.2 v 1.622 c 0,0.277 -0.087,0.615 -0.593,0.615 -0.36,0 -0.765,-0.259 -0.765,-0.259 l -0.044,0.22 H 18.75 V -1.6 h 0.315 v 1.745 c 0,0 0.366,0.224 0.669,0.224 0.29,0 0.343,-0.162 0.343,-0.448 V -1.6 Z m 2.263,0 V 1.74 H 22.341 V 0.642 l 0.022,-0.259 c 0,0 -0.242,0.254 -0.638,0.254 -0.334,0 -0.747,-0.316 -0.747,-1.182 0,-0.756 0.263,-1.094 0.721,-1.094 0.29,0 0.672,0.259 0.672,0.259 l 0.044,-0.22 z m -0.315,0.453 c 0,0 -0.37,-0.22 -0.581,-0.22 -0.343,0 -0.457,0.343 -0.457,0.866 0,0.532 0.202,0.866 0.479,0.866 0.378,0 0.559,-0.246 0.559,-0.246 z m 2.465,-0.07 c 0,0 -0.369,-0.146 -0.672,-0.146 -0.427,0 -0.546,0.295 -0.577,0.704 h 0.432 c 0.408,0 0.856,0.119 0.856,0.69 0,0.4 -0.263,0.61 -0.685,0.61 -0.537,0 -0.923,-0.39 -0.923,-1.181 0,-0.682 0.268,-1.095 0.84,-1.095 0.4,0 0.729,0.136 0.729,0.136 z M 23.553,-0.4 c 0.013,0.426 0.22,0.774 0.607,0.774 0.237,0 0.369,-0.136 0.369,-0.37 0,-0.241 -0.171,-0.404 -0.54,-0.404 z m 4.066,0.426 c 0.286,0.097 0.483,0.335 0.483,0.712 0,0.598 -0.479,0.739 -0.945,0.739 H 26.494 V -1.6 h 0.707 c 0.563,0 1.037,0.268 1.037,0.862 0,0.531 -0.299,0.69 -0.619,0.76 z m -0.493,1.178 c 0.344,0 0.647,-0.127 0.647,-0.545 0,-0.356 -0.303,-0.531 -0.647,-0.531 h -0.298 v 1.076 z m 0.04,-1.345 c 0.413,0 0.734,-0.118 0.734,-0.589 0,-0.395 -0.325,-0.597 -0.734,-0.597 h -0.338 v 1.186 z m 1.987,0.738 v -1.52 c 0,-0.286 0.052,-0.448 0.342,-0.448 0.304,0 0.669,0.223 0.669,0.223 V 0.597 H 30.48 V -1.6 h -0.241 l -0.044,0.22 c 0,0 -0.405,-0.259 -0.766,-0.259 -0.504,0 -0.592,0.338 -0.592,0.615 v 1.622 z m -0.198,0.568 c 0,-0.127 0.101,-0.229 0.228,-0.229 0.128,0 0.229,0.102 0.229,0.229 0,0.127 -0.101,0.228 -0.229,0.228 -0.127,0 -0.228,-0.101 -0.228,-0.228 m 0.998,0 c 0,-0.127 0.101,-0.229 0.228,-0.229 0.128,0 0.229,0.102 0.229,0.229 0,0.127 -0.101,0.228 -0.229,0.228 -0.127,0 -0.228,-0.101 -0.228,-0.228 M 32.339,0.637 C 31.939,0.659 31.54,0.378 31.54,0.378 l -0.044,0.22 H 31.254 V -1.6 h 0.316 v 1.745 c 0,0 0.404,0.242 0.769,0.202 z m 0.725,-0.826 c 0,0.396 0.259,0.572 0.497,0.572 0.4,0 0.589,-0.264 0.589,-0.264 v -0.308 c 0,-0.391 -0.241,-0.58 -0.545,-0.58 -0.304,0 -0.541,0.189 -0.541,0.58 m 0.066,-1.433 c 0,0 0.088,-0.022 0.189,-0.022 h 0.554 c 0.247,0 0.458,-0.039 0.458,-0.29 0,-0.246 -0.317,-0.36 -0.713,-0.36 -0.4,0 -0.681,0.084 -0.681,0.338 0,0.207 0.193,0.334 0.193,0.334 m -0.492,-0.369 c 0,-0.351 0.277,-0.527 0.949,-0.527 0.678,0 1.042,0.246 1.042,0.615 0,0.361 -0.233,0.519 -0.676,0.519 h -0.55 c -0.229,0 -0.312,0.074 -0.312,0.193 0,0.119 0.109,0.18 0.32,0.18 h 0.194 c 0.453,0 0.852,0.259 0.852,0.848 v 0.761 h -0.236 l -0.044,-0.22 c 0,0 -0.246,0.259 -0.669,0.259 -0.347,0 -0.755,-0.272 -0.755,-0.848 0,-0.51 0.364,-0.655 0.364,-0.655 0,0 -0.325,-0.053 -0.325,-0.373 0,-0.203 0.145,-0.286 0.145,-0.286 0,0 -0.299,-0.154 -0.299,-0.466 m 3.885,0.774 c 0,0 -0.368,-0.146 -0.672,-0.146 -0.427,0 -0.545,0.295 -0.576,0.704 h 0.431 c 0.409,0 0.857,0.119 0.857,0.69 0,0.4 -0.263,0.61 -0.686,0.61 -0.536,0 -0.922,-0.39 -0.922,-1.181 0,-0.682 0.267,-1.095 0.839,-1.095 0.4,0 0.729,0.136 0.729,0.136 z M 35.271,-0.4 c 0.013,0.426 0.219,0.774 0.606,0.774 0.238,0 0.37,-0.136 0.37,-0.37 0,-0.241 -0.171,-0.404 -0.541,-0.404 z m 2.949,1.037 c -0.4,0.022 -0.8,-0.259 -0.8,-0.259 l -0.044,0.22 H 37.135 V -1.6 h 0.316 v 1.745 c 0,0 0.404,0.242 0.769,0.202 z M 41.595,-1.6 v 1.622 c 0,0.273 -0.048,0.615 -0.567,0.615 -0.351,0 -0.747,-0.272 -0.747,-0.272 0,0 -0.07,0.272 -0.514,0.272 -0.347,0 -0.734,-0.259 -0.734,-0.259 l -0.044,0.22 H 38.748 V -1.6 h 0.316 v 1.745 c 0,0 0.351,0.224 0.633,0.224 0.295,0 0.317,-0.162 0.317,-0.448 V -1.6 h 0.315 v 1.626 c 0,0.062 -0.004,0.119 -0.004,0.119 0,0 0.382,0.224 0.637,0.224 0.295,0 0.317,-0.162 0.317,-0.448 V -1.6 Z m 2.141,0.383 c 0,0 -0.369,-0.146 -0.673,-0.146 -0.426,0 -0.545,0.295 -0.575,0.704 h 0.43 c 0.409,0 0.857,0.119 0.857,0.69 0,0.4 -0.264,0.61 -0.686,0.61 -0.536,0 -0.922,-0.39 -0.922,-1.181 0,-0.682 0.268,-1.095 0.839,-1.095 0.401,0 0.73,0.136 0.73,0.136 z M 42.483,-0.4 c 0.013,0.426 0.22,0.774 0.606,0.774 0.238,0 0.37,-0.136 0.37,-0.37 0,-0.241 -0.172,-0.404 -0.541,-0.404 z m 2.18,0.998 H 44.347 V -1.6 h 0.316 z m -0.408,0.699 c 0,-0.145 0.114,-0.259 0.259,-0.259 0.145,0 0.259,0.114 0.259,0.259 0,0.145 -0.114,0.258 -0.259,0.258 -0.145,0 -0.259,-0.113 -0.259,-0.258 M 46.54,0.581 c 0,0 -0.268,0.056 -0.528,0.056 -0.575,0 -0.756,-0.263 -0.756,-0.567 0,-0.343 0.22,-0.518 0.427,-0.593 l 0.307,-0.105 c 0.203,-0.071 0.339,-0.168 0.339,-0.391 0,-0.168 -0.066,-0.344 -0.413,-0.344 -0.287,0 -0.638,0.106 -0.638,0.106 v -0.299 c 0,0 0.316,-0.083 0.62,-0.083 0.624,0 0.747,0.325 0.747,0.632 0,0.396 -0.25,0.559 -0.479,0.638 l -0.321,0.114 c -0.153,0.058 -0.281,0.15 -0.281,0.343 0,0.145 0.092,0.29 0.422,0.29 0.255,0 0.554,-0.061 0.554,-0.061 z m 1.749,-1.922 c 0,0 -0.127,-0.027 -0.224,-0.027 -0.338,0 -0.387,0.159 -0.387,0.511 V 0.33 h 0.545 v 0.267 h -0.545 v 0.88 H 47.362 V 0.597 H 46.997 V 0.33 h 0.365 v -1.235 c 0,-0.497 0.171,-0.734 0.65,-0.734 0.128,0 0.277,0.026 0.277,0.026 z m 1.859,0.124 c 0,0 -0.369,-0.146 -0.672,-0.146 -0.427,0 -0.546,0.295 -0.577,0.704 h 0.432 c 0.408,0 0.856,0.119 0.856,0.69 0,0.4 -0.263,0.61 -0.685,0.61 -0.537,0 -0.923,-0.39 -0.923,-1.181 0,-0.682 0.268,-1.095 0.84,-1.095 0.399,0 0.729,0.136 0.729,0.136 z M 48.895,-0.4 c 0.013,0.426 0.22,0.774 0.607,0.774 0.237,0 0.369,-0.136 0.369,-0.37 0,-0.241 -0.171,-0.404 -0.54,-0.404 z m 2.949,1.037 C 51.445,0.659 51.045,0.378 51.045,0.378 l -0.044,0.22 H 50.759 V -1.6 h 0.317 v 1.745 c 0,0 0.404,0.242 0.768,0.202 z m 2.247,-1.964 c 0,0 -0.246,0.681 -0.295,0.914 l -0.202,1.01 h -0.352 l 0.229,-1.01 c 0.07,-0.325 0.435,-1.187 0.435,-1.187 h 0.347 c 0,0 0.37,0.853 0.444,1.187 l 0.233,1.01 h -0.338 l -0.202,-1.01 c -0.049,-0.251 -0.299,-0.914 -0.299,-0.914 m 1.537,0.826 c 0,0.554 0.264,0.875 0.603,0.875 0.339,0 0.602,-0.207 0.602,-0.875 0,-0.554 -0.259,-0.875 -0.602,-0.875 -0.343,0 -0.603,0.207 -0.603,0.875 m -0.324,-0.044 c 0,-0.743 0.324,-1.094 0.927,-1.094 0.558,0 0.927,0.435 0.927,1.182 0,0.743 -0.325,1.094 -0.927,1.094 -0.559,0 -0.927,-0.435 -0.927,-1.182 M 59.382,-1.6 v 1.622 c 0,0.277 -0.088,0.615 -0.593,0.615 -0.361,0 -0.765,-0.259 -0.765,-0.259 L 57.98,0.598 H 57.739 V -1.6 h 0.316 v 1.745 c 0,0 0.364,0.224 0.668,0.224 0.29,0 0.343,-0.162 0.343,-0.448 V -1.6 Z m 2.928,1.626 c 0.285,0.097 0.483,0.335 0.483,0.712 0,0.598 -0.479,0.739 -0.945,0.739 H 61.184 V -1.6 h 0.708 c 0.563,0 1.037,0.268 1.037,0.862 0,0.531 -0.299,0.69 -0.619,0.76 z m -0.493,1.178 c 0.343,0 0.646,-0.127 0.646,-0.545 0,-0.356 -0.303,-0.531 -0.646,-0.531 h -0.299 v 1.076 z m 0.039,-1.345 c 0.414,0 0.734,-0.118 0.734,-0.589 0,-0.395 -0.324,-0.597 -0.734,-0.597 h -0.338 v 1.186 z m 3.099,-1.076 c 0,0 -0.369,-0.146 -0.672,-0.146 -0.427,0 -0.545,0.295 -0.576,0.704 h 0.43 c 0.41,0 0.858,0.119 0.858,0.69 0,0.4 -0.264,0.61 -0.686,0.61 -0.536,0 -0.923,-0.39 -0.923,-1.181 0,-0.682 0.268,-1.095 0.839,-1.095 0.401,0 0.73,0.136 0.73,0.136 z M 63.702,-0.4 c 0.014,0.426 0.22,0.774 0.607,0.774 0.238,0 0.37,-0.136 0.37,-0.37 0,-0.241 -0.172,-0.404 -0.542,-0.404 z m 2.95,1.037 c -0.4,0.022 -0.8,-0.259 -0.8,-0.259 l -0.044,0.22 H 65.566 V -1.6 h 0.316 v 1.745 c 0,0 0.405,0.242 0.77,0.202 z M 67.495,1.74 H 67.179 V -1.6 h 0.316 z M 68.546,0.598 H 68.23 V -1.6 h 0.316 z m -0.408,0.699 c 0,-0.145 0.113,-0.259 0.258,-0.259 0.145,0 0.26,0.114 0.26,0.259 0,0.145 -0.115,0.258 -0.26,0.258 -0.145,0 -0.258,-0.113 -0.258,-0.258 M 70.923,-1.6 v 1.622 c 0,0.277 -0.087,0.615 -0.593,0.615 -0.36,0 -0.764,-0.259 -0.764,-0.259 l -0.044,0.22 H 69.28 V -1.6 h 0.316 v 1.745 c 0,0 0.365,0.224 0.669,0.224 0.289,0 0.342,-0.162 0.342,-0.448 V -1.6 Z" />
        </g>
      </g>
    </g>
  </g>
</svg>
