<?xml version="1.0" encoding="UTF-8" standalone="no"?>
<svg
   xmlns:dc="http://purl.org/dc/elements/1.1/"
   xmlns:cc="http://creativecommons.org/ns#"
   xmlns:rdf="http://www.w3.org/1999/02/22-rdf-syntax-ns#"
   xmlns:svg="http://www.w3.org/2000/svg"
   xmlns="http://www.w3.org/2000/svg"
   id="svg7550"
   version="1.1"
   viewBox="0 0 39.225006 7.2333555"
   height="7.2333555mm"
   width="39.225006mm">
  <defs
     id="defs7544">
    <clipPath
       id="clipPath6457"
       clipPathUnits="userSpaceOnUse">
      <path
         id="path6455"
         d="m 103.201,190.37 h 122.818 v 30.969 H 103.201 Z" />
    </clipPath>
  </defs>
  <metadata
     id="metadata7547">
    <rdf:RDF>
      <cc:Work
         rdf:about="">
        <dc:format>image/svg+xml</dc:format>
        <dc:type
           rdf:resource="http://purl.org/dc/dcmitype/StillImage" />
        <dc:title></dc:title>
      </cc:Work>
    </rdf:RDF>
  </metadata>
  <g
     transform="translate(-6.8458295,-62.817847)"
     id="layer1">
    <g
       id="g6451"
       transform="matrix(0.35277777,0,0,-0.35277777,-31.629878,138.85204)">
      <g
         clip-path="url(#clipPath6457)"
         id="g6453">
        <g
           transform="translate(143.2446,212.542)"
           id="g6459">
          <path
             id="path6461"
             style="fill:#2e49a3;fill-opacity:1;fill-rule:nonzero;stroke:none"
             d="m 0,0 0.579,-0.147 c -0.122,-0.478 -0.34,-0.843 -0.655,-1.094 -0.315,-0.251 -0.701,-0.377 -1.156,-0.377 -0.472,0 -0.855,0.097 -1.15,0.29 -0.296,0.193 -0.52,0.473 -0.675,0.839 -0.154,0.366 -0.231,0.759 -0.231,1.179 0,0.458 0.087,0.858 0.261,1.199 0.174,0.341 0.422,0.601 0.743,0.778 0.321,0.177 0.675,0.265 1.061,0.265 0.437,0 0.805,-0.112 1.104,-0.336 C 0.179,2.372 0.387,2.057 0.504,1.651 L -0.066,1.516 C -0.167,1.836 -0.314,2.069 -0.507,2.215 -0.7,2.361 -0.943,2.434 -1.235,2.434 -1.571,2.434 -1.852,2.353 -2.078,2.191 -2.304,2.029 -2.462,1.811 -2.554,1.538 -2.645,1.265 -2.691,0.983 -2.691,0.693 c 0,-0.374 0.054,-0.7 0.162,-0.98 0.109,-0.279 0.277,-0.487 0.506,-0.625 0.229,-0.138 0.477,-0.207 0.743,-0.207 0.324,0 0.599,0.094 0.824,0.282 C -0.232,-0.649 -0.08,-0.37 0,0" />
        </g>
        <g
           transform="translate(144.268,212.593)"
           id="g6463">
          <path
             id="path6465"
             style="fill:#2e49a3;fill-opacity:1;fill-rule:nonzero;stroke:none"
             d="M 0,0 C 0,0.59 0.163,1.027 0.489,1.312 0.762,1.548 1.094,1.666 1.486,1.666 1.921,1.666 2.277,1.522 2.554,1.235 2.83,0.948 2.969,0.551 2.969,0.045 2.969,-0.365 2.907,-0.688 2.785,-0.923 2.663,-1.158 2.485,-1.341 2.251,-1.471 2.017,-1.601 1.762,-1.666 1.486,-1.666 1.042,-1.666 0.684,-1.523 0.41,-1.237 0.137,-0.95 0,-0.538 0,0 m 0.552,0 c 0,-0.408 0.088,-0.714 0.266,-0.917 0.177,-0.203 0.399,-0.304 0.668,-0.304 0.266,0 0.488,0.102 0.665,0.306 0.177,0.204 0.266,0.515 0.266,0.933 0,0.394 -0.089,0.693 -0.267,0.896 C 1.972,1.117 1.75,1.219 1.486,1.219 1.217,1.219 0.995,1.117 0.818,0.915 0.64,0.713 0.552,0.408 0.552,0" />
        </g>
        <path
           id="path6467"
           style="fill:#2e49a3;fill-opacity:1;fill-rule:nonzero;stroke:none"
           d="m 147.657,212.863 h 1.65 v -0.543 h -1.65 z" />
        <g
           transform="translate(150.0292,210.9994)"
           id="g6469">
          <path
             id="path6471"
             style="fill:#2e49a3;fill-opacity:1;fill-rule:nonzero;stroke:none"
             d="m 0,0 v 2.767 h -0.474 v 0.42 H 0 v 0.339 c 0,0.215 0.019,0.374 0.057,0.478 0.051,0.14 0.142,0.253 0.273,0.34 0.13,0.087 0.312,0.131 0.547,0.131 0.151,0 0.318,-0.018 0.501,-0.054 L 1.298,3.95 C 1.186,3.97 1.081,3.98 0.982,3.98 0.818,3.98 0.703,3.945 0.635,3.875 0.568,3.805 0.534,3.674 0.534,3.481 V 3.187 H 1.152 V 2.767 H 0.534 V 0 Z" />
        </g>
        <g
           transform="translate(153.6752,210.9994)"
           id="g6473">
          <path
             id="path6475"
             style="fill:#2e49a3;fill-opacity:1;fill-rule:nonzero;stroke:none"
             d="m 0,0 v 0.468 c -0.247,-0.36 -0.582,-0.54 -1.005,-0.54 -0.187,0 -0.362,0.036 -0.524,0.108 -0.162,0.072 -0.283,0.163 -0.361,0.272 -0.079,0.109 -0.134,0.242 -0.166,0.4 -0.022,0.106 -0.033,0.274 -0.033,0.505 v 1.974 h 0.538 V 1.42 c 0,-0.283 0.01,-0.473 0.032,-0.571 0.034,-0.142 0.106,-0.253 0.215,-0.334 0.11,-0.081 0.245,-0.122 0.406,-0.122 0.161,0 0.312,0.042 0.453,0.125 0.142,0.083 0.242,0.196 0.3,0.339 C -0.086,1 -0.057,1.208 -0.057,1.48 V 3.187 H 0.48 V 0 Z" />
        </g>
        <g
           transform="translate(154.9968,210.9994)"
           id="g6477">
          <path
             id="path6479"
             style="fill:#2e49a3;fill-opacity:1;fill-rule:nonzero;stroke:none"
             d="M 0,0 V 3.187 H 0.483 V 2.734 c 0.233,0.35 0.569,0.525 1.009,0.525 0.191,0 0.366,-0.034 0.526,-0.103 0.16,-0.069 0.28,-0.16 0.36,-0.272 C 2.457,2.772 2.513,2.639 2.545,2.485 2.565,2.385 2.575,2.21 2.575,1.96 V 0 H 2.038 v 1.939 c 0,0.22 -0.021,0.384 -0.063,0.494 C 1.933,2.542 1.859,2.629 1.753,2.694 1.646,2.759 1.522,2.791 1.378,2.791 1.15,2.791 0.952,2.718 0.786,2.572 0.62,2.426 0.537,2.149 0.537,1.741 V 0 Z" />
        </g>
        <g
           transform="translate(160.4508,210.9994)"
           id="g6481">
          <path
             id="path6483"
             style="fill:#2e49a3;fill-opacity:1;fill-rule:nonzero;stroke:none"
             d="m 0,0 v 0.402 c -0.201,-0.316 -0.496,-0.474 -0.886,-0.474 -0.253,0 -0.485,0.07 -0.697,0.21 -0.212,0.14 -0.376,0.336 -0.492,0.587 -0.116,0.251 -0.175,0.539 -0.175,0.866 0,0.318 0.053,0.606 0.159,0.866 0.105,0.259 0.263,0.457 0.474,0.595 0.211,0.138 0.446,0.207 0.707,0.207 0.191,0 0.361,-0.04 0.51,-0.121 0.149,-0.081 0.271,-0.187 0.364,-0.317 V 4.4 H 0.498 V 0 Z m -1.698,1.591 c 0,-0.408 0.086,-0.714 0.257,-0.916 0.171,-0.202 0.373,-0.303 0.606,-0.303 0.234,0 0.434,0.097 0.598,0.29 0.164,0.193 0.246,0.487 0.246,0.884 0,0.436 -0.084,0.756 -0.251,0.96 -0.167,0.204 -0.373,0.306 -0.617,0.306 -0.239,0 -0.438,-0.098 -0.599,-0.294 -0.16,-0.196 -0.24,-0.505 -0.24,-0.927" />
        </g>
        <g
           transform="translate(163.9623,212.0258)"
           id="g6485">
          <path
             id="path6487"
             style="fill:#2e49a3;fill-opacity:1;fill-rule:nonzero;stroke:none"
             d="m 0,0 0.555,-0.069 c -0.088,-0.326 -0.25,-0.579 -0.486,-0.759 -0.237,-0.18 -0.539,-0.27 -0.907,-0.27 -0.464,0 -0.831,0.143 -1.103,0.43 -0.271,0.287 -0.407,0.69 -0.407,1.208 0,0.536 0.137,0.953 0.412,1.249 0.274,0.296 0.63,0.444 1.068,0.444 0.424,0 0.77,-0.145 1.038,-0.435 C 0.439,1.508 0.573,1.099 0.573,0.573 0.573,0.541 0.572,0.493 0.57,0.429 h -2.363 c 0.02,-0.35 0.118,-0.618 0.295,-0.804 0.177,-0.186 0.398,-0.279 0.663,-0.279 0.197,0 0.365,0.052 0.504,0.156 C -0.192,-0.394 -0.082,-0.228 0,0 M -1.763,0.873 H 0.006 C -0.018,1.141 -0.085,1.343 -0.197,1.477 -0.368,1.685 -0.59,1.789 -0.862,1.789 -1.109,1.789 -1.316,1.706 -1.484,1.54 -1.652,1.374 -1.745,1.151 -1.763,0.873" />
        </g>
        <g
           transform="translate(167.2473,210.9994)"
           id="g6489">
          <path
             id="path6491"
             style="fill:#2e49a3;fill-opacity:1;fill-rule:nonzero;stroke:none"
             d="m 0,0 v 0.402 c -0.201,-0.316 -0.496,-0.474 -0.886,-0.474 -0.253,0 -0.485,0.07 -0.697,0.21 -0.212,0.14 -0.376,0.336 -0.492,0.587 -0.116,0.251 -0.175,0.539 -0.175,0.866 0,0.318 0.053,0.606 0.159,0.866 0.105,0.259 0.263,0.457 0.474,0.595 0.211,0.138 0.446,0.207 0.707,0.207 0.191,0 0.361,-0.04 0.51,-0.121 0.149,-0.081 0.271,-0.187 0.364,-0.317 V 4.4 H 0.498 V 0 Z m -1.698,1.591 c 0,-0.408 0.086,-0.714 0.257,-0.916 0.171,-0.202 0.373,-0.303 0.606,-0.303 0.234,0 0.434,0.097 0.598,0.29 0.164,0.193 0.246,0.487 0.246,0.884 0,0.436 -0.084,0.756 -0.251,0.96 -0.167,0.204 -0.373,0.306 -0.617,0.306 -0.239,0 -0.438,-0.098 -0.598,-0.294 C -1.618,2.322 -1.698,2.013 -1.698,1.591" />
        </g>
        <g
           transform="translate(170.7828,210.9994)"
           id="g6493">
          <path
             id="path6495"
             style="fill:#2e49a3;fill-opacity:1;fill-rule:nonzero;stroke:none"
             d="M 0,0 H -0.498 V 4.4 H 0.039 V 2.83 C 0.265,3.116 0.555,3.259 0.907,3.259 1.102,3.259 1.286,3.22 1.46,3.141 1.634,3.062 1.778,2.951 1.89,2.808 2.002,2.665 2.09,2.492 2.154,2.29 2.218,2.088 2.25,1.872 2.25,1.642 2.25,1.095 2.115,0.673 1.847,0.375 1.578,0.077 1.256,-0.072 0.88,-0.072 0.506,-0.072 0.213,0.085 0,0.399 Z M -0.006,1.618 C -0.006,1.235 0.046,0.959 0.149,0.789 0.318,0.511 0.547,0.372 0.835,0.372 1.07,0.372 1.273,0.475 1.444,0.68 1.615,0.885 1.701,1.19 1.701,1.597 1.701,2.013 1.619,2.32 1.454,2.518 1.29,2.716 1.092,2.815 0.859,2.815 0.625,2.815 0.422,2.713 0.251,2.508 0.08,2.302 -0.006,2.006 -0.006,1.618" />
        </g>
        <g
           transform="translate(173.6619,209.7719)"
           id="g6497">
          <path
             id="path6499"
             style="fill:#2e49a3;fill-opacity:1;fill-rule:nonzero;stroke:none"
             d="M 0,0 -0.06,0.507 C 0.058,0.475 0.16,0.459 0.248,0.459 c 0.119,0 0.214,0.02 0.286,0.06 0.072,0.04 0.13,0.096 0.176,0.168 0.034,0.054 0.089,0.188 0.164,0.402 0.01,0.03 0.026,0.074 0.048,0.132 L -0.28,4.415 H 0.298 L 0.958,2.569 C 1.043,2.335 1.12,2.089 1.187,1.831 1.249,2.079 1.323,2.321 1.408,2.557 L 2.085,4.415 H 2.623 L 1.417,1.173 C 1.288,0.823 1.187,0.582 1.116,0.45 1.02,0.272 0.911,0.142 0.788,0.059 0.664,-0.024 0.517,-0.066 0.346,-0.066 0.243,-0.066 0.127,-0.044 0,0" />
        </g>
        <g
           transform="translate(179.6111,211.4826)"
           id="g6501">
          <path
             id="path6503"
             style="fill:#2e49a3;fill-opacity:1;fill-rule:nonzero;stroke:none"
             d="m 0,0 0.078,-0.477 c -0.152,-0.032 -0.287,-0.048 -0.406,-0.048 -0.195,0 -0.346,0.031 -0.454,0.093 -0.107,0.062 -0.183,0.143 -0.226,0.244 -0.044,0.101 -0.066,0.314 -0.066,0.638 v 1.834 h -0.394 v 0.42 h 0.394 V 3.493 L -0.54,3.818 V 2.704 H 0 V 2.284 H -0.54 V 0.42 c 0,-0.154 0.009,-0.253 0.028,-0.297 0.019,-0.044 0.05,-0.079 0.093,-0.105 0.043,-0.026 0.104,-0.039 0.183,-0.039 0.06,0 0.138,0.007 0.236,0.021" />
        </g>
        <g
           transform="translate(180.1361,210.9994)"
           id="g6505">
          <path
             id="path6507"
             style="fill:#2e49a3;fill-opacity:1;fill-rule:nonzero;stroke:none"
             d="M 0,0 V 4.4 H 0.537 V 2.821 C 0.788,3.113 1.104,3.259 1.486,3.259 1.721,3.259 1.924,3.213 2.098,3.12 2.271,3.027 2.394,2.898 2.469,2.734 2.543,2.57 2.581,2.332 2.581,2.02 V 0 H 2.044 V 2.02 C 2.044,2.29 1.986,2.487 1.869,2.61 1.753,2.733 1.588,2.794 1.376,2.794 1.216,2.794 1.067,2.753 0.926,2.67 0.786,2.587 0.686,2.474 0.627,2.332 0.567,2.19 0.537,1.994 0.537,1.744 V 0 Z" />
        </g>
        <g
           transform="translate(185.7035,212.0258)"
           id="g6509">
          <path
             id="path6511"
             style="fill:#2e49a3;fill-opacity:1;fill-rule:nonzero;stroke:none"
             d="m 0,0 0.555,-0.069 c -0.088,-0.326 -0.25,-0.579 -0.486,-0.759 -0.237,-0.18 -0.539,-0.27 -0.907,-0.27 -0.464,0 -0.831,0.143 -1.103,0.43 -0.271,0.287 -0.407,0.69 -0.407,1.208 0,0.536 0.137,0.953 0.412,1.249 0.274,0.296 0.63,0.444 1.068,0.444 0.424,0 0.77,-0.145 1.038,-0.435 C 0.439,1.508 0.573,1.099 0.573,0.573 0.573,0.541 0.572,0.493 0.57,0.429 h -2.363 c 0.02,-0.35 0.118,-0.618 0.295,-0.804 0.177,-0.186 0.398,-0.279 0.663,-0.279 0.197,0 0.365,0.052 0.504,0.156 C -0.192,-0.394 -0.082,-0.228 0,0 M -1.763,0.873 H 0.006 C -0.018,1.141 -0.085,1.343 -0.197,1.477 -0.368,1.685 -0.59,1.789 -0.862,1.789 -1.109,1.789 -1.316,1.706 -1.484,1.54 -1.652,1.374 -1.745,1.151 -1.763,0.873" />
        </g>
        <g
           transform="translate(112.353,205.1662)"
           id="g6513">
          <path
             id="path6515"
             style="fill:#2e49a3;fill-opacity:1;fill-rule:nonzero;stroke:none"
             d="m 0,0 0.579,-0.147 c -0.122,-0.478 -0.34,-0.843 -0.655,-1.094 -0.315,-0.251 -0.701,-0.377 -1.156,-0.377 -0.472,0 -0.855,0.097 -1.15,0.29 -0.296,0.193 -0.521,0.473 -0.675,0.839 -0.154,0.366 -0.231,0.759 -0.231,1.179 0,0.458 0.087,0.858 0.261,1.199 0.174,0.341 0.422,0.601 0.743,0.778 0.321,0.177 0.675,0.265 1.061,0.265 0.437,0 0.805,-0.112 1.104,-0.336 C 0.179,2.372 0.387,2.057 0.504,1.651 L -0.066,1.516 C -0.167,1.836 -0.314,2.069 -0.507,2.215 -0.7,2.361 -0.943,2.434 -1.235,2.434 -1.571,2.434 -1.852,2.353 -2.078,2.191 -2.304,2.029 -2.462,1.811 -2.554,1.538 -2.645,1.265 -2.691,0.983 -2.691,0.693 c 0,-0.374 0.054,-0.701 0.162,-0.98 0.109,-0.279 0.277,-0.487 0.506,-0.625 0.229,-0.138 0.477,-0.207 0.743,-0.207 0.324,0 0.599,0.094 0.824,0.282 C -0.232,-0.649 -0.08,-0.37 0,0" />
        </g>
        <g
           transform="translate(113.5704,203.6235)"
           id="g6517">
          <path
             id="path6519"
             style="fill:#2e49a3;fill-opacity:1;fill-rule:nonzero;stroke:none"
             d="M 0,0 V 3.187 H 0.483 V 2.704 C 0.607,2.93 0.72,3.079 0.825,3.151 0.929,3.223 1.044,3.259 1.17,3.259 1.351,3.259 1.535,3.201 1.721,3.085 L 1.536,2.584 C 1.405,2.662 1.274,2.701 1.143,2.701 1.025,2.701 0.92,2.666 0.826,2.595 0.733,2.523 0.666,2.425 0.627,2.299 0.567,2.107 0.537,1.897 0.537,1.669 V 0 Z" />
        </g>
        <g
           transform="translate(117.7802,204.65)"
           id="g6521">
          <path
             id="path6523"
             style="fill:#2e49a3;fill-opacity:1;fill-rule:nonzero;stroke:none"
             d="m 0,0 0.555,-0.069 c -0.088,-0.326 -0.25,-0.579 -0.486,-0.759 -0.237,-0.18 -0.539,-0.27 -0.907,-0.27 -0.464,0 -0.831,0.143 -1.103,0.43 -0.271,0.287 -0.407,0.69 -0.407,1.208 0,0.536 0.137,0.953 0.412,1.249 0.274,0.296 0.63,0.444 1.068,0.444 0.423,0 0.77,-0.145 1.038,-0.435 C 0.439,1.508 0.573,1.099 0.573,0.573 0.573,0.541 0.572,0.493 0.57,0.429 h -2.363 c 0.02,-0.35 0.118,-0.618 0.295,-0.804 0.177,-0.186 0.398,-0.279 0.663,-0.279 0.196,0 0.365,0.052 0.504,0.156 C -0.192,-0.394 -0.082,-0.228 0,0 M -1.763,0.873 H 0.006 C -0.018,1.141 -0.086,1.342 -0.197,1.477 -0.368,1.685 -0.59,1.789 -0.862,1.789 -1.109,1.789 -1.316,1.706 -1.484,1.54 -1.652,1.373 -1.745,1.151 -1.763,0.873" />
        </g>
        <g
           transform="translate(121.0769,204.0167)"
           id="g6525">
          <path
             id="path6527"
             style="fill:#2e49a3;fill-opacity:1;fill-rule:nonzero;stroke:none"
             d="m 0,0 c -0.199,-0.17 -0.39,-0.29 -0.574,-0.36 -0.184,-0.07 -0.382,-0.105 -0.593,-0.105 -0.348,0 -0.615,0.085 -0.802,0.256 -0.187,0.171 -0.281,0.39 -0.281,0.656 0,0.156 0.036,0.299 0.106,0.428 0.071,0.129 0.163,0.232 0.278,0.31 0.114,0.079 0.243,0.138 0.386,0.178 0.106,0.028 0.265,0.054 0.477,0.081 0.434,0.052 0.753,0.114 0.958,0.186 0.002,0.074 0.003,0.121 0.003,0.141 0,0.22 -0.05,0.375 -0.152,0.465 -0.137,0.122 -0.341,0.183 -0.612,0.183 -0.252,0 -0.439,-0.045 -0.559,-0.134 -0.12,-0.089 -0.209,-0.246 -0.267,-0.472 l -0.525,0.072 c 0.048,0.226 0.126,0.408 0.236,0.548 0.109,0.139 0.267,0.246 0.474,0.321 0.207,0.075 0.446,0.112 0.719,0.112 0.271,0 0.49,-0.032 0.659,-0.096 C 0.1,2.706 0.225,2.626 0.304,2.529 0.384,2.431 0.44,2.309 0.471,2.161 0.489,2.069 0.498,1.903 0.498,1.663 V 0.942 c 0,-0.502 0.012,-0.819 0.035,-0.953 0.022,-0.133 0.068,-0.26 0.135,-0.382 H 0.107 C 0.052,-0.281 0.016,-0.15 0,0 M -0.045,1.206 C -0.24,1.126 -0.532,1.058 -0.922,1.002 -1.143,0.97 -1.299,0.934 -1.39,0.894 -1.482,0.854 -1.552,0.796 -1.602,0.719 -1.652,0.642 -1.677,0.556 -1.677,0.462 c 0,-0.144 0.054,-0.264 0.163,-0.36 0.108,-0.096 0.267,-0.144 0.476,-0.144 0.207,0 0.391,0.045 0.552,0.137 0.161,0.091 0.279,0.215 0.355,0.373 0.057,0.122 0.086,0.302 0.086,0.54 z" />
        </g>
        <g
           transform="translate(123.5801,204.1068)"
           id="g6529">
          <path
             id="path6531"
             style="fill:#2e49a3;fill-opacity:1;fill-rule:nonzero;stroke:none"
             d="m 0,0 0.078,-0.477 c -0.152,-0.032 -0.287,-0.048 -0.406,-0.048 -0.195,0 -0.346,0.031 -0.454,0.093 -0.107,0.062 -0.183,0.143 -0.226,0.244 -0.044,0.101 -0.066,0.314 -0.066,0.638 v 1.834 h -0.394 v 0.42 h 0.394 V 3.493 L -0.54,3.818 V 2.704 H 0 V 2.284 H -0.54 V 0.42 c 0,-0.154 0.009,-0.253 0.028,-0.297 0.019,-0.044 0.05,-0.079 0.093,-0.105 0.043,-0.026 0.104,-0.039 0.183,-0.039 0.06,0 0.139,0.007 0.236,0.021" />
        </g>
        <path
           id="path6533"
           style="fill:#2e49a3;fill-opacity:1;fill-rule:nonzero;stroke:none"
           d="m 124.108,208.023 h 0.537 v -0.621 h -0.537 z m 0,-1.212 h 0.537 v -3.187 h -0.537 z" />
        <g
           transform="translate(126.3429,203.6235)"
           id="g6535">
          <path
             id="path6537"
             style="fill:#2e49a3;fill-opacity:1;fill-rule:nonzero;stroke:none"
             d="m 0,0 -1.205,3.187 h 0.567 L 0.042,1.279 C 0.115,1.072 0.183,0.858 0.245,0.636 c 0.047,0.168 0.114,0.37 0.2,0.607 L 1.149,3.187 H 1.701 L 0.501,0 Z" />
        </g>
        <g
           transform="translate(130.687,204.65)"
           id="g6539">
          <path
             id="path6541"
             style="fill:#2e49a3;fill-opacity:1;fill-rule:nonzero;stroke:none"
             d="m 0,0 0.555,-0.069 c -0.088,-0.326 -0.25,-0.579 -0.486,-0.759 -0.237,-0.18 -0.539,-0.27 -0.907,-0.27 -0.464,0 -0.831,0.143 -1.103,0.43 -0.271,0.287 -0.407,0.69 -0.407,1.208 0,0.536 0.137,0.953 0.412,1.249 0.274,0.296 0.63,0.444 1.068,0.444 0.423,0 0.77,-0.145 1.038,-0.435 C 0.439,1.508 0.573,1.099 0.573,0.573 0.573,0.541 0.572,0.493 0.57,0.429 h -2.363 c 0.02,-0.35 0.118,-0.618 0.295,-0.804 0.177,-0.186 0.398,-0.279 0.663,-0.279 0.196,0 0.365,0.052 0.504,0.156 C -0.192,-0.394 -0.082,-0.228 0,0 M -1.763,0.873 H 0.006 C -0.018,1.141 -0.086,1.342 -0.197,1.477 -0.368,1.685 -0.59,1.789 -0.862,1.789 -1.109,1.789 -1.316,1.706 -1.484,1.54 -1.652,1.373 -1.745,1.151 -1.763,0.873" />
        </g>
        <g
           transform="translate(133.6944,203.6235)"
           id="g6543">
          <path
             id="path6545"
             style="fill:#2e49a3;fill-opacity:1;fill-rule:nonzero;stroke:none"
             d="M 0,0 V 4.4 H 3.163 V 3.881 H 0.579 V 2.533 H 2.998 V 2.017 H 0.579 V 0.519 H 3.264 V 0 Z" />
        </g>
        <g
           transform="translate(139.7659,203.6235)"
           id="g6547">
          <path
             id="path6549"
             style="fill:#2e49a3;fill-opacity:1;fill-rule:nonzero;stroke:none"
             d="m 0,0 v 0.468 c -0.247,-0.36 -0.582,-0.54 -1.005,-0.54 -0.187,0 -0.362,0.036 -0.524,0.108 -0.162,0.072 -0.283,0.163 -0.361,0.272 -0.079,0.109 -0.134,0.242 -0.166,0.4 -0.022,0.106 -0.033,0.274 -0.033,0.505 v 1.974 h 0.538 V 1.42 c 0,-0.283 0.01,-0.473 0.032,-0.571 0.034,-0.142 0.106,-0.253 0.215,-0.334 0.11,-0.081 0.245,-0.122 0.406,-0.122 0.161,0 0.312,0.042 0.453,0.125 0.142,0.083 0.242,0.196 0.3,0.339 C -0.086,1 -0.057,1.208 -0.057,1.48 V 3.187 H 0.48 V 0 Z" />
        </g>
        <g
           transform="translate(141.0816,203.6235)"
           id="g6551">
          <path
             id="path6553"
             style="fill:#2e49a3;fill-opacity:1;fill-rule:nonzero;stroke:none"
             d="M 0,0 V 3.187 H 0.483 V 2.704 C 0.607,2.93 0.721,3.079 0.825,3.151 0.929,3.223 1.044,3.259 1.17,3.259 1.351,3.259 1.535,3.201 1.721,3.085 L 1.537,2.584 C 1.405,2.662 1.274,2.701 1.143,2.701 1.025,2.701 0.92,2.666 0.826,2.595 0.733,2.523 0.666,2.425 0.627,2.299 0.567,2.107 0.537,1.897 0.537,1.669 V 0 Z" />
        </g>
        <g
           transform="translate(142.9225,205.2172)"
           id="g6555">
          <path
             id="path6557"
             style="fill:#2e49a3;fill-opacity:1;fill-rule:nonzero;stroke:none"
             d="M 0,0 C 0,0.59 0.163,1.027 0.489,1.311 0.762,1.548 1.094,1.666 1.486,1.666 1.921,1.666 2.277,1.522 2.554,1.235 2.83,0.948 2.969,0.551 2.969,0.045 2.969,-0.365 2.907,-0.688 2.785,-0.923 2.663,-1.158 2.485,-1.341 2.251,-1.471 2.017,-1.601 1.762,-1.666 1.486,-1.666 1.042,-1.666 0.684,-1.523 0.41,-1.237 0.137,-0.95 0,-0.538 0,0 m 0.552,0 c 0,-0.408 0.088,-0.714 0.266,-0.917 0.177,-0.203 0.399,-0.305 0.668,-0.305 0.266,0 0.488,0.102 0.665,0.307 0.177,0.204 0.266,0.515 0.266,0.933 0,0.394 -0.089,0.693 -0.267,0.896 C 1.972,1.117 1.75,1.218 1.486,1.218 1.217,1.218 0.995,1.117 0.818,0.915 0.64,0.713 0.552,0.408 0.552,0" />
        </g>
        <g
           transform="translate(146.5206,202.402)"
           id="g6559">
          <path
             id="path6561"
             style="fill:#2e49a3;fill-opacity:1;fill-rule:nonzero;stroke:none"
             d="M 0,0 V 4.409 H 0.489 V 3.995 C 0.605,4.157 0.735,4.278 0.88,4.359 1.025,4.44 1.201,4.481 1.408,4.481 1.679,4.481 1.917,4.411 2.124,4.271 2.331,4.131 2.487,3.933 2.593,3.678 2.698,3.423 2.751,3.143 2.751,2.839 2.751,2.513 2.693,2.219 2.576,1.958 2.46,1.697 2.291,1.497 2.069,1.358 1.847,1.219 1.614,1.15 1.369,1.15 1.19,1.15 1.03,1.187 0.888,1.264 0.745,1.34 0.629,1.436 0.537,1.552 V 0 Z m 0.486,2.797 c 0,-0.41 0.083,-0.713 0.248,-0.909 0.165,-0.196 0.365,-0.294 0.6,-0.294 0.238,0 0.443,0.101 0.613,0.304 0.17,0.203 0.255,0.518 0.255,0.944 0,0.406 -0.083,0.711 -0.249,0.913 C 1.787,3.957 1.588,4.058 1.358,4.058 1.129,4.058 0.926,3.95 0.75,3.735 0.574,3.52 0.486,3.207 0.486,2.797" />
        </g>
        <g
           transform="translate(152.088,204.65)"
           id="g6563">
          <path
             id="path6565"
             style="fill:#2e49a3;fill-opacity:1;fill-rule:nonzero;stroke:none"
             d="m 0,0 0.555,-0.069 c -0.088,-0.326 -0.25,-0.579 -0.486,-0.759 -0.237,-0.18 -0.539,-0.27 -0.907,-0.27 -0.464,0 -0.831,0.143 -1.103,0.43 -0.271,0.287 -0.407,0.69 -0.407,1.208 0,0.536 0.137,0.953 0.412,1.249 0.274,0.296 0.63,0.444 1.068,0.444 0.423,0 0.77,-0.145 1.038,-0.435 C 0.439,1.508 0.573,1.099 0.573,0.573 0.573,0.541 0.572,0.493 0.57,0.429 h -2.363 c 0.02,-0.35 0.118,-0.618 0.295,-0.804 0.177,-0.186 0.398,-0.279 0.663,-0.279 0.196,0 0.365,0.052 0.504,0.156 C -0.192,-0.394 -0.082,-0.228 0,0 M -1.763,0.873 H 0.006 C -0.018,1.141 -0.086,1.342 -0.197,1.477 -0.368,1.685 -0.59,1.789 -0.862,1.789 -1.109,1.789 -1.316,1.706 -1.484,1.54 -1.652,1.373 -1.745,1.151 -1.763,0.873" />
        </g>
        <g
           transform="translate(155.0834,203.6235)"
           id="g6567">
          <path
             id="path6569"
             style="fill:#2e49a3;fill-opacity:1;fill-rule:nonzero;stroke:none"
             d="M 0,0 V 4.4 H 1.65 C 1.94,4.4 2.162,4.386 2.315,4.358 2.53,4.322 2.71,4.253 2.855,4.152 3,4.051 3.117,3.91 3.206,3.728 3.294,3.545 3.338,3.345 3.338,3.127 3.338,2.753 3.22,2.436 2.984,2.177 2.747,1.918 2.319,1.789 1.701,1.789 H 0.579 V 0 Z M 0.579,2.308 H 1.71 c 0.373,0 0.639,0.07 0.796,0.21 0.157,0.14 0.236,0.337 0.236,0.591 0,0.184 -0.046,0.342 -0.139,0.473 C 2.511,3.713 2.389,3.8 2.238,3.842 2.14,3.868 1.96,3.881 1.698,3.881 H 0.579 Z" />
        </g>
        <g
           transform="translate(159.0843,203.6235)"
           id="g6571">
          <path
             id="path6573"
             style="fill:#2e49a3;fill-opacity:1;fill-rule:nonzero;stroke:none"
             d="M 0,0 V 3.187 H 0.483 V 2.704 C 0.607,2.93 0.721,3.079 0.825,3.151 0.929,3.223 1.044,3.259 1.17,3.259 1.351,3.259 1.535,3.201 1.722,3.085 L 1.537,2.584 C 1.405,2.662 1.274,2.701 1.143,2.701 1.025,2.701 0.92,2.666 0.826,2.595 0.733,2.523 0.666,2.425 0.627,2.299 0.567,2.107 0.537,1.897 0.537,1.669 V 0 Z" />
        </g>
        <g
           transform="translate(160.9253,205.2172)"
           id="g6575">
          <path
             id="path6577"
             style="fill:#2e49a3;fill-opacity:1;fill-rule:nonzero;stroke:none"
             d="M 0,0 C 0,0.59 0.163,1.027 0.489,1.311 0.762,1.548 1.094,1.666 1.486,1.666 1.921,1.666 2.277,1.522 2.554,1.235 2.83,0.948 2.969,0.551 2.969,0.045 2.969,-0.365 2.907,-0.688 2.785,-0.923 2.663,-1.158 2.485,-1.341 2.251,-1.471 2.017,-1.601 1.762,-1.666 1.486,-1.666 1.042,-1.666 0.684,-1.523 0.41,-1.237 0.137,-0.95 0,-0.538 0,0 m 0.552,0 c 0,-0.408 0.088,-0.714 0.265,-0.917 0.177,-0.203 0.4,-0.305 0.669,-0.305 0.266,0 0.488,0.102 0.665,0.307 0.177,0.204 0.266,0.515 0.266,0.933 0,0.394 -0.089,0.693 -0.267,0.896 C 1.972,1.117 1.75,1.218 1.486,1.218 1.217,1.218 0.994,1.117 0.817,0.915 0.64,0.713 0.552,0.408 0.552,0" />
        </g>
        <g
           transform="translate(164.4249,203.3594)"
           id="g6579">
          <path
             id="path6581"
             style="fill:#2e49a3;fill-opacity:1;fill-rule:nonzero;stroke:none"
             d="m 0,0 0.522,-0.078 c 0.022,-0.162 0.083,-0.28 0.182,-0.354 0.133,-0.1 0.315,-0.15 0.546,-0.15 0.249,0 0.441,0.05 0.576,0.15 0.135,0.1 0.227,0.24 0.274,0.42 0.028,0.11 0.041,0.341 0.039,0.693 C 1.904,0.403 1.612,0.264 1.262,0.264 c -0.436,0 -0.773,0.158 -1.011,0.474 -0.239,0.316 -0.358,0.696 -0.358,1.138 0,0.304 0.054,0.585 0.164,0.842 0.109,0.257 0.268,0.455 0.476,0.595 0.207,0.14 0.452,0.211 0.732,0.211 0.374,0 0.682,-0.153 0.925,-0.457 V 3.451 H 2.685 V 0.696 c 0,-0.496 -0.05,-0.847 -0.15,-1.055 -0.101,-0.207 -0.26,-0.37 -0.478,-0.49 -0.218,-0.12 -0.486,-0.18 -0.804,-0.18 -0.378,0 -0.683,0.085 -0.916,0.256 C 0.104,-0.602 -0.008,-0.344 0,0 m 0.445,1.915 c 0,-0.418 0.082,-0.723 0.247,-0.916 0.165,-0.192 0.372,-0.288 0.621,-0.288 0.246,0 0.453,0.096 0.62,0.287 0.167,0.191 0.251,0.491 0.251,0.899 0,0.39 -0.086,0.684 -0.258,0.882 C 1.754,2.977 1.546,3.076 1.304,3.076 1.065,3.076 0.862,2.979 0.695,2.784 0.528,2.589 0.445,2.299 0.445,1.915" />
        </g>
        <g
           transform="translate(167.9156,203.6235)"
           id="g6583">
          <path
             id="path6585"
             style="fill:#2e49a3;fill-opacity:1;fill-rule:nonzero;stroke:none"
             d="M 0,0 V 3.187 H 0.483 V 2.704 C 0.607,2.93 0.721,3.079 0.825,3.151 0.929,3.223 1.044,3.259 1.17,3.259 1.351,3.259 1.535,3.201 1.722,3.085 L 1.537,2.584 C 1.405,2.662 1.274,2.701 1.143,2.701 1.025,2.701 0.92,2.666 0.826,2.595 0.733,2.523 0.666,2.425 0.627,2.299 0.567,2.107 0.537,1.897 0.537,1.669 V 0 Z" />
        </g>
        <g
           transform="translate(172.024,204.0167)"
           id="g6587">
          <path
             id="path6589"
             style="fill:#2e49a3;fill-opacity:1;fill-rule:nonzero;stroke:none"
             d="m 0,0 c -0.199,-0.17 -0.39,-0.29 -0.574,-0.36 -0.184,-0.07 -0.382,-0.105 -0.593,-0.105 -0.348,0 -0.615,0.085 -0.802,0.256 -0.187,0.171 -0.281,0.39 -0.281,0.656 0,0.156 0.036,0.299 0.106,0.428 0.071,0.129 0.163,0.232 0.278,0.31 0.114,0.079 0.243,0.138 0.386,0.178 0.106,0.028 0.265,0.054 0.478,0.081 0.433,0.052 0.752,0.114 0.957,0.186 0.002,0.074 0.003,0.121 0.003,0.141 0,0.22 -0.05,0.375 -0.152,0.465 -0.137,0.122 -0.341,0.183 -0.612,0.183 -0.252,0 -0.439,-0.045 -0.559,-0.134 -0.12,-0.089 -0.209,-0.246 -0.267,-0.472 l -0.525,0.072 c 0.048,0.226 0.126,0.408 0.236,0.548 0.109,0.139 0.267,0.246 0.474,0.321 0.207,0.075 0.446,0.112 0.719,0.112 0.27,0 0.49,-0.032 0.659,-0.096 C 0.1,2.706 0.225,2.626 0.304,2.529 0.384,2.431 0.44,2.309 0.471,2.161 0.489,2.069 0.498,1.903 0.498,1.663 V 0.942 c 0,-0.502 0.012,-0.819 0.035,-0.953 0.022,-0.133 0.068,-0.26 0.135,-0.382 H 0.107 C 0.052,-0.281 0.016,-0.15 0,0 M -0.045,1.206 C -0.24,1.126 -0.532,1.058 -0.922,1.002 -1.143,0.97 -1.299,0.934 -1.39,0.894 -1.482,0.854 -1.552,0.796 -1.602,0.719 -1.652,0.642 -1.677,0.556 -1.677,0.462 c 0,-0.144 0.054,-0.264 0.163,-0.36 0.108,-0.096 0.267,-0.144 0.476,-0.144 0.207,0 0.391,0.045 0.552,0.137 0.161,0.091 0.279,0.215 0.355,0.373 0.057,0.122 0.086,0.302 0.086,0.54 z" />
        </g>
        <g
           transform="translate(173.3546,203.6235)"
           id="g6591">
          <path
             id="path6593"
             style="fill:#2e49a3;fill-opacity:1;fill-rule:nonzero;stroke:none"
             d="M 0,0 V 3.187 H 0.48 V 2.74 C 0.58,2.896 0.712,3.022 0.877,3.117 1.042,3.212 1.23,3.259 1.441,3.259 1.676,3.259 1.868,3.21 2.018,3.112 2.169,3.014 2.275,2.877 2.336,2.701 2.587,3.073 2.913,3.259 3.315,3.259 3.629,3.259 3.871,3.172 4.04,2.997 4.209,2.822 4.293,2.552 4.293,2.188 V 0 H 3.759 V 2.008 C 3.759,2.224 3.742,2.38 3.707,2.475 3.672,2.57 3.609,2.646 3.518,2.704 3.426,2.762 3.319,2.791 3.195,2.791 2.973,2.791 2.788,2.717 2.641,2.568 2.493,2.418 2.42,2.18 2.42,1.852 V 0 H 1.883 v 2.071 c 0,0.24 -0.044,0.42 -0.132,0.54 -0.087,0.12 -0.23,0.18 -0.429,0.18 -0.151,0 -0.291,-0.04 -0.419,-0.12 C 0.774,2.591 0.681,2.474 0.624,2.32 0.566,2.166 0.537,1.944 0.537,1.654 V 0 Z" />
        </g>
        <g
           transform="translate(178.4445,203.6235)"
           id="g6595">
          <path
             id="path6597"
             style="fill:#2e49a3;fill-opacity:1;fill-rule:nonzero;stroke:none"
             d="M 0,0 V 3.187 H 0.48 V 2.74 C 0.58,2.896 0.712,3.022 0.877,3.117 1.042,3.212 1.23,3.259 1.441,3.259 1.676,3.259 1.868,3.21 2.018,3.112 2.169,3.014 2.274,2.877 2.336,2.701 2.587,3.073 2.913,3.259 3.315,3.259 3.629,3.259 3.871,3.172 4.04,2.997 4.209,2.822 4.293,2.552 4.293,2.188 V 0 H 3.759 V 2.008 C 3.759,2.224 3.742,2.38 3.707,2.475 3.672,2.57 3.609,2.646 3.518,2.704 3.426,2.762 3.319,2.791 3.195,2.791 2.973,2.791 2.788,2.717 2.64,2.568 2.493,2.418 2.42,2.18 2.42,1.852 V 0 H 1.883 v 2.071 c 0,0.24 -0.044,0.42 -0.132,0.54 -0.087,0.12 -0.23,0.18 -0.429,0.18 -0.151,0 -0.291,-0.04 -0.419,-0.12 C 0.774,2.591 0.681,2.474 0.624,2.32 0.566,2.166 0.537,1.944 0.537,1.654 V 0 Z" />
        </g>
        <g
           transform="translate(185.7035,204.65)"
           id="g6599">
          <path
             id="path6601"
             style="fill:#2e49a3;fill-opacity:1;fill-rule:nonzero;stroke:none"
             d="m 0,0 0.555,-0.069 c -0.088,-0.326 -0.25,-0.579 -0.486,-0.759 -0.237,-0.18 -0.539,-0.27 -0.907,-0.27 -0.464,0 -0.831,0.143 -1.103,0.43 -0.271,0.287 -0.407,0.69 -0.407,1.208 0,0.536 0.137,0.953 0.412,1.249 0.274,0.296 0.63,0.444 1.068,0.444 0.424,0 0.77,-0.145 1.038,-0.435 C 0.439,1.508 0.573,1.099 0.573,0.573 0.573,0.541 0.572,0.493 0.57,0.429 h -2.363 c 0.02,-0.35 0.118,-0.618 0.295,-0.804 0.177,-0.186 0.398,-0.279 0.663,-0.279 0.197,0 0.365,0.052 0.504,0.156 C -0.192,-0.394 -0.082,-0.228 0,0 M -1.763,0.873 H 0.006 C -0.018,1.141 -0.085,1.342 -0.197,1.477 -0.368,1.685 -0.59,1.789 -0.862,1.789 -1.109,1.789 -1.316,1.706 -1.484,1.54 -1.652,1.373 -1.745,1.151 -1.763,0.873" />
        </g>
        <g
           transform="translate(125.5851,197.8413)"
           id="g6603">
          <path
             id="path6605"
             style="fill:#2e49a3;fill-opacity:1;fill-rule:nonzero;stroke:none"
             d="M 0,0 C 0,0.59 0.163,1.027 0.489,1.311 0.762,1.548 1.094,1.666 1.486,1.666 1.921,1.666 2.277,1.522 2.554,1.235 2.83,0.948 2.969,0.551 2.969,0.045 2.969,-0.365 2.907,-0.688 2.785,-0.923 2.663,-1.158 2.485,-1.341 2.251,-1.471 2.017,-1.601 1.762,-1.666 1.486,-1.666 1.042,-1.666 0.684,-1.523 0.41,-1.237 0.137,-0.95 0,-0.538 0,0 m 0.552,0 c 0,-0.408 0.088,-0.714 0.266,-0.917 0.177,-0.203 0.399,-0.305 0.668,-0.305 0.266,0 0.488,0.102 0.665,0.307 0.177,0.204 0.266,0.515 0.266,0.933 0,0.394 -0.089,0.693 -0.267,0.896 C 1.972,1.117 1.75,1.219 1.486,1.219 1.217,1.219 0.995,1.117 0.818,0.915 0.64,0.713 0.552,0.408 0.552,0" />
        </g>
        <g
           transform="translate(129.3116,196.2476)"
           id="g6607">
          <path
             id="path6609"
             style="fill:#2e49a3;fill-opacity:1;fill-rule:nonzero;stroke:none"
             d="m 0,0 v 2.767 h -0.474 v 0.42 H 0 v 0.339 c 0,0.215 0.019,0.374 0.057,0.478 0.051,0.14 0.142,0.253 0.273,0.34 0.13,0.087 0.312,0.131 0.547,0.131 0.151,0 0.318,-0.018 0.501,-0.054 L 1.298,3.95 C 1.186,3.97 1.081,3.98 0.982,3.98 0.818,3.98 0.703,3.945 0.635,3.875 0.568,3.805 0.534,3.673 0.534,3.481 V 3.187 H 1.152 V 2.767 H 0.534 V 0 Z" />
        </g>
        <g
           transform="translate(133.751,196.7308)"
           id="g6611">
          <path
             id="path6613"
             style="fill:#2e49a3;fill-opacity:1;fill-rule:nonzero;stroke:none"
             d="m 0,0 0.078,-0.477 c -0.152,-0.032 -0.287,-0.048 -0.406,-0.048 -0.195,0 -0.346,0.031 -0.454,0.093 -0.107,0.062 -0.183,0.143 -0.226,0.244 -0.044,0.101 -0.066,0.314 -0.066,0.638 v 1.834 h -0.394 v 0.42 h 0.394 V 3.493 L -0.54,3.818 V 2.704 H 0 V 2.284 H -0.54 V 0.42 c 0,-0.154 0.009,-0.253 0.028,-0.297 0.019,-0.044 0.05,-0.079 0.093,-0.105 0.043,-0.026 0.104,-0.039 0.183,-0.039 0.06,0 0.139,0.007 0.236,0.021" />
        </g>
        <g
           transform="translate(134.2762,196.2476)"
           id="g6615">
          <path
             id="path6617"
             style="fill:#2e49a3;fill-opacity:1;fill-rule:nonzero;stroke:none"
             d="M 0,0 V 4.4 H 0.537 V 2.821 C 0.788,3.113 1.104,3.259 1.486,3.259 1.72,3.259 1.924,3.213 2.097,3.12 2.27,3.027 2.394,2.898 2.469,2.734 2.543,2.57 2.581,2.332 2.581,2.02 V 0 H 2.044 V 2.02 C 2.044,2.29 1.986,2.487 1.869,2.61 1.753,2.733 1.588,2.794 1.375,2.794 1.216,2.794 1.067,2.753 0.926,2.67 0.786,2.587 0.686,2.474 0.627,2.332 0.567,2.19 0.537,1.994 0.537,1.744 V 0 Z" />
        </g>
        <g
           transform="translate(139.8434,197.274)"
           id="g6619">
          <path
             id="path6621"
             style="fill:#2e49a3;fill-opacity:1;fill-rule:nonzero;stroke:none"
             d="m 0,0 0.555,-0.069 c -0.088,-0.326 -0.25,-0.579 -0.486,-0.759 -0.237,-0.18 -0.539,-0.27 -0.907,-0.27 -0.464,0 -0.831,0.143 -1.103,0.43 -0.271,0.287 -0.407,0.69 -0.407,1.208 0,0.536 0.137,0.953 0.412,1.249 0.274,0.296 0.63,0.444 1.068,0.444 0.423,0 0.77,-0.145 1.038,-0.435 C 0.439,1.508 0.573,1.099 0.573,0.573 0.573,0.541 0.572,0.493 0.57,0.429 h -2.363 c 0.02,-0.35 0.118,-0.618 0.295,-0.804 0.177,-0.186 0.398,-0.279 0.663,-0.279 0.196,0 0.365,0.052 0.504,0.156 C -0.192,-0.394 -0.082,-0.228 0,0 M -1.763,0.873 H 0.006 C -0.018,1.141 -0.086,1.343 -0.197,1.477 -0.368,1.685 -0.59,1.789 -0.862,1.789 -1.109,1.789 -1.316,1.706 -1.484,1.54 -1.652,1.374 -1.745,1.151 -1.763,0.873" />
        </g>
        <g
           transform="translate(142.8509,196.2476)"
           id="g6623">
          <path
             id="path6625"
             style="fill:#2e49a3;fill-opacity:1;fill-rule:nonzero;stroke:none"
             d="M 0,0 V 4.4 H 3.163 V 3.881 H 0.579 V 2.533 H 2.998 V 2.017 H 0.579 V 0.519 H 3.264 V 0 Z" />
        </g>
        <g
           transform="translate(148.9224,196.2476)"
           id="g6627">
          <path
             id="path6629"
             style="fill:#2e49a3;fill-opacity:1;fill-rule:nonzero;stroke:none"
             d="m 0,0 v 0.468 c -0.247,-0.36 -0.582,-0.54 -1.005,-0.54 -0.187,0 -0.362,0.036 -0.524,0.108 -0.162,0.072 -0.283,0.163 -0.361,0.272 -0.079,0.109 -0.134,0.242 -0.166,0.4 -0.022,0.106 -0.033,0.274 -0.033,0.505 v 1.974 h 0.538 V 1.42 c 0,-0.283 0.01,-0.473 0.032,-0.571 0.034,-0.142 0.106,-0.253 0.215,-0.334 0.11,-0.081 0.245,-0.122 0.406,-0.122 0.161,0 0.312,0.042 0.453,0.125 0.142,0.083 0.242,0.196 0.3,0.339 0.059,0.143 0.088,0.35 0.088,0.623 V 3.187 H 0.48 V 0 Z" />
        </g>
        <g
           transform="translate(150.2381,196.2476)"
           id="g6631">
          <path
             id="path6633"
             style="fill:#2e49a3;fill-opacity:1;fill-rule:nonzero;stroke:none"
             d="M 0,0 V 3.187 H 0.483 V 2.704 C 0.607,2.93 0.72,3.079 0.825,3.151 0.929,3.223 1.044,3.259 1.17,3.259 1.351,3.259 1.535,3.201 1.721,3.085 L 1.536,2.584 C 1.405,2.662 1.274,2.701 1.143,2.701 1.025,2.701 0.92,2.666 0.826,2.595 0.733,2.523 0.666,2.425 0.627,2.299 0.567,2.107 0.537,1.897 0.537,1.669 V 0 Z" />
        </g>
        <g
           transform="translate(152.079,197.8413)"
           id="g6635">
          <path
             id="path6637"
             style="fill:#2e49a3;fill-opacity:1;fill-rule:nonzero;stroke:none"
             d="M 0,0 C 0,0.59 0.163,1.027 0.489,1.311 0.762,1.548 1.094,1.666 1.486,1.666 1.921,1.666 2.277,1.522 2.554,1.235 2.83,0.948 2.969,0.551 2.969,0.045 2.969,-0.365 2.907,-0.688 2.785,-0.923 2.663,-1.158 2.485,-1.341 2.251,-1.471 2.017,-1.601 1.762,-1.666 1.486,-1.666 1.042,-1.666 0.684,-1.523 0.41,-1.237 0.137,-0.95 0,-0.538 0,0 m 0.552,0 c 0,-0.408 0.088,-0.714 0.266,-0.917 0.177,-0.203 0.399,-0.305 0.668,-0.305 0.266,0 0.488,0.102 0.665,0.307 0.177,0.204 0.266,0.515 0.266,0.933 0,0.394 -0.089,0.693 -0.267,0.896 C 1.972,1.117 1.75,1.219 1.486,1.219 1.217,1.219 0.995,1.117 0.818,0.915 0.64,0.713 0.552,0.408 0.552,0" />
        </g>
        <g
           transform="translate(155.6771,195.026)"
           id="g6639">
          <path
             id="path6641"
             style="fill:#2e49a3;fill-opacity:1;fill-rule:nonzero;stroke:none"
             d="M 0,0 V 4.409 H 0.489 V 3.995 C 0.605,4.157 0.735,4.278 0.88,4.359 1.025,4.44 1.201,4.481 1.408,4.481 1.679,4.481 1.917,4.411 2.124,4.271 2.331,4.131 2.487,3.933 2.593,3.678 2.698,3.423 2.751,3.143 2.751,2.839 2.751,2.513 2.693,2.219 2.576,1.958 2.46,1.697 2.291,1.497 2.069,1.358 1.847,1.219 1.614,1.15 1.369,1.15 1.19,1.15 1.03,1.188 0.888,1.264 0.745,1.34 0.629,1.436 0.537,1.552 V 0 Z m 0.486,2.797 c 0,-0.41 0.083,-0.713 0.248,-0.909 0.165,-0.196 0.365,-0.294 0.6,-0.294 0.238,0 0.443,0.101 0.613,0.304 0.17,0.203 0.255,0.518 0.255,0.944 0,0.406 -0.083,0.711 -0.249,0.913 C 1.787,3.957 1.588,4.058 1.358,4.058 1.129,4.058 0.926,3.95 0.75,3.735 0.574,3.52 0.486,3.207 0.486,2.797" />
        </g>
        <g
           transform="translate(161.2443,197.274)"
           id="g6643">
          <path
             id="path6645"
             style="fill:#2e49a3;fill-opacity:1;fill-rule:nonzero;stroke:none"
             d="m 0,0 0.555,-0.069 c -0.088,-0.326 -0.25,-0.579 -0.486,-0.759 -0.237,-0.18 -0.539,-0.27 -0.907,-0.27 -0.464,0 -0.831,0.143 -1.103,0.43 -0.271,0.287 -0.407,0.69 -0.407,1.208 0,0.536 0.137,0.953 0.412,1.249 0.274,0.296 0.63,0.444 1.068,0.444 0.423,0 0.77,-0.145 1.038,-0.435 C 0.439,1.508 0.573,1.099 0.573,0.573 0.573,0.541 0.572,0.493 0.57,0.429 h -2.363 c 0.02,-0.35 0.118,-0.618 0.295,-0.804 0.177,-0.186 0.398,-0.279 0.663,-0.279 0.197,0 0.365,0.052 0.504,0.156 C -0.192,-0.394 -0.082,-0.228 0,0 M -1.763,0.873 H 0.006 C -0.018,1.141 -0.085,1.343 -0.197,1.477 -0.368,1.685 -0.59,1.789 -0.862,1.789 -1.109,1.789 -1.316,1.706 -1.484,1.54 -1.652,1.374 -1.745,1.151 -1.763,0.873" />
        </g>
        <g
           transform="translate(164.5413,196.6408)"
           id="g6647">
          <path
             id="path6649"
             style="fill:#2e49a3;fill-opacity:1;fill-rule:nonzero;stroke:none"
             d="m 0,0 c -0.199,-0.17 -0.39,-0.29 -0.574,-0.36 -0.184,-0.07 -0.382,-0.105 -0.593,-0.105 -0.348,0 -0.615,0.085 -0.802,0.256 -0.187,0.171 -0.281,0.39 -0.281,0.656 0,0.156 0.036,0.299 0.106,0.428 0.071,0.129 0.163,0.232 0.278,0.31 0.114,0.079 0.243,0.137 0.386,0.178 0.106,0.028 0.265,0.055 0.478,0.081 0.433,0.052 0.752,0.114 0.957,0.186 0.002,0.074 0.003,0.121 0.003,0.141 0,0.22 -0.05,0.375 -0.152,0.465 -0.137,0.122 -0.341,0.183 -0.612,0.183 -0.252,0 -0.439,-0.045 -0.559,-0.134 -0.12,-0.089 -0.209,-0.246 -0.267,-0.472 l -0.525,0.072 c 0.048,0.226 0.126,0.408 0.236,0.548 0.109,0.139 0.267,0.246 0.474,0.321 0.207,0.075 0.446,0.112 0.719,0.112 0.27,0 0.49,-0.032 0.659,-0.096 C 0.1,2.706 0.225,2.626 0.304,2.529 0.384,2.432 0.44,2.309 0.471,2.161 0.489,2.069 0.498,1.903 0.498,1.663 V 0.942 c 0,-0.502 0.012,-0.819 0.035,-0.953 0.022,-0.133 0.068,-0.26 0.135,-0.382 H 0.107 C 0.052,-0.281 0.016,-0.15 0,0 M -0.045,1.206 C -0.24,1.126 -0.532,1.058 -0.922,1.002 -1.143,0.97 -1.299,0.934 -1.39,0.894 -1.482,0.854 -1.553,0.796 -1.602,0.719 -1.652,0.642 -1.677,0.556 -1.677,0.462 c 0,-0.144 0.054,-0.264 0.163,-0.36 0.108,-0.096 0.267,-0.144 0.476,-0.144 0.207,0 0.391,0.045 0.552,0.137 0.161,0.091 0.279,0.215 0.355,0.373 0.057,0.122 0.086,0.302 0.086,0.54 z" />
        </g>
        <g
           transform="translate(165.8718,196.2476)"
           id="g6651">
          <path
             id="path6653"
             style="fill:#2e49a3;fill-opacity:1;fill-rule:nonzero;stroke:none"
             d="M 0,0 V 3.187 H 0.483 V 2.734 c 0.233,0.35 0.569,0.525 1.009,0.525 0.191,0 0.366,-0.034 0.526,-0.103 0.16,-0.069 0.28,-0.16 0.36,-0.272 C 2.457,2.772 2.513,2.639 2.545,2.485 2.565,2.385 2.575,2.21 2.575,1.96 V 0 H 2.038 v 1.939 c 0,0.22 -0.021,0.384 -0.063,0.494 C 1.933,2.542 1.859,2.629 1.753,2.694 1.646,2.759 1.522,2.791 1.378,2.791 1.15,2.791 0.952,2.718 0.786,2.572 0.62,2.426 0.537,2.149 0.537,1.741 V 0 Z" />
        </g>
        <g
           transform="translate(173.9067,200.6474)"
           id="g6655">
          <path
             id="path6657"
             style="fill:#2e49a3;fill-opacity:1;fill-rule:nonzero;stroke:none"
             d="m 0,0 h 0.579 v -2.542 c 0,-0.442 -0.05,-0.793 -0.149,-1.054 -0.1,-0.26 -0.279,-0.471 -0.539,-0.634 -0.259,-0.163 -0.6,-0.245 -1.022,-0.245 -0.41,0 -0.745,0.071 -1.005,0.213 -0.261,0.142 -0.447,0.348 -0.558,0.617 -0.112,0.269 -0.167,0.637 -0.167,1.103 V 0 h 0.579 v -2.539 c 0,-0.382 0.035,-0.664 0.105,-0.845 0.071,-0.181 0.192,-0.321 0.364,-0.419 0.172,-0.098 0.383,-0.147 0.631,-0.147 0.426,0 0.729,0.097 0.91,0.291 C -0.091,-3.464 0,-3.091 0,-2.539 Z" />
        </g>
        <g
           transform="translate(175.3805,196.2476)"
           id="g6659">
          <path
             id="path6661"
             style="fill:#2e49a3;fill-opacity:1;fill-rule:nonzero;stroke:none"
             d="M 0,0 V 3.187 H 0.483 V 2.734 c 0.233,0.35 0.569,0.525 1.009,0.525 0.191,0 0.366,-0.034 0.526,-0.103 0.16,-0.069 0.28,-0.16 0.36,-0.272 C 2.457,2.772 2.513,2.639 2.545,2.485 2.565,2.385 2.575,2.21 2.575,1.96 V 0 H 2.038 v 1.939 c 0,0.22 -0.021,0.384 -0.063,0.494 C 1.933,2.542 1.859,2.629 1.753,2.694 1.646,2.759 1.522,2.791 1.378,2.791 1.15,2.791 0.952,2.718 0.786,2.572 0.62,2.426 0.537,2.149 0.537,1.741 V 0 Z" />
        </g>
        <path
           id="path6663"
           style="fill:#2e49a3;fill-opacity:1;fill-rule:nonzero;stroke:none"
           d="m 178.782,200.647 h 0.537 v -0.621 h -0.537 z m 0,-1.212 h 0.537 v -3.187 h -0.537 z" />
        <g
           transform="translate(179.9364,197.8413)"
           id="g6665">
          <path
             id="path6667"
             style="fill:#2e49a3;fill-opacity:1;fill-rule:nonzero;stroke:none"
             d="M 0,0 C 0,0.59 0.163,1.027 0.489,1.311 0.762,1.548 1.094,1.666 1.486,1.666 1.921,1.666 2.277,1.522 2.554,1.235 2.83,0.948 2.969,0.551 2.969,0.045 2.969,-0.365 2.907,-0.688 2.785,-0.923 2.663,-1.158 2.485,-1.341 2.251,-1.471 2.017,-1.601 1.762,-1.666 1.486,-1.666 1.042,-1.666 0.684,-1.523 0.41,-1.237 0.137,-0.95 0,-0.538 0,0 m 0.552,0 c 0,-0.408 0.088,-0.714 0.265,-0.917 0.177,-0.203 0.4,-0.305 0.669,-0.305 0.266,0 0.488,0.102 0.665,0.307 0.177,0.204 0.266,0.515 0.266,0.933 0,0.394 -0.089,0.693 -0.267,0.896 C 1.972,1.117 1.75,1.219 1.486,1.219 1.217,1.219 0.994,1.117 0.817,0.915 0.64,0.713 0.552,0.408 0.552,0" />
        </g>
        <g
           transform="translate(183.5345,196.2476)"
           id="g6669">
          <path
             id="path6671"
             style="fill:#2e49a3;fill-opacity:1;fill-rule:nonzero;stroke:none"
             d="M 0,0 V 3.187 H 0.483 V 2.734 c 0.233,0.35 0.569,0.525 1.009,0.525 0.191,0 0.366,-0.034 0.526,-0.103 0.16,-0.069 0.28,-0.16 0.36,-0.272 C 2.457,2.772 2.513,2.639 2.545,2.485 2.565,2.385 2.575,2.21 2.575,1.96 V 0 H 2.038 v 1.939 c 0,0.22 -0.021,0.384 -0.063,0.494 C 1.933,2.542 1.859,2.629 1.753,2.694 1.646,2.759 1.522,2.791 1.378,2.791 1.15,2.791 0.952,2.718 0.786,2.572 0.62,2.426 0.537,2.149 0.537,1.741 V 0 Z" />
        </g>
        <path
           id="path6673"
           style="fill:#2e49a3;fill-opacity:1;fill-rule:nonzero;stroke:none"
           d="m 220.254,215.53 h -29.02 v -19.265 h 29.02 z" />
        <g
           transform="translate(213.0202,206.2076)"
           id="g6675">
          <path
             id="path6677"
             style="fill:#f3f020;fill-opacity:1;fill-rule:nonzero;stroke:none"
             d="M 0,0 -0.303,0.006 -0.751,0.014 -0.898,0.407 -0.991,0.659 -1.084,0.407 -1.23,0.014 -1.678,0.006 -1.981,0 l 0.247,-0.177 0.351,-0.25 -0.128,-0.392 -0.086,-0.267 0.236,0.154 0.37,0.239 0.37,-0.239 0.237,-0.154 -0.088,0.267 -0.127,0.392 0.352,0.25 z" />
        </g>
        <g
           transform="translate(213.0202,206.2076)"
           id="g6679">
          <path
             id="path6681"
             style="fill:none;stroke:#f3f020;stroke-width:0.12899999;stroke-linecap:butt;stroke-linejoin:miter;stroke-miterlimit:4;stroke-dasharray:none;stroke-opacity:1"
             d="M 0,0 -0.303,0.006 -0.751,0.014 -0.898,0.407 -0.991,0.659 -1.084,0.407 -1.23,0.014 -1.678,0.006 -1.981,0 l 0.247,-0.177 0.351,-0.25 -0.128,-0.392 -0.086,-0.267 0.236,0.154 0.37,0.239 0.37,-0.239 0.237,-0.154 -0.088,0.267 -0.127,0.392 0.352,0.25 z" />
        </g>
        <g
           transform="translate(210.7981,208.8883)"
           id="g6683">
          <path
             id="path6685"
             style="fill:#f3f020;fill-opacity:1;fill-rule:nonzero;stroke:none"
             d="m 0,0 -0.126,-0.393 -0.087,-0.269 0.236,0.154 0.368,0.242 0.37,-0.242 L 0.997,-0.662 0.911,-0.393 0.783,0 1.136,0.249 1.383,0.425 1.08,0.431 0.632,0.438 0.485,0.832 0.391,1.085 0.296,0.832 0.153,0.438 -0.295,0.431 -0.599,0.425 -0.352,0.249 Z" />
        </g>
        <g
           transform="translate(210.7981,208.8883)"
           id="g6687">
          <path
             id="path6689"
             style="fill:none;stroke:#f3f020;stroke-width:0.12899999;stroke-linecap:butt;stroke-linejoin:miter;stroke-miterlimit:4;stroke-dasharray:none;stroke-opacity:1"
             d="m 0,0 -0.126,-0.393 -0.087,-0.269 0.236,0.154 0.368,0.242 0.37,-0.242 L 0.997,-0.662 0.911,-0.393 0.783,0 1.136,0.249 1.383,0.425 1.08,0.431 0.632,0.438 0.485,0.832 0.391,1.085 0.296,0.832 0.153,0.438 -0.295,0.431 -0.599,0.425 -0.352,0.249 Z" />
        </g>
        <g
           transform="translate(209.1501,211.5855)"
           id="g6691">
          <path
             id="path6693"
             style="fill:#f3f020;fill-opacity:1;fill-rule:nonzero;stroke:none"
             d="M 0,0 -0.147,0.393 -0.241,0.646 -0.335,0.393 -0.481,0 l -0.447,-0.008 -0.305,-0.007 0.248,-0.176 0.352,-0.25 -0.126,-0.393 -0.088,-0.267 0.237,0.153 0.369,0.241 0.368,-0.241 0.238,-0.153 -0.088,0.267 -0.126,0.393 0.351,0.25 0.248,0.176 -0.301,0.007 z" />
        </g>
        <g
           transform="translate(209.1501,211.5855)"
           id="g6695">
          <path
             id="path6697"
             style="fill:none;stroke:#f3f020;stroke-width:0.12899999;stroke-linecap:butt;stroke-linejoin:miter;stroke-miterlimit:4;stroke-dasharray:none;stroke-opacity:1"
             d="M 0,0 -0.147,0.393 -0.241,0.646 -0.335,0.393 -0.481,0 l -0.447,-0.008 -0.305,-0.007 0.248,-0.176 0.352,-0.25 -0.126,-0.393 -0.088,-0.267 0.237,0.153 0.369,0.241 0.368,-0.241 0.238,-0.153 -0.088,0.267 -0.126,0.393 0.351,0.25 0.248,0.176 -0.301,0.007 z" />
        </g>
        <g
           transform="translate(205.9597,212.4174)"
           id="g6699">
          <path
             id="path6701"
             style="fill:#f3f020;fill-opacity:1;fill-rule:nonzero;stroke:none"
             d="M 0,0 -0.147,0.393 -0.241,0.645 -0.335,0.393 -0.48,0 l -0.448,-0.01 -0.303,-0.005 0.247,-0.174 0.353,-0.251 -0.128,-0.393 -0.087,-0.269 0.237,0.154 0.368,0.241 0.37,-0.241 0.237,-0.154 -0.087,0.269 -0.127,0.393 0.352,0.251 0.247,0.174 -0.303,0.005 z" />
        </g>
        <g
           transform="translate(205.9597,212.4174)"
           id="g6703">
          <path
             id="path6705"
             style="fill:none;stroke:#f3f020;stroke-width:0.12899999;stroke-linecap:butt;stroke-linejoin:miter;stroke-miterlimit:4;stroke-dasharray:none;stroke-opacity:1"
             d="M 0,0 -0.147,0.393 -0.241,0.645 -0.335,0.393 -0.48,0 l -0.448,-0.01 -0.303,-0.005 0.247,-0.174 0.353,-0.251 -0.128,-0.393 -0.087,-0.269 0.237,0.154 0.368,0.241 0.37,-0.241 0.237,-0.154 -0.087,0.269 -0.127,0.393 0.352,0.251 0.247,0.174 -0.303,0.005 z" />
        </g>
        <g
           transform="translate(202.7976,211.5855)"
           id="g6707">
          <path
             id="path6709"
             style="fill:#f3f020;fill-opacity:1;fill-rule:nonzero;stroke:none"
             d="M 0,0 -0.146,0.393 -0.239,0.646 -0.332,0.393 -0.479,0 -0.927,-0.007 -1.23,-0.014 l 0.246,-0.175 0.353,-0.249 -0.127,-0.393 -0.087,-0.27 0.236,0.155 0.37,0.241 0.369,-0.241 0.236,-0.155 -0.086,0.27 -0.127,0.393 0.351,0.249 0.248,0.175 -0.304,0.007 z" />
        </g>
        <g
           transform="translate(202.7976,211.5855)"
           id="g6711">
          <path
             id="path6713"
             style="fill:none;stroke:#f3f020;stroke-width:0.12899999;stroke-linecap:butt;stroke-linejoin:miter;stroke-miterlimit:4;stroke-dasharray:none;stroke-opacity:1"
             d="M 0,0 -0.146,0.393 -0.239,0.646 -0.332,0.393 -0.479,0 -0.927,-0.007 -1.23,-0.014 l 0.246,-0.175 0.353,-0.249 -0.127,-0.393 -0.087,-0.27 0.236,0.155 0.37,0.241 0.369,-0.241 0.236,-0.155 -0.086,0.27 -0.127,0.393 0.351,0.249 0.248,0.175 -0.304,0.007 z" />
        </g>
        <g
           transform="translate(200.4973,209.3495)"
           id="g6715">
          <path
             id="path6717"
             style="fill:#f3f020;fill-opacity:1;fill-rule:nonzero;stroke:none"
             d="M 0,0 -0.145,0.393 -0.24,0.646 -0.334,0.393 -0.48,0 -0.927,-0.008 -1.23,-0.014 -0.984,-0.19 -0.63,-0.441 -0.76,-0.833 -0.844,-1.1 l 0.235,0.152 0.369,0.242 0.37,-0.242 0.236,-0.153 -0.088,0.268 -0.126,0.392 0.353,0.251 0.246,0.176 -0.304,0.006 z" />
        </g>
        <g
           transform="translate(200.4973,209.3495)"
           id="g6719">
          <path
             id="path6721"
             style="fill:none;stroke:#f3f020;stroke-width:0.12899999;stroke-linecap:butt;stroke-linejoin:miter;stroke-miterlimit:4;stroke-dasharray:none;stroke-opacity:1"
             d="M 0,0 -0.145,0.393 -0.24,0.646 -0.334,0.393 -0.48,0 -0.927,-0.008 -1.23,-0.014 -0.984,-0.19 -0.63,-0.441 -0.76,-0.833 -0.844,-1.1 l 0.235,0.152 0.369,0.242 0.37,-0.242 0.236,-0.153 -0.088,0.268 -0.126,0.392 0.353,0.251 0.246,0.176 -0.304,0.006 z" />
        </g>
        <g
           transform="translate(199.7671,205.2808)"
           id="g6723">
          <path
             id="path6725"
             style="fill:#f3f020;fill-opacity:1;fill-rule:nonzero;stroke:none"
             d="M 0,0 0.236,-0.155 0.149,0.114 0.022,0.506 0.373,0.758 0.621,0.932 0.317,0.939 -0.131,0.946 -0.276,1.34 -0.369,1.592 -0.463,1.34 -0.609,0.946 -1.058,0.939 -1.361,0.932 -1.114,0.758 -0.761,0.506 -0.887,0.114 -0.976,-0.155 -0.74,0 -0.369,0.242 Z" />
        </g>
        <g
           transform="translate(199.7671,205.2808)"
           id="g6727">
          <path
             id="path6729"
             style="fill:none;stroke:#f3f020;stroke-width:0.12899999;stroke-linecap:butt;stroke-linejoin:miter;stroke-miterlimit:4;stroke-dasharray:none;stroke-opacity:1"
             d="M 0,0 0.236,-0.155 0.149,0.114 0.022,0.506 0.373,0.758 0.621,0.932 0.317,0.939 -0.131,0.946 -0.276,1.34 -0.369,1.592 -0.463,1.34 -0.609,0.946 -1.058,0.939 -1.361,0.932 -1.114,0.758 -0.761,0.506 -0.887,0.114 -0.976,-0.155 -0.74,0 -0.369,0.242 Z" />
        </g>
        <g
           transform="translate(200.4862,203.1452)"
           id="g6731">
          <path
             id="path6733"
             style="fill:#f3f020;fill-opacity:1;fill-rule:nonzero;stroke:none"
             d="M 0,0 -0.147,0.392 -0.24,0.646 -0.335,0.392 -0.48,0 -0.929,-0.009 -1.23,-0.016 l 0.246,-0.173 0.352,-0.252 -0.128,-0.392 -0.087,-0.268 0.238,0.154 0.368,0.241 0.369,-0.241 0.235,-0.155 -0.085,0.269 -0.127,0.392 0.352,0.252 0.246,0.173 -0.302,0.007 z" />
        </g>
        <g
           transform="translate(200.4862,203.1452)"
           id="g6735">
          <path
             id="path6737"
             style="fill:none;stroke:#f3f020;stroke-width:0.12899999;stroke-linecap:butt;stroke-linejoin:miter;stroke-miterlimit:4;stroke-dasharray:none;stroke-opacity:1"
             d="M 0,0 -0.147,0.392 -0.24,0.646 -0.335,0.392 -0.48,0 -0.929,-0.009 -1.23,-0.016 l 0.246,-0.173 0.352,-0.252 -0.128,-0.392 -0.087,-0.268 0.238,0.154 0.368,0.241 0.369,-0.241 0.235,-0.155 -0.085,0.269 -0.127,0.392 0.352,0.252 0.246,0.173 -0.302,0.007 z" />
        </g>
        <g
           transform="translate(202.7706,200.8893)"
           id="g6739">
          <path
             id="path6741"
             style="fill:#f3f020;fill-opacity:1;fill-rule:nonzero;stroke:none"
             d="M 0,0 -0.146,0.395 -0.239,0.648 -0.333,0.395 -0.479,0 -0.927,-0.007 -1.23,-0.013 -0.982,-0.188 -0.631,-0.439 -0.76,-0.831 -0.846,-1.1 l 0.236,0.154 0.371,0.24 0.368,-0.24 0.237,-0.154 -0.088,0.269 -0.126,0.392 0.352,0.251 0.246,0.175 -0.302,0.006 z" />
        </g>
        <g
           transform="translate(202.7706,200.8893)"
           id="g6743">
          <path
             id="path6745"
             style="fill:none;stroke:#f3f020;stroke-width:0.12899999;stroke-linecap:butt;stroke-linejoin:miter;stroke-miterlimit:4;stroke-dasharray:none;stroke-opacity:1"
             d="M 0,0 -0.146,0.395 -0.239,0.648 -0.333,0.395 -0.479,0 -0.927,-0.007 -1.23,-0.013 -0.982,-0.188 -0.631,-0.439 -0.76,-0.831 -0.846,-1.1 l 0.236,0.154 0.371,0.24 0.368,-0.24 0.237,-0.154 -0.088,0.269 -0.126,0.392 0.352,0.251 0.246,0.175 -0.302,0.006 z" />
        </g>
        <g
           transform="translate(205.9569,200.0559)"
           id="g6747">
          <path
             id="path6749"
             style="fill:#f3f020;fill-opacity:1;fill-rule:nonzero;stroke:none"
             d="M 0,0 -0.145,0.393 -0.24,0.646 -0.332,0.393 -0.479,0 -0.927,-0.008 -1.23,-0.014 l 0.247,-0.175 0.353,-0.25 -0.128,-0.393 -0.086,-0.269 0.235,0.154 0.369,0.241 0.37,-0.241 0.235,-0.154 -0.084,0.269 -0.128,0.393 0.351,0.25 0.247,0.175 -0.301,0.006 z" />
        </g>
        <g
           transform="translate(205.9569,200.0559)"
           id="g6751">
          <path
             id="path6753"
             style="fill:none;stroke:#f3f020;stroke-width:0.12899999;stroke-linecap:butt;stroke-linejoin:miter;stroke-miterlimit:4;stroke-dasharray:none;stroke-opacity:1"
             d="M 0,0 -0.145,0.393 -0.24,0.646 -0.332,0.393 -0.479,0 -0.927,-0.008 -1.23,-0.014 l 0.247,-0.175 0.353,-0.25 -0.128,-0.393 -0.086,-0.269 0.235,0.154 0.369,0.241 0.37,-0.241 0.235,-0.154 -0.084,0.269 -0.128,0.393 0.351,0.25 0.247,0.175 -0.301,0.006 z" />
        </g>
        <g
           transform="translate(209.1197,200.8746)"
           id="g6755">
          <path
             id="path6757"
             style="fill:#f3f020;fill-opacity:1;fill-rule:nonzero;stroke:none"
             d="M 0,0 -0.146,0.392 -0.241,0.646 -0.333,0.392 -0.478,0 l -0.448,-0.01 -0.303,-0.005 0.247,-0.175 0.352,-0.251 -0.127,-0.392 -0.087,-0.269 0.235,0.154 0.368,0.241 0.372,-0.241 0.235,-0.154 -0.086,0.269 -0.127,0.392 0.352,0.251 0.247,0.175 -0.304,0.005 z" />
        </g>
        <g
           transform="translate(209.1197,200.8746)"
           id="g6759">
          <path
             id="path6761"
             style="fill:none;stroke:#f3f020;stroke-width:0.12899999;stroke-linecap:butt;stroke-linejoin:miter;stroke-miterlimit:4;stroke-dasharray:none;stroke-opacity:1"
             d="M 0,0 -0.146,0.392 -0.241,0.646 -0.333,0.392 -0.478,0 l -0.448,-0.01 -0.303,-0.005 0.247,-0.175 0.352,-0.251 -0.127,-0.392 -0.087,-0.269 0.235,0.154 0.368,0.241 0.372,-0.241 0.235,-0.154 -0.086,0.269 -0.127,0.392 0.352,0.251 0.247,0.175 -0.304,0.005 z" />
        </g>
        <g
           transform="translate(211.4173,203.1176)"
           id="g6763">
          <path
             id="path6765"
             style="fill:#f3f020;fill-opacity:1;fill-rule:nonzero;stroke:none"
             d="M 0,0 -0.146,0.393 -0.238,0.646 -0.333,0.393 -0.479,0 -0.926,-0.008 -1.23,-0.013 l 0.248,-0.177 0.351,-0.249 -0.127,-0.394 -0.085,-0.268 0.234,0.153 0.371,0.243 0.369,-0.243 0.235,-0.153 -0.085,0.268 -0.128,0.394 0.351,0.249 0.248,0.177 -0.303,0.005 z" />
        </g>
        <g
           transform="translate(211.4173,203.1176)"
           id="g6767">
          <path
             id="path6769"
             style="fill:none;stroke:#f3f020;stroke-width:0.12899999;stroke-linecap:butt;stroke-linejoin:miter;stroke-miterlimit:4;stroke-dasharray:none;stroke-opacity:1"
             d="M 0,0 -0.146,0.393 -0.238,0.646 -0.333,0.393 -0.479,0 -0.926,-0.008 -1.23,-0.013 l 0.248,-0.177 0.351,-0.249 -0.127,-0.394 -0.085,-0.268 0.234,0.153 0.371,0.243 0.369,-0.243 0.235,-0.153 -0.085,0.268 -0.128,0.394 0.351,0.249 0.248,0.177 -0.303,0.005 z" />
        </g>
      </g>
    </g>
  </g>
</svg>
