<?xml version="1.0" encoding="UTF-8" standalone="no"?>
<svg
   xmlns:dc="http://purl.org/dc/elements/1.1/"
   xmlns:cc="http://creativecommons.org/ns#"
   xmlns:rdf="http://www.w3.org/1999/02/22-rdf-syntax-ns#"
   xmlns:svg="http://www.w3.org/2000/svg"
   xmlns="http://www.w3.org/2000/svg"
   id="svg10382"
   version="1.1"
   viewBox="0 0 26.036646 29.047342"
   height="29.047342mm"
   width="26.036646mm">
  <defs
     id="defs10376">
    <clipPath
       id="clipPath9383"
       clipPathUnits="userSpaceOnUse">
      <path
         id="path9381"
         d="m 705.827,512.936 h 73.805 v 82.339 h -73.805 z" />
    </clipPath>
  </defs>
  <metadata
     id="metadata10379">
    <rdf:RDF>
      <cc:Work
         rdf:about="">
        <dc:format>image/svg+xml</dc:format>
        <dc:type
           rdf:resource="http://purl.org/dc/dcmitype/StillImage" />
        <dc:title></dc:title>
      </cc:Work>
    </rdf:RDF>
  </metadata>
  <g
     transform="translate(-36.118577,-79.881093)"
     id="layer1">
    <g
       id="g9377"
       transform="matrix(0.35277777,0,0,-0.35277777,-212.88151,289.88088)">
      <g
         clip-path="url(#clipPath9383)"
         id="g9379">
        <g
           transform="translate(742.6368,532.8567)"
           id="g9385">
          <path
             id="path9387"
             style="fill:#000000;fill-opacity:1;fill-rule:nonzero;stroke:none"
             d="m 0,0 c -0.172,-0.075 -0.49,-0.382 -0.601,-0.482 -0.878,-0.802 -1.179,-1.043 -2.364,-1.208 -0.399,-0.054 -0.721,-0.071 -0.721,-0.071 -0.057,-0.003 -0.101,0.042 -0.099,0.098 l 0.123,3.022 c 0.002,0.044 0.045,0.088 0.089,0.09 0,0 0.594,0.03 1.333,0.205 0.74,0.175 1.609,0.492 2.176,1.055 C 1.351,4.984 2.713,6.232 3.542,6.558 4.399,7.148 6.499,7.383 6.614,6.067 6.814,3.806 2.752,3.457 2.898,1.581 3.479,1.489 4.165,1.982 4.961,2.59 5.699,3.153 6.626,3.902 7.571,4.037 8.266,4.197 8.89,2.778 9.192,2.318 9.214,2.285 9.325,2.117 9.379,2.102 9.73,2.3 11.971,2.871 12.677,2.679 13.474,2.461 15.235,0.06 13.42,-0.524 c -0.48,-0.005 -0.721,0.088 -0.909,0.478 l -0.08,0.169 C 12.201,0.602 11.976,0.801 11.39,0.729 11.206,0.707 11.019,0.66 10.845,0.593 L 8.636,-0.82 C 8.531,-0.869 8.476,-0.883 8.404,-0.883 7.737,-0.883 7.461,-0.034 7.245,0.453 7.053,0.888 6.87,1.214 6.649,1.264 6.152,1.376 3.587,-1.017 2.899,-1.498 2.273,-1.938 1.979,-2.09 1.376,-1.686 0.835,-1.322 0.437,-0.169 0,0 M 2.001,3.263 C 2.023,3 5.189,4.784 5.196,5.623 5.21,6.911 1.927,4.197 2.001,3.263" />
        </g>
        <g
           transform="translate(731.1345,533.5022)"
           id="g9389">
          <path
             id="path9391"
             style="fill:#000000;fill-opacity:1;fill-rule:nonzero;stroke:none"
             d="m 0,0 c -1.054,-0.052 -1.318,0.75 -1.685,1.518 -0.13,0.27 -0.29,0.584 -0.657,0.498 -2.207,0.057 -0.966,-3.12 -4.014,-3.682 -3.56,1.432 -1.464,8.048 -0.116,7.709 0.282,-0.139 0.141,-0.546 0.075,-0.745 -0.358,-1.071 -1.151,-2.529 0.65,-2.915 0.426,-0.197 1.355,0.302 2.422,0.911 0.648,0.371 2.063,1.248 2.818,1.211 C 2.433,4.31 0.417,0.013 0,0" />
        </g>
        <g
           transform="translate(739.8713,530.0481)"
           id="g9393">
          <path
             id="path9395"
             style="fill:#000000;fill-opacity:1;fill-rule:nonzero;stroke:none"
             d="m 0,0 c -0.334,-2.352 -1.306,-5.299 -3.857,-7.666 -0.276,-0.256 -2.849,-2.272 -3.224,-2.137 0,0 -0.294,0.106 -0.626,0.293 -0.326,0.183 -0.711,0.456 -0.87,0.801 -0.293,0.633 -0.552,1.408 0.188,1.922 1.787,1.238 3.023,2.431 3.811,3.311 0.785,0.878 1.126,1.447 1.126,1.447 0,0 0.252,0.434 0.554,1.058 0.303,0.623 0.656,1.435 0.86,2.191 0.406,1.504 0.225,2.664 -2.063,1.807 -2.127,0.512 -2.826,5.524 0.749,6.41 1.515,0.002 3.014,-1.119 3.014,-1.82 0,-1.412 -1.113,-1.037 -1.947,-0.681 C -3.604,7.004 -3.954,5.473 -1.728,5.49 -1.087,5.262 -0.317,4.744 0.021,4.148 0.031,4.117 0.107,3.676 0.142,2.938 0.175,2.204 0.167,1.176 0,0" />
        </g>
        <g
           transform="translate(760.0012,537.1819)"
           id="g9397">
          <path
             id="path9399"
             style="fill:#000000;fill-opacity:1;fill-rule:nonzero;stroke:none"
             d="m 0,0 c 0.282,0.03 0.599,-0.045 0.852,-0.392 0.851,-0.623 -0.895,-2.131 0.197,-2.368 0.655,0.075 2.058,0.294 2.448,1.039 0.045,0.086 0.066,0.156 0.081,0.198 C 3.53,-0.288 3.414,0.642 3.734,1.872 4.06,3.128 4.838,4.739 6.575,7.456 6.773,7.569 6.928,7.683 7.114,7.689 7.332,7.697 7.531,7.558 7.725,7.196 7.926,6.273 7.281,4.529 6.592,2.811 6.168,1.756 5.16,-0.507 5.053,-1.594 5.063,-1.638 5.063,-1.683 5.06,-1.726 L 5.044,-1.888 C 4.96,-2.69 5.477,-3.423 5.965,-4.004 6.153,-4.419 6.081,-4.784 5.562,-4.78 4.873,-4.725 4.576,-4.249 4.281,-3.721 4.035,-3.28 3.902,-3.075 3.5,-3.382 2.49,-4.149 3.143,-5.11 1.217,-5.549 -0.303,-5.991 -1.996,-3.257 -0.681,-0.258 -0.634,-0.151 -0.104,-0.011 0,0" />
        </g>
        <g
           transform="translate(722.3962,513.468)"
           id="g9401">
          <path
             id="path9403"
             style="fill:#ffe100;fill-opacity:1;fill-rule:nonzero;stroke:none"
             d="m 0,0 c 0.124,0.199 0.426,0.404 0.609,0.444 2.146,1.103 8.783,2.733 12.698,3.268 3.607,0.669 19.274,2.725 38.08,-2.02 0.44,-10e-4 1.648,-0.756 0.96,-1.032 C 52.158,0.584 51.801,0.574 51.223,0.643 50.488,0.643 38.466,2.025 35.927,2.126 19.609,2.773 13.5,1.688 0.673,-0.531 0.348,-0.542 -0.289,-0.46 0,0" />
        </g>
        <g
           transform="translate(708.9142,550.97)"
           id="g9405">
          <path
             id="path9407"
             style="fill:#000000;fill-opacity:1;fill-rule:nonzero;stroke:none"
             d="M 0,0 C 1.765,1.071 4.029,2.157 5.966,2.164 16.999,1.186 12.5,-11.148 9.709,-17.01 c -1.246,-2.619 -2.662,-5.092 -4.533,-7.329 -1.606,-1.923 -3.709,-3.788 -5.562,-3.246 -0.759,0.356 -1.788,2.829 -2.099,3.649 -0.026,0.068 0.011,0.123 0.084,0.127 0,0 0.356,0.018 0.892,0.105 0.538,0.088 1.253,0.245 1.97,0.526 1.821,0.757 8.561,8.565 10.286,20.388 -4.438,4.157 -13.418,0.075 -13.441,0.065 -0.147,-0.067 -0.492,0.473 -0.366,0.577 0,0 1.29,1.073 3.06,2.148" />
        </g>
        <g
           transform="translate(778.295,547.6204)"
           id="g9409">
          <path
             id="path9411"
             style="fill:#000000;fill-opacity:1;fill-rule:nonzero;stroke:none"
             d="m 0,0 c 0.306,0.212 0.666,0.115 0.94,-0.505 1.196,-4.22 -0.552,-9.99 -2.068,-11.753 -0.458,-0.631 -1.414,-0.907 -1.539,0.362 -0.638,2.182 2.541,10.173 2.262,11.146 C -0.434,-0.545 -0.249,-0.171 0,0" />
        </g>
        <g
           transform="translate(774.3605,532.5823)"
           id="g9413">
          <path
             id="path9415"
             style="fill:#000000;fill-opacity:1;fill-rule:nonzero;stroke:none"
             d="M 0,0 C 0.161,0.257 0.442,0.352 0.863,0.125 1.839,-0.594 2.729,-2.227 2.656,-3.281 2.617,-3.556 2.578,-3.884 2.363,-4.085 2.122,-4.312 1.723,-4.316 1.082,-3.989 -0.259,-2.582 -0.23,-1.19 -0.193,-0.759 -0.176,-0.556 -0.141,-0.226 0,0" />
        </g>
        <path
           id="path9417"
           style="fill:#e2001a;fill-opacity:1;fill-rule:nonzero;stroke:none"
           d="m 723.292,603.78 h 47.081 v -55.741 h -47.081 z" />
        <g
           transform="translate(752.8029,571.9622)"
           id="g9419">
          <path
             id="path9421"
             style="fill:#ffffff;fill-opacity:1;fill-rule:nonzero;stroke:none"
             d="m 0,0 c 0,0 -1.41,3.715 -6.017,3.715 -4.462,0 -6.62,-3.859 -6.62,-6.68 0,-2.619 2.158,-6.478 6.706,-6.478 4.549,0 7.053,4.318 6.566,7.514 -0.005,0.028 -6.708,0 -6.708,0 v -2.177 h 4.211 c 0,-0.372 -1.012,-3.081 -4.184,-3.081 -3.021,0 -4.371,2.424 -4.371,4.222 0,1.738 1.377,4.333 4.371,4.333 2.772,0 3.913,-2.166 3.913,-2.166 L 0,0" />
        </g>
        <g
           transform="translate(732.0124,554.2327)"
           id="g9423">
          <path
             id="path9425"
             style="fill:#ffffff;fill-opacity:1;fill-rule:nonzero;stroke:none"
             d="m 0,0 6.538,12.56 8.332,-9.968 8.117,10.043 6.652,-12.56 h -2.666 l -4.392,8.33 -6.628,-8.33 H 13.877 L 6.842,8.305 2.615,0 Z" />
        </g>
        <g
           transform="translate(746.7853,587.7874)"
           id="g9427">
          <path
             id="path9429"
             style="fill:#ffffff;fill-opacity:1;fill-rule:nonzero;stroke:none"
             d="m 0,0 -17.306,-34.728 34.702,-0.004 z m -0.005,4.738 20.83,-41.589 -41.552,0.006 z" />
        </g>
        <path
           id="path9431"
           style="fill:#ffffff;fill-opacity:1;fill-rule:nonzero;stroke:none"
           d="m 745.712,583.837 h 2.178 v -7.016 h -2.178 z" />
      </g>
    </g>
  </g>
</svg>
